<?xml version="1.0" encoding="UTF-8"?>
<svg version="1.1" xmlns="http://www.w3.org/2000/svg" width="512" height="512">
<path d="M0 0 C1.10402161 -0.00525696 2.20804321 -0.01051392 3.34552002 -0.01593018 C6.95266344 -0.02901079 10.55935692 -0.02043814 14.16650391 -0.01025391 C16.69088831 -0.0122772 19.21527213 -0.01519076 21.73965454 -0.01895142 C27.0097505 -0.02335783 32.27973145 -0.01728511 37.54980469 -0.00292969 C43.63030897 0.01344267 49.71051212 0.00806433 55.79100931 -0.0084089 C61.6664799 -0.0236846 67.54183649 -0.02204275 73.41731644 -0.0132637 C75.90758939 -0.01126455 78.39787006 -0.01371096 80.888134 -0.02070236 C84.36313028 -0.02832299 87.8375469 -0.01670558 91.3125 0 C92.33806 -0.00607269 93.36362 -0.01214539 94.42025757 -0.0184021 C100.537163 0.0360603 105.23360905 0.55554288 109.91259766 4.92333984 C113.84397083 10.0643663 114.42607597 12.94573192 114.4609375 19.30004883 C114.46911499 20.11838196 114.47729248 20.93671509 114.48571777 21.77984619 C114.5106211 24.50214922 114.52711664 27.22439921 114.54150391 29.94677734 C114.54682758 30.88106127 114.55215126 31.81534519 114.55763626 32.77794075 C114.58441229 37.74054265 114.60375713 42.70311923 114.61816406 47.66577148 C114.63140281 51.74217678 114.65905962 55.81806948 114.70019531 59.89428711 C114.7500736 64.83745005 114.77435431 69.78015468 114.78139114 74.72355843 C114.78802476 76.59188905 114.80303487 78.4602127 114.82728195 80.32839775 C114.98782781 93.46745509 113.15828897 104.85083707 109.26806641 117.38818359 C107.95941386 121.73526742 107.01837588 125.65827153 106.95947266 130.23193359 C106.93667236 131.30596436 106.91387207 132.37999512 106.89038086 133.48657227 C106.87064209 134.609104 106.85090332 135.73163574 106.83056641 136.88818359 C106.05974576 162.79961625 98.95350422 183.88345601 80.26806641 202.38818359 C79.25301025 203.08645264 78.2379541 203.78472168 77.19213867 204.50415039 C74.41886993 206.81464116 74.2766428 207.3462362 73.49511719 211.16870117 C73.45448882 212.6228434 73.44549777 214.07811505 73.46337891 215.53271484 C73.44967255 216.30250168 73.43596619 217.07228851 73.42184448 217.86540222 C73.38461376 220.3110943 73.38825394 222.75474891 73.39306641 225.20068359 C73.37493447 226.86412669 73.3541302 228.52754295 73.33056641 230.19091797 C73.27878153 234.25701351 73.2636309 238.32177644 73.26806641 242.38818359 C74.42495972 242.32377075 74.42495972 242.32377075 75.60522461 242.25805664 C78.26806641 242.38818359 78.26806641 242.38818359 80.87353516 244.47021484 C83.40799848 247.55870441 84.97026063 250.42648936 86.58056641 254.07568359 C87.09232422 255.21392578 87.60408203 256.35216797 88.13134766 257.52490234 C89.26806641 260.38818359 89.26806641 260.38818359 89.26806641 262.38818359 C89.91428955 262.48655518 90.5605127 262.58492676 91.22631836 262.6862793 C95.28768974 263.62346869 99.05299414 265.11917319 102.93603516 266.61865234 C104.65103918 267.2638386 106.36655092 267.90767657 108.08251953 268.55029297 C110.76866474 269.55873084 113.45109226 270.57394622 116.12573242 271.61254883 C118.72094564 272.61723252 121.3266379 273.58900704 123.93603516 274.55615234 C124.72181442 274.86957077 125.50759369 275.1829892 126.31718445 275.50590515 C132.52892705 277.76005662 136.98185678 277.10426157 143.26806641 275.38818359 C144.82245846 275.05639038 146.37826485 274.73107935 147.93603516 274.41552734 C158.1075419 272.25781097 158.1075419 272.25781097 165.70556641 265.57568359 C166.15802734 264.78548828 166.61048828 263.99529297 167.07666016 263.18115234 C167.46982422 262.58947266 167.86298828 261.99779297 168.26806641 261.38818359 C169.25806641 261.38818359 170.24806641 261.38818359 171.26806641 261.38818359 C171.26806641 257.42818359 171.26806641 253.46818359 171.26806641 249.38818359 C169.61806641 248.72818359 167.96806641 248.06818359 166.26806641 247.38818359 C156.33344636 240.20143718 150.0900398 229.21127903 147.26806641 217.38818359 C146.9069973 214.1660343 146.72518107 210.93583271 146.51806641 207.70068359 C145.85406691 199.09918383 144.12777883 191.30959502 141.38818359 183.13745117 C137.62468373 171.89287663 135.65749357 157.54636215 140.24072266 146.31005859 C144.91665458 137.56268786 152.18648169 134.48756018 161.01806641 130.82568359 C164.39548337 129.33182609 167.22329304 127.46416544 170.26806641 125.38818359 C173.67800921 124.25153599 176.32676139 124.24030355 179.92333984 124.21118164 C180.59528381 124.20461044 181.26722778 124.19803925 181.95953369 124.19126892 C184.1821708 124.17156761 186.40474038 124.15987951 188.62744141 124.14990234 C189.3882325 124.14582682 190.14902359 124.14175129 190.93286896 124.13755226 C194.96093981 124.11670346 198.98897673 124.1023975 203.01708984 124.09301758 C207.1676302 124.08196488 211.31763271 124.04757531 215.46798325 124.00784588 C218.66799889 123.98163837 221.86788728 123.97332204 225.06800079 123.9697361 C226.59734981 123.96487957 228.1266935 123.95329218 229.65593719 123.9346981 C244.58649643 123.76446386 244.58649643 123.76446386 250.26806641 128.38818359 C257.90507873 138.034936 255.76888912 151.48996313 255.02978516 163.14599609 C254.30507972 169.22180939 252.85032339 174.8518105 251.03198242 180.67138672 C248.31360496 189.40231721 246.83604228 197.22112847 246.70556641 206.38818359 C246.4499347 222.61003366 240.69262499 234.22221938 229.29541016 245.75927734 C227.26806641 247.38818359 227.26806641 247.38818359 222.26806641 249.38818359 C222.26806641 253.34818359 222.26806641 257.30818359 222.26806641 261.38818359 C223.58806641 261.71818359 224.90806641 262.04818359 226.26806641 262.38818359 C230.26806641 267.61040582 230.26806641 267.61040582 230.26806641 270.38818359 C231.19103516 270.60732422 232.11400391 270.82646484 233.06494141 271.05224609 C236.65093795 271.9158526 240.22406241 272.82502609 243.79443359 273.75097656 C245.47009062 274.18262528 247.14792765 274.60588295 248.82763672 275.02148438 C269.59258017 280.21855965 269.59258017 280.21855965 276.26806641 289.38818359 C278.75862221 294.40406698 279.64756465 298.04134069 279.67211914 303.72875977 C279.68241402 304.77404091 279.68241402 304.77404091 279.69291687 305.84043884 C279.71107103 308.12088966 279.70736623 310.40064551 279.70166016 312.68115234 C279.70622539 314.27582521 279.71153199 315.87049612 279.71754456 317.46516418 C279.72645163 320.79627514 279.72407768 324.12714599 279.71411133 327.45825195 C279.70258698 331.72562523 279.72289747 335.99217525 279.75202847 340.25944042 C279.77036935 343.54772693 279.77010293 346.83581497 279.76439095 350.12413979 C279.76423767 351.69780958 279.77028714 353.27149277 279.78268242 354.84511375 C279.79756276 357.04253459 279.78694199 359.23841831 279.76977539 361.43579102 C279.76952614 363.30940559 279.76952614 363.30940559 279.76927185 365.22087097 C279.14958527 369.13691207 278.44159302 370.05201091 275.26806641 372.38818359 C272.3573616 372.78009413 269.82589626 372.92574301 266.91589355 372.89154816 C266.06153623 372.89736192 265.2071789 372.90317568 264.32693195 372.90916562 C261.44439776 372.92384331 258.56270474 372.90984425 255.68017578 372.89611816 C253.6006705 372.900724 251.52116846 372.90707478 249.44167328 372.91502714 C243.71195197 372.93178707 237.98249578 372.92344384 232.25277328 372.91108227 C226.07954831 372.9020613 219.90637009 372.91598679 213.7331543 372.92700195 C202.33367956 372.94379246 190.93431338 372.94229261 179.5348413 372.93135608 C169.00474512 372.92130294 158.47468007 372.9186628 147.94458008 372.92344666 C147.24671676 372.9237522 146.54885344 372.92405774 145.82984275 372.92437254 C142.99715151 372.92561784 140.16446028 372.92689144 137.33176908 372.92821159 C110.746487 372.94045392 84.16125904 372.92934374 57.57598531 372.907824 C33.94467086 372.88884087 10.31344261 372.89053935 -13.31787109 372.90966797 C-39.85381138 372.93107585 -66.38970383 372.93958578 -92.92565155 372.92721891 C-95.75325011 372.925936 -98.58084868 372.92468464 -101.40844727 372.92344666 C-102.10469941 372.92313035 -102.80095156 372.92281404 -103.51830226 372.92248814 C-114.04305771 372.91793384 -124.56777863 372.92326754 -135.0925293 372.93336487 C-147.05690669 372.94478597 -159.02118223 372.94159049 -170.98555565 372.92024189 C-177.09434161 372.90970231 -183.20295225 372.90565912 -189.31173706 372.9188385 C-194.89771994 372.93070803 -200.48336402 372.92428998 -206.06931591 372.90292829 C-208.09616859 372.89843907 -210.12304956 372.90078002 -212.14988422 372.91043144 C-214.8935901 372.92249999 -217.63611764 372.9102182 -220.37976074 372.89154816 C-221.57516873 372.90559515 -221.57516873 372.90559515 -222.79472637 372.91992593 C-226.33583176 372.8713764 -228.34602504 372.67665347 -231.22135735 370.52731848 C-233.20511743 367.7181055 -233.25103111 365.91886367 -233.28125 362.49316406 C-233.30031403 361.30447723 -233.31937805 360.11579041 -233.33901978 358.89108276 C-233.33719696 357.60879791 -233.33537415 356.32651306 -233.33349609 355.00537109 C-233.34127863 353.66740389 -233.34994974 352.32944159 -233.35946655 350.9914856 C-233.37438285 348.18540459 -233.37381932 345.37982667 -233.36328125 342.57373047 C-233.35174843 339.00250244 -233.38540979 335.43336837 -233.4319706 331.86248589 C-233.46166471 329.09630576 -233.46315874 326.33061568 -233.45695114 323.56430435 C-233.45845903 321.61576421 -233.48605808 319.66729948 -233.51431274 317.71896362 C-233.41671248 308.25789202 -231.2353751 301.83178348 -224.43530273 295.12207031 C-217.58975064 290.73618195 -210.48663659 287.05099187 -203.16943359 283.51318359 C-200.83324895 282.37308753 -198.49938552 281.22835718 -196.16552734 280.08349609 C-195.14515381 279.58865723 -194.12478027 279.09381836 -193.07348633 278.58398438 C-190.83187686 277.59084026 -190.83187686 277.59084026 -189.73193359 276.38818359 C-191.47603516 275.96859375 -191.47603516 275.96859375 -193.25537109 275.54052734 C-201.89691928 273.400828 -210.3490186 271.0093489 -218.66943359 267.82568359 C-219.41950684 267.54523193 -220.16958008 267.26478027 -220.94238281 266.97583008 C-228.41610602 264.02215846 -228.41610602 264.02215846 -230.73193359 260.38818359 C-231.84070843 253.90275691 -230.01130204 248.01162148 -228.04443359 241.88818359 C-223.67373133 227.36796969 -220.61928024 212.62744059 -218.67333984 197.58740234 C-218.54487671 196.59493248 -218.54487671 196.59493248 -218.41381836 195.58241272 C-218.00301158 192.36636359 -217.6142984 189.14926885 -217.25097656 185.92749023 C-215.77282153 173.57673981 -212.85519822 162.68500921 -205.73193359 152.38818359 C-205.23048828 151.62892578 -204.72904297 150.86966797 -204.21240234 150.08740234 C-196.91557356 139.80792822 -186.55642425 133.3407521 -174.73193359 129.38818359 C-174.02037109 129.14326172 -173.30880859 128.89833984 -172.57568359 128.64599609 C-158.58989353 124.71921658 -142.92935193 127.09321547 -130.16943359 133.45068359 C-119.38694209 139.61026257 -111.61485326 147.48476181 -105.73193359 158.38818359 C-105.26013672 159.23896484 -104.78833984 160.08974609 -104.30224609 160.96630859 C-99.38071589 170.69288309 -98.25371722 181.2786473 -96.87255859 191.95068359 C-94.24048575 212.22632166 -90.72600789 232.19435865 -84.29833984 251.65380859 C-83.61104773 254.97177055 -83.77854089 257.13698267 -84.73193359 260.38818359 C-92.46576826 270.66941878 -114.57968524 274.15466759 -126.73193359 276.38818359 C-122.42473639 279.21553371 -118.03592985 281.85105205 -113.48193359 284.26318359 C-112.26763672 284.90900391 -112.26763672 284.90900391 -111.02880859 285.56787109 C-108.29638234 286.54373761 -107.44809959 286.26949762 -104.73193359 285.38818359 C-103.20663689 284.66033388 -101.69907768 283.89470045 -100.20629883 283.10229492 C-94.662949 280.27725827 -88.98315767 278.08851413 -83.14208984 275.96240234 C-82.07574814 275.56994827 -81.00940643 275.1774942 -79.91075134 274.77314758 C-77.67730067 273.95277674 -75.44279218 273.13528047 -73.20727539 272.32055664 C-69.7769199 271.06929527 -66.3509562 269.80652402 -62.92529297 268.54248047 C-60.74780931 267.74427015 -58.57008344 266.94672018 -56.39208984 266.14990234 C-55.36712906 265.77185959 -54.34216827 265.39381683 -53.28614807 265.00431824 C-51.86337807 264.48796562 -51.86337807 264.48796562 -50.41186523 263.96118164 C-49.57820938 263.6564946 -48.74455353 263.35180756 -47.88563538 263.03788757 C-45.73193359 262.38818359 -45.73193359 262.38818359 -42.73193359 262.38818359 C-42.57337891 261.84291016 -42.41482422 261.29763672 -42.25146484 260.73583984 C-40.15384108 253.95622713 -37.8237803 246.44941473 -31.73193359 242.38818359 C-29.04443359 242.26318359 -29.04443359 242.26318359 -26.73193359 242.38818359 C-26.60177952 237.58515263 -26.54583891 232.78867615 -26.55493164 227.98388672 C-26.54800815 226.35445101 -26.52174251 224.72496705 -26.47485352 223.09619141 C-26.06087579 213.06694734 -26.06087579 213.06694734 -30.09375 204.22607422 C-32.86467299 201.74426277 -35.71452272 199.55875953 -38.73193359 197.38818359 C-53.22508329 182.71963496 -59.65933471 161.7202409 -59.87060547 141.59204102 C-60.05858768 128.7763536 -61.8686373 117.56742206 -66.08349609 105.47094727 C-67.77258991 100.04562372 -67.92097689 94.87770961 -67.97021484 89.23974609 C-67.97828659 88.35016205 -67.98635834 87.460578 -67.99467468 86.54403687 C-68.00848264 84.65958584 -68.01921944 82.77511014 -68.02709961 80.890625 C-68.0385482 78.99015821 -68.05888514 77.08972173 -68.08862305 75.18945312 C-68.41567079 54.25474313 -64.96765312 36.36586327 -50.06176758 20.57080078 C-36.26047028 6.60796158 -19.52228812 -0.11698357 0 0 Z " fill="#FE4F7C" transform="translate(232.73193359375,69.61181640625)"/>
<path d="M0 0 C1.10402161 -0.00525696 2.20804321 -0.01051392 3.34552002 -0.01593018 C6.95266344 -0.02901079 10.55935692 -0.02043814 14.16650391 -0.01025391 C16.69088831 -0.0122772 19.21527213 -0.01519076 21.73965454 -0.01895142 C27.0097505 -0.02335783 32.27973145 -0.01728511 37.54980469 -0.00292969 C43.63030897 0.01344267 49.71051212 0.00806433 55.79100931 -0.0084089 C61.6664799 -0.0236846 67.54183649 -0.02204275 73.41731644 -0.0132637 C75.90758939 -0.01126455 78.39787006 -0.01371096 80.888134 -0.02070236 C84.36313028 -0.02832299 87.8375469 -0.01670558 91.3125 0 C92.33806 -0.00607269 93.36362 -0.01214539 94.42025757 -0.0184021 C100.537163 0.0360603 105.23360905 0.55554288 109.91259766 4.92333984 C113.84397083 10.0643663 114.42607597 12.94573192 114.4609375 19.30004883 C114.47320374 20.52754852 114.47320374 20.52754852 114.48571777 21.77984619 C114.5106211 24.50214922 114.52711664 27.22439921 114.54150391 29.94677734 C114.54682758 30.88106127 114.55215126 31.81534519 114.55763626 32.77794075 C114.58441229 37.74054265 114.60375713 42.70311923 114.61816406 47.66577148 C114.63140281 51.74217678 114.65905962 55.81806948 114.70019531 59.89428711 C114.7500736 64.83745005 114.77435431 69.78015468 114.78139114 74.72355843 C114.78802476 76.59188905 114.80303487 78.4602127 114.82728195 80.32839775 C114.98782781 93.46745509 113.15828897 104.85083707 109.26806641 117.38818359 C107.95941386 121.73526742 107.01837588 125.65827153 106.95947266 130.23193359 C106.92527222 131.84297974 106.92527222 131.84297974 106.89038086 133.48657227 C106.87064209 134.609104 106.85090332 135.73163574 106.83056641 136.88818359 C106.05974576 162.79961625 98.95350422 183.88345601 80.26806641 202.38818359 C79.24503418 203.0862915 78.22200195 203.78439941 77.16796875 204.50366211 C74.37366653 206.83193319 74.28568779 207.27695535 73.66967773 211.1652832 C73.70285384 212.6245603 73.76456794 214.08338117 73.85009766 215.54052734 C73.87552211 217.13751184 73.89956824 218.73451877 73.92236328 220.33154297 C73.99287291 222.8323007 74.08077459 225.33021641 74.19555664 227.8293457 C74.41508769 233.1744266 74.4631102 238.15255943 73.26806641 243.38818359 C70.11124683 246.72835007 66.51742318 247.82801902 62.26806641 249.38818359 C60.2835213 250.53501804 58.3272711 251.73208178 56.40087891 252.97412109 C54.92820557 253.9003125 54.92820557 253.9003125 53.42578125 254.84521484 C51.9245874 255.79460937 51.9245874 255.79460937 50.39306641 256.76318359 C49.3445752 257.41931641 48.29608398 258.07544922 47.21582031 258.75146484 C42.79420461 261.51968543 38.38198314 264.29493752 34.03369141 267.17724609 C33.14979736 267.75273193 33.14979736 267.75273193 32.24804688 268.33984375 C30.77518779 269.30188466 29.31397315 270.28169166 27.85400391 271.26318359 C24.38243689 272.77347257 22.87980525 272.5315316 19.26806641 271.38818359 C16.37380065 269.86095111 13.67707983 268.07685082 10.95556641 266.26318359 C9.28549682 265.17836784 7.61351436 264.09649301 5.93994141 263.01708984 C5.03953125 262.43588379 4.13912109 261.85467773 3.21142578 261.25585938 C-2.22945297 257.8034106 -7.76382514 254.50656315 -13.29443359 251.20068359 C-14.39505127 250.54116699 -15.49566895 249.88165039 -16.62963867 249.20214844 C-21.60992494 246.16742171 -21.60992494 246.16742171 -26.73193359 243.38818359 C-26.70462158 242.35000488 -26.67730957 241.31182617 -26.64916992 240.2421875 C-26.56155444 236.34647542 -26.5477674 232.45323501 -26.55493164 228.55664062 C-26.54800602 226.87870822 -26.52172821 225.20072933 -26.47485352 223.5234375 C-26.03857944 213.2648377 -26.03857944 213.2648377 -30.09375 204.19482422 C-32.86264672 201.71482763 -35.70762719 199.54407617 -38.73193359 197.38818359 C-53.23023495 182.73175046 -59.65942375 161.71175792 -59.87060547 141.59204102 C-60.05858768 128.7763536 -61.8686373 117.56742206 -66.08349609 105.47094727 C-67.77258991 100.04562372 -67.92097689 94.87770961 -67.97021484 89.23974609 C-67.98232246 87.90537003 -67.98232246 87.90537003 -67.99467468 86.54403687 C-68.00848264 84.65958584 -68.01921944 82.77511014 -68.02709961 80.890625 C-68.0385482 78.99015821 -68.05888514 77.08972173 -68.08862305 75.18945312 C-68.41567079 54.25474313 -64.96765312 36.36586327 -50.06176758 20.57080078 C-36.26047028 6.60796158 -19.52228812 -0.11698357 0 0 Z " fill="#EFBF86" transform="translate(232.73193359375,69.61181640625)"/>
<path d="M0 0 C6.38006609 5.48982431 10.9922744 11.31529931 14.98046875 18.70703125 C15.45226562 19.5578125 15.9240625 20.40859375 16.41015625 21.28515625 C21.33168646 31.01173075 22.45868512 41.59749496 23.83984375 52.26953125 C26.4719166 72.54516932 29.98639445 92.51320631 36.4140625 111.97265625 C37.10135462 115.2906182 36.93386145 117.45583033 35.98046875 120.70703125 C28.24663408 130.98826644 6.1327171 134.47351525 -6.01953125 136.70703125 C0.40777363 140.90949983 7.07405465 144.35742041 13.98046875 147.70703125 C12.68537802 150.41657592 11.23479528 152.85490207 9.54296875 155.33203125 C4.14932088 164.01235762 3.52943171 172.73079532 3.58203125 182.7578125 C3.57916107 183.97478317 3.57629089 185.19175385 3.57333374 186.44560242 C3.57130314 189.00125599 3.57676221 191.55692547 3.58935547 194.11254883 C3.60549235 198.0252533 3.58943579 201.93693571 3.5703125 205.84960938 C3.57229375 208.33984603 3.57613496 210.83008204 3.58203125 213.3203125 C3.57595856 214.48806717 3.56988586 215.65582184 3.56362915 216.85896301 C3.57308563 217.94747055 3.58254211 219.03597809 3.59228516 220.1574707 C3.59586533 221.58782402 3.59586533 221.58782402 3.59951782 223.04707336 C4.18963959 227.16754906 6.07836602 229.80492852 8.98046875 232.70703125 C-6.2052842 232.80046113 -21.39102389 232.87100381 -36.57699966 232.91427994 C-43.62809098 232.9349077 -50.67900375 232.96303205 -57.72998047 233.00878906 C-64.53158007 233.05290672 -71.33299383 233.07615353 -78.13472748 233.08654022 C-80.73274408 233.09394444 -83.33075026 233.10840266 -85.92868805 233.12995148 C-89.56108246 233.15888878 -93.19270462 233.16299115 -96.82519531 233.16113281 C-97.90485062 233.17551392 -98.98450592 233.18989502 -100.09687805 233.20471191 C-107.28452599 233.16478846 -107.28452599 233.16478846 -110.68484497 231.04708862 C-112.35692261 228.11549513 -112.539087 226.18576388 -112.56884766 222.81201172 C-112.58791168 221.62332489 -112.60697571 220.43463806 -112.62661743 219.20993042 C-112.62479462 217.92764557 -112.6229718 216.64536072 -112.62109375 215.32421875 C-112.62887628 213.98625155 -112.6375474 212.64828924 -112.64706421 211.31033325 C-112.66198051 208.50425225 -112.66141698 205.69867433 -112.65087891 202.89257812 C-112.63934609 199.3213501 -112.67300744 195.75221602 -112.71956825 192.18133354 C-112.74926237 189.41515342 -112.75075639 186.64946334 -112.7445488 183.88315201 C-112.74605669 181.93461187 -112.77365574 179.98614714 -112.8019104 178.03781128 C-112.70431013 168.57673968 -110.52297276 162.15063113 -103.72290039 155.44091797 C-96.8773483 151.05502961 -89.77423424 147.36983952 -82.45703125 143.83203125 C-80.1208466 142.69193518 -77.78698318 141.54720484 -75.453125 140.40234375 C-74.43275146 139.90750488 -73.41237793 139.41266602 -72.36108398 138.90283203 C-70.11947452 137.90968791 -70.11947452 137.90968791 -69.01953125 136.70703125 C-70.76363281 136.28744141 -70.76363281 136.28744141 -72.54296875 135.859375 C-81.18451694 133.71967565 -89.63661626 131.32819656 -97.95703125 128.14453125 C-98.70710449 127.86407959 -99.45717773 127.58362793 -100.22998047 127.29467773 C-107.70370368 124.34100611 -107.70370368 124.34100611 -110.01953125 120.70703125 C-111.12830609 114.22160456 -109.2988997 108.33046913 -107.33203125 102.20703125 C-102.96132898 87.68681735 -99.90687789 72.94628825 -97.9609375 57.90625 C-97.83247437 56.91378014 -97.83247437 56.91378014 -97.70141602 55.90126038 C-97.29060924 52.68521125 -96.90189605 49.46811651 -96.53857422 46.24633789 C-95.06041919 33.89558747 -92.14279587 23.00385687 -85.01953125 12.70703125 C-84.51808594 11.94777344 -84.01664063 11.18851563 -83.5 10.40625 C-76.20317122 0.12677587 -65.84402191 -6.34040024 -54.01953125 -10.29296875 C-53.30796875 -10.53789062 -52.59640625 -10.7828125 -51.86328125 -11.03515625 C-33.83946987 -16.09568791 -14.58685896 -11.07695499 0 0 Z " fill="#D5DBEC" transform="translate(112.01953125,209.29296875)"/>
<path d="M0 0 C0.67194397 -0.0065712 1.34388794 -0.0131424 2.03619385 -0.01991272 C4.25883096 -0.03961403 6.48140054 -0.05130213 8.70410156 -0.0612793 C9.8452882 -0.06739259 9.8452882 -0.06739259 11.00952911 -0.07362938 C15.03759997 -0.09447818 19.06563689 -0.10878414 23.09375 -0.11816406 C27.24429036 -0.12921676 31.39429287 -0.16360633 35.5446434 -0.20333576 C38.74465905 -0.22954327 41.94454743 -0.2378596 45.14466095 -0.24144554 C46.67400997 -0.24630207 48.20335366 -0.25788946 49.73259735 -0.27648354 C64.66315659 -0.44671778 64.66315659 -0.44671778 70.34472656 4.17700195 C77.98173888 13.82375436 75.84554927 27.27878149 75.10644531 38.93481445 C74.38173987 45.01062775 72.92698355 50.64062886 71.10864258 56.46020508 C68.39026512 65.19113557 66.91270244 73.00994683 66.78222656 82.17700195 C66.52659485 98.39885202 60.76928515 110.01103774 49.37207031 121.5480957 C47.34472656 123.17700195 47.34472656 123.17700195 42.34472656 125.17700195 C42.34472656 129.13700195 42.34472656 133.09700195 42.34472656 137.17700195 C43.66472656 137.50700195 44.98472656 137.83700195 46.34472656 138.17700195 C50.34472656 143.39922418 50.34472656 143.39922418 50.34472656 146.17700195 C51.72917969 146.50571289 51.72917969 146.50571289 53.14160156 146.84106445 C56.7275981 147.70467096 60.30072257 148.61384445 63.87109375 149.53979492 C65.54675078 149.97144364 67.22458781 150.39470131 68.90429688 150.81030273 C89.66924033 156.00737801 89.66924033 156.00737801 96.34472656 165.17700195 C98.83528237 170.19288534 99.72422481 173.83015905 99.7487793 179.51757812 C99.75564255 180.21443222 99.7625058 180.91128632 99.76957703 181.6292572 C99.78773118 183.90970802 99.78402639 186.18946387 99.77832031 188.4699707 C99.78288555 190.06464357 99.78819214 191.65931448 99.79420471 193.25398254 C99.80311179 196.5850935 99.80073783 199.91596435 99.79077148 203.24707031 C99.77924714 207.51444358 99.79955763 211.78099361 99.82868862 216.04825878 C99.84702951 219.33654529 99.84676309 222.62463333 99.8410511 225.91295815 C99.84089783 227.48662794 99.8469473 229.06031113 99.85934258 230.63393211 C99.87422292 232.83135295 99.86360215 235.02723667 99.84643555 237.22460938 C99.84626938 238.47368576 99.84610321 239.72276215 99.84593201 241.00968933 C99.34472656 244.17700195 99.34472656 244.17700195 98.01301575 246.58314514 C93.63063925 249.20088263 89.15488936 248.69776388 84.15039062 248.63110352 C83.00863876 248.63168762 81.8668869 248.63227173 80.6905365 248.63287354 C76.91349983 248.63008497 73.13725052 248.59895476 69.36035156 248.56762695 C66.74290396 248.56016736 64.12545078 248.5544731 61.50799561 248.55047607 C55.32082347 248.53804786 49.13393434 248.50522869 42.94688678 248.46507812 C35.90222806 248.42035531 28.85755576 248.39837214 21.81279039 248.37829638 C7.32328986 248.3364957 -7.16598783 248.26614684 -21.65527344 248.17700195 C-21.01589844 247.39325195 -20.37652344 246.60950195 -19.71777344 245.80200195 C-16.87103106 242.17887529 -16.52638346 240.50236779 -16.49414062 235.96801758 C-16.48453308 234.87928345 -16.47492554 233.79054932 -16.46502686 232.66882324 C-16.46077698 231.48558472 -16.4565271 230.30234619 -16.45214844 229.08325195 C-16.44359833 227.25860413 -16.44359833 227.25860413 -16.43487549 225.39709473 C-16.4254112 222.81462476 -16.41888586 220.23214264 -16.41503906 217.6496582 C-16.40538173 213.72105352 -16.37439099 209.79298267 -16.34277344 205.86450195 C-16.33623862 203.35408839 -16.33099003 200.84367108 -16.32714844 198.33325195 C-16.31480164 197.16620728 -16.30245483 195.9991626 -16.28973389 194.79675293 C-16.31995984 183.57744567 -18.6428169 174.18871183 -26.04199219 165.55981445 C-31.46203688 160.28994732 -38.7326925 157.88458562 -45.65527344 155.17700195 C-43.19279003 152.71451854 -41.61297648 152.53395664 -38.23730469 151.7668457 C-37.14740234 151.49807617 -36.0575 151.22930664 -34.93457031 150.95239258 C-32.64796978 150.39974377 -30.35620603 149.86798242 -28.05957031 149.35864258 C-20.7423567 147.50460433 -17.07104888 145.48221461 -13.02905273 139.00732422 C-12.57570557 138.40331787 -12.1223584 137.79931152 -11.65527344 137.17700195 C-10.66527344 137.17700195 -9.67527344 137.17700195 -8.65527344 137.17700195 C-8.65527344 133.21700195 -8.65527344 129.25700195 -8.65527344 125.17700195 C-10.30527344 124.51700195 -11.95527344 123.85700195 -13.65527344 123.17700195 C-23.58989349 115.99025554 -29.83330004 105.00009738 -32.65527344 93.17700195 C-33.01634254 89.95485266 -33.19815878 86.72465107 -33.40527344 83.48950195 C-34.06927293 74.88800219 -35.79556102 67.09841338 -38.53515625 58.92626953 C-42.29865612 47.68169499 -44.26584627 33.33518051 -39.68261719 22.09887695 C-35.00668527 13.35150622 -27.73685816 10.27637854 -18.90527344 6.61450195 C-15.52785648 5.12064445 -12.70004681 3.2529838 -9.65527344 1.17700195 C-6.24533063 0.04035435 -3.59657845 0.02912191 0 0 Z " fill="#EFBF86" transform="translate(412.6552734375,193.822998046875)"/>
<path d="M0 0 C1.10402161 -0.00525696 2.20804321 -0.01051392 3.34552002 -0.01593018 C6.95266344 -0.02901079 10.55935692 -0.02043814 14.16650391 -0.01025391 C16.69088831 -0.0122772 19.21527213 -0.01519076 21.73965454 -0.01895142 C27.0097505 -0.02335783 32.27973145 -0.01728511 37.54980469 -0.00292969 C43.63030897 0.01344267 49.71051212 0.00806433 55.79100931 -0.0084089 C61.6664799 -0.0236846 67.54183649 -0.02204275 73.41731644 -0.0132637 C75.90758939 -0.01126455 78.39787006 -0.01371096 80.888134 -0.02070236 C84.36313028 -0.02832299 87.8375469 -0.01670558 91.3125 0 C92.33806 -0.00607269 93.36362 -0.01214539 94.42025757 -0.0184021 C100.537163 0.0360603 105.23360905 0.55554288 109.91259766 4.92333984 C113.84397083 10.0643663 114.42607597 12.94573192 114.4609375 19.30004883 C114.47320374 20.52754852 114.47320374 20.52754852 114.48571777 21.77984619 C114.5106211 24.50214922 114.52711664 27.22439921 114.54150391 29.94677734 C114.54682758 30.88106127 114.55215126 31.81534519 114.55763626 32.77794075 C114.58441229 37.74054265 114.60375713 42.70311923 114.61816406 47.66577148 C114.63140281 51.74217678 114.65905962 55.81806948 114.70019531 59.89428711 C114.7500736 64.83745005 114.77435431 69.78015468 114.78139114 74.72355843 C114.78802476 76.59188905 114.80303487 78.4602127 114.82728195 80.32839775 C114.98785815 93.46993766 113.15197578 104.84758799 109.26806641 117.38818359 C108.14518164 121.18364757 107.05885823 124.87566123 106.64306641 128.82568359 C106.45744141 130.58912109 106.45744141 130.58912109 106.26806641 132.38818359 C105.93806641 132.38818359 105.60806641 132.38818359 105.26806641 132.38818359 C105.17332031 131.55287109 105.17332031 131.55287109 105.07666016 130.70068359 C103.97106031 123.81105085 101.06375996 120.27689707 96.26806641 115.38818359 C90.26688191 108.62122295 89.04105853 104.6260456 88.90478516 95.57958984 C87.8672503 90.37918506 84.55063594 88.30828783 80.39306641 85.32568359 C69.63784195 78.65744443 58.90742479 74.63823101 46.64306641 71.63818359 C45.78455078 71.42718018 44.92603516 71.21617676 44.04150391 70.9987793 C21.25340122 65.70775355 -3.8765115 67.30532868 -26.73193359 71.38818359 C-27.42206543 71.5109668 -28.11219727 71.63375 -28.82324219 71.76025391 C-35.17149245 72.70732879 -35.17149245 72.70732879 -40.34057617 76.0847168 C-42.08470017 78.97220758 -42.10063305 80.82560416 -42.10302734 84.18505859 C-42.12042969 85.30912109 -42.13783203 86.43318359 -42.15576172 87.59130859 C-42.16481603 89.94025525 -42.17007591 92.28921985 -42.17138672 94.63818359 C-42.31058259 103.04753435 -43.35162172 108.58020661 -48.98583984 114.92724609 C-49.74767578 115.61560547 -50.50951172 116.30396484 -51.29443359 117.01318359 C-54.76321557 120.30510333 -57.01917479 122.93501071 -58.73193359 127.38818359 C-60.57407696 124.62496854 -61.32180941 122.80988846 -62.20458984 119.67724609 C-62.59420898 118.30439453 -62.59420898 118.30439453 -62.99169922 116.90380859 C-63.25660156 115.94990234 -63.52150391 114.99599609 -63.79443359 114.01318359 C-64.06320313 113.06701172 -64.33197266 112.12083984 -64.60888672 111.14599609 C-66.71594207 103.66358507 -67.90232073 97.01392267 -67.97021484 89.23974609 C-67.98232246 87.90537003 -67.98232246 87.90537003 -67.99467468 86.54403687 C-68.00848264 84.65958584 -68.01921944 82.77511014 -68.02709961 80.890625 C-68.0385482 78.99015821 -68.05888514 77.08972173 -68.08862305 75.18945312 C-68.41567079 54.25474313 -64.96765312 36.36586327 -50.06176758 20.57080078 C-36.26047028 6.60796158 -19.52228812 -0.11698357 0 0 Z " fill="#694B4B" transform="translate(232.73193359375,69.61181640625)"/>
<path d="M0 0 C4.17453903 0.70211469 5.92782787 1.47918913 8.8125 4.625 C12.6736175 8.68933421 16.73737866 12.36448398 21 16 C21.67933594 16.58394531 22.35867188 17.16789062 23.05859375 17.76953125 C24.703266 19.18255952 26.35126933 20.59170922 28 22 C33.28879686 18.93806498 37.20221272 14.88795745 41.47265625 10.546875 C43.71148884 8.29074076 45.96767755 6.0828574 48.3125 3.9375 C48.90675781 3.38964844 49.50101562 2.84179688 50.11328125 2.27734375 C52.37709148 0.74470204 54.3140489 0.37446134 57 0 C57.83905565 1.12073862 58.67107831 2.24674547 59.5 3.375 C59.9640625 4.00148438 60.428125 4.62796875 60.90625 5.2734375 C62 7 62 7 62 9 C62.92296875 9.21914063 63.8459375 9.43828125 64.796875 9.6640625 C68.38287154 10.527669 71.95599601 11.4368425 75.52636719 12.36279297 C77.20202421 12.79444169 78.87986125 13.21769936 80.55957031 13.63330078 C101.32451377 18.83037606 101.32451377 18.83037606 108 28 C110.4905558 33.01588339 111.37949825 36.65315709 111.40405273 42.34057617 C111.41091599 43.03743027 111.41777924 43.73428436 111.42485046 44.45225525 C111.44300462 46.73270607 111.43929982 49.01246192 111.43359375 51.29296875 C111.43815899 52.88764162 111.44346558 54.48231252 111.44947815 56.07698059 C111.45838523 59.40809155 111.45601127 62.7389624 111.44604492 66.07006836 C111.43452058 70.33744163 111.45483107 74.60399166 111.48396206 78.87125683 C111.50230294 82.15954334 111.50203653 85.44763138 111.49632454 88.73595619 C111.49617126 90.30962599 111.50222073 91.88330918 111.51461601 93.45693016 C111.52949636 95.65435099 111.51887558 97.85023472 111.50170898 100.04760742 C111.50154282 101.29668381 111.50137665 102.54576019 111.50120544 103.83268738 C111 107 111 107 109.66828918 109.40614319 C105.28591269 112.02388068 100.81016279 111.52076193 95.80566406 111.45410156 C94.6639122 111.45468567 93.52216034 111.45526978 92.34580994 111.45587158 C88.56877327 111.45308301 84.79252396 111.42195281 81.015625 111.390625 C78.3981774 111.3831654 75.78072422 111.37747115 73.16326904 111.37347412 C66.97609691 111.36104591 60.78920778 111.32822674 54.60216022 111.28807616 C47.55750149 111.24335336 40.51282919 111.22137019 33.46806383 111.20129442 C18.97856329 111.15949375 4.48928561 111.08914489 -10 111 C-9.360625 110.21625 -8.72125 109.4325 -8.0625 108.625 C-5.21575762 105.00187334 -4.87111002 103.32536583 -4.83886719 98.79101562 C-4.82925964 97.70228149 -4.8196521 96.61354736 -4.80975342 95.49182129 C-4.80550354 94.30858276 -4.80125366 93.12534424 -4.796875 91.90625 C-4.78832489 90.08160217 -4.78832489 90.08160217 -4.77960205 88.22009277 C-4.77013776 85.63762281 -4.76361242 83.05514069 -4.75976562 80.47265625 C-4.75010829 76.54405157 -4.71911755 72.61598072 -4.6875 68.6875 C-4.68096518 66.17708644 -4.67571659 63.66666913 -4.671875 61.15625 C-4.6595282 59.98920532 -4.6471814 58.82216064 -4.63446045 57.61975098 C-4.66468641 46.40044372 -6.98754346 37.01170988 -14.38671875 28.3828125 C-19.80676344 23.11294537 -27.07741907 20.70758367 -34 18 C-31.53751659 15.53751659 -29.95770305 15.35695468 -26.58203125 14.58984375 C-24.94717773 14.18668945 -24.94717773 14.18668945 -23.27929688 13.77539062 C-20.99269635 13.22274182 -18.70093259 12.69098047 -16.40429688 12.18164062 C-9.05887434 10.32045479 -5.32494496 8.18595997 -1.08081055 1.83032227 C-0.54580933 0.92431274 -0.54580933 0.92431274 0 0 Z " fill="#D4DBEC" transform="translate(401,331)"/>
<path d="M0 0 C0.65258789 0.12358887 1.30517578 0.24717773 1.97753906 0.37451172 C17.72652974 3.40599033 36.60688188 8.75480638 47.80859375 20.97265625 C49.78289677 24.33220794 49.19144731 27.17105386 49 31 C47.824375 30.608125 46.64875 30.21625 45.4375 29.8125 C44.20580078 29.40451172 44.20580078 29.40451172 42.94921875 28.98828125 C40.80186481 28.26870437 38.6592238 27.53501701 36.51953125 26.79296875 C20.84293375 21.41581458 6.27806221 18.82434179 -10.3125 18.875 C-11.56740234 18.87113281 -12.82230469 18.86726563 -14.11523438 18.86328125 C-29.80532982 18.35898357 -29.80532982 18.35898357 -44 24 C-48.41712312 28.75690182 -49.12751266 31.42400114 -49.17700195 37.84204102 C-49.18357315 38.54654388 -49.19014435 39.25104675 -49.19691467 39.97689819 C-49.21668807 42.31923536 -49.22833078 44.66150769 -49.23828125 47.00390625 C-49.24235678 47.80829573 -49.2464323 48.6126852 -49.25063133 49.44145012 C-49.27152783 53.71446349 -49.28580343 57.98744459 -49.29516602 62.26049805 C-49.30612523 66.63091227 -49.34039011 71.00080235 -49.38033772 75.37103367 C-49.40679169 78.7644683 -49.41488388 82.15778479 -49.41844749 85.5513134 C-49.42325457 87.15891929 -49.43469544 88.76652209 -49.45348549 90.37402534 C-49.69901615 112.8083153 -43.81232066 133.69451646 -29 151 C-25.42970503 153.72612545 -21.25203254 153.30536305 -16.9375 153.25 C-16.17453613 153.24250732 -15.41157227 153.23501465 -14.62548828 153.22729492 C0.59367835 152.93926037 14.75074308 148.53368604 27.609375 140.453125 C30 139 30 139 33 138 C33 149.88 33 161.76 33 174 C29.37 175.98 25.74 177.96 22 180 C20.03022708 181.17202526 18.07106133 182.36248336 16.1328125 183.5859375 C14.66013916 184.51212891 14.66013916 184.51212891 13.15771484 185.45703125 C11.656521 186.40642578 11.656521 186.40642578 10.125 187.375 C9.07650879 188.03113281 8.02801758 188.68726563 6.94775391 189.36328125 C2.52613821 192.13150183 -1.88608327 194.90675393 -6.234375 197.7890625 C-6.8236377 198.17271973 -7.41290039 198.55637695 -8.02001953 198.95166016 C-9.49287862 199.91370106 -10.95409325 200.89350807 -12.4140625 201.875 C-15.88562951 203.38528897 -17.38826116 203.143348 -21 202 C-23.89426576 200.47276752 -26.59098658 198.68866723 -29.3125 196.875 C-30.98256958 195.79018424 -32.65455204 194.70830942 -34.328125 193.62890625 C-35.22853516 193.0477002 -36.12894531 192.46649414 -37.05664062 191.86767578 C-42.49751937 188.41522701 -48.03189155 185.11837955 -53.5625 181.8125 C-54.66311768 181.1529834 -55.76373535 180.4934668 -56.89770508 179.81396484 C-61.87799135 176.77923812 -61.87799135 176.77923812 -67 174 C-66.97268799 172.96182129 -66.94537598 171.92364258 -66.91723633 170.85400391 C-66.82962084 166.95829182 -66.8158338 163.06505141 -66.82299805 159.16845703 C-66.81607243 157.49052462 -66.78979462 155.81254574 -66.74291992 154.13525391 C-66.30664585 143.87665411 -66.30664585 143.87665411 -70.36181641 134.80664062 C-73.13071312 132.32664403 -75.97569359 130.15589258 -79 128 C-94.3262765 112.50656106 -100.10958641 90.630069 -100.3125 69.5 C-100.34150391 68.49324219 -100.37050781 67.48648438 -100.40039062 66.44921875 C-100.4654576 58.81135649 -99.29860983 54.54987112 -94 48.84765625 C-92.6679596 47.65870613 -91.33462719 46.4712019 -90 45.28515625 C-83.68073737 38.064905 -83.46860185 31.1534483 -83.5 21.8125 C-83.50767388 19.50649966 -83.49792092 17.20035985 -83.46875 14.89453125 C-83.47326172 13.88237549 -83.47777344 12.87021973 -83.48242188 11.82739258 C-82.86619631 8.21579934 -81.56595466 6.57590353 -79 4 C-76.17324665 3.02025617 -73.71980822 2.35113008 -70.8125 1.8125 C-70.0078833 1.65233398 -69.2032666 1.49216797 -68.37426758 1.32714844 C-65.92051887 0.85491302 -63.46301791 0.42094664 -61 0 C-60.32807617 -0.12004395 -59.65615234 -0.24008789 -58.96386719 -0.36376953 C-40.04415323 -3.61060535 -18.82140025 -3.80340074 0 0 Z " fill="#E5AE77" transform="translate(273,139)"/>
<path d="M0 0 C4.78029235 0.76071802 9.1694604 2.38247617 13.703125 4.01953125 C14.54035095 4.31937424 15.3775769 4.61921722 16.24017334 4.92814636 C18.00920629 5.56275611 19.77760611 6.19913317 21.54541016 6.8371582 C24.22506421 7.80350754 26.90726779 8.76249942 29.58984375 9.72070312 C31.31526351 10.34070257 33.04052892 10.96113175 34.765625 11.58203125 C35.55656555 11.86448196 36.3475061 12.14693268 37.16241455 12.4379425 C50.30501473 17.19893439 64.21984443 22.46178954 71.28125 35.3359375 C73.95254927 41.07923093 75.11226708 46.26309239 75.17700195 52.61303711 C75.19625481 54.26516457 75.19625481 54.26516457 75.21589661 55.95066833 C75.22328354 57.13097122 75.23067047 58.31127411 75.23828125 59.52734375 C75.246353 60.74901749 75.25442474 61.97069122 75.26274109 63.22938538 C75.27655596 65.81070547 75.28728969 68.39204363 75.29516602 70.97338867 C75.31242111 74.91945795 75.3563373 78.86469838 75.40039062 82.81054688 C75.41051446 85.32030635 75.41903153 87.83007293 75.42578125 90.33984375 C75.44328934 91.51812241 75.46079742 92.69640106 75.47883606 93.91038513 C75.46216167 100.20592797 75.3646667 104.27580055 71 109 C68.55181792 110.22409104 66.9790144 110.1231358 64.24179077 110.12025452 C63.23775711 110.12162918 62.23372345 110.12300385 61.19926453 110.12442017 C60.09371719 110.12082489 58.98816986 110.11722961 57.84912109 110.11352539 C56.68815414 110.11367142 55.52718719 110.11381744 54.33103943 110.1139679 C50.4784867 110.11326903 46.62598182 110.10547781 42.7734375 110.09765625 C40.10828571 110.09579198 37.44313659 110.09431895 34.77798462 110.09336853 C28.47045915 110.09025745 22.16295096 110.08204706 15.85543311 110.07201904 C8.67535645 110.06085098 1.49527898 110.0553457 -5.6848042 110.05032361 C-20.45654498 110.03986427 -35.22827219 110.02226914 -50 110 C-50.78806481 102.08947217 -51.57079091 94.17844121 -52.34690857 86.26673317 C-52.70754406 82.59211273 -53.06994167 78.91768473 -53.43652344 75.24365234 C-53.79093956 71.69086665 -54.14052172 68.13763409 -54.48690796 64.58405685 C-54.68305987 62.58432872 -54.88407636 60.58507965 -55.08520508 58.58584595 C-56.60762436 42.86375255 -56.60762436 42.86375255 -56 38 C-54.0625 35.875 -54.0625 35.875 -52 34 C-51.34440961 31.30421233 -51.18564855 28.78472823 -51 26 C-49.97916667 26.875 -48.95833333 27.75 -47.9375 28.625 C-47.29683594 29.16640625 -46.65617187 29.7078125 -45.99609375 30.265625 C-44.7064081 31.38621292 -43.44544579 32.54114741 -42.22265625 33.734375 C-39.34272459 36.47716706 -37.46089229 37.8743021 -33.5625 38.9375 C-27.89635049 37.44640802 -25.39716172 33.54400678 -22 29 C-21.47422363 28.29713867 -20.94844727 27.59427734 -20.40673828 26.87011719 C-17.36989485 22.78986291 -14.36207844 18.68923802 -11.3671875 14.578125 C-7.72473679 9.59500755 -3.93631295 4.75535943 0 0 Z " fill="#FE507C" transform="translate(322,332)"/>
<path d="M0 0 C6.38006609 5.48982431 10.9922744 11.31529931 14.98046875 18.70703125 C15.45226562 19.5578125 15.9240625 20.40859375 16.41015625 21.28515625 C21.33168646 31.01173075 22.45868512 41.59749496 23.83984375 52.26953125 C26.4719166 72.54516932 29.98639445 92.51320631 36.4140625 111.97265625 C37.10135462 115.2906182 36.93386145 117.45583033 35.98046875 120.70703125 C28.35258862 130.84741218 7.03258417 134.11929018 -4.90234375 136.47265625 C-5.93101563 136.55 -6.9596875 136.62734375 -8.01953125 136.70703125 C-12.78718633 132.56669921 -12.78898917 127.84498283 -13.43359375 121.8671875 C-14.1348792 111.17355305 -14.1348792 111.17355305 -11.2578125 107.390625 C-8.91775152 105.67828836 -6.49885967 104.20809431 -4.01953125 102.70703125 C4.20106472 95.26227465 9.55967261 84.67994917 10.98046875 73.70703125 C11.12484375 72.63453125 11.26921875 71.56203125 11.41796875 70.45703125 C10.80158619 66.58262657 8.93582783 65.02356817 5.98046875 62.70703125 C5.22507812 62.11019531 4.4696875 61.51335937 3.69140625 60.8984375 C-10.75564133 49.96726433 -33.3107261 35.2334826 -52.01953125 36.70703125 C-55.61532385 39.47302556 -57.75537532 42.7685262 -60.26953125 46.51953125 C-65.9592885 54.78439415 -73.1675887 60.0914647 -81.734375 65.1640625 C-84.26264568 66.66093728 -84.26264568 66.66093728 -86.01953125 69.70703125 C-86.76592045 80.86459287 -81.84246738 91.32861901 -74.85546875 99.734375 C-71.26132183 103.59617116 -67.40207381 106.78533621 -63.01953125 109.70703125 C-62.63134766 111.7824707 -62.63134766 111.7824707 -62.62109375 114.3203125 C-62.61529297 115.69799805 -62.61529297 115.69799805 -62.609375 117.10351562 C-62.62097656 118.06580078 -62.63257813 119.02808594 -62.64453125 120.01953125 C-62.63292969 120.97021484 -62.62132812 121.92089844 -62.609375 122.90039062 C-62.62600158 126.86583055 -62.81374635 130.10670191 -64.10546875 133.875 C-66.01953125 135.70703125 -66.01953125 135.70703125 -69.0703125 136.1875 C-73.96190555 135.59238037 -78.49186381 134.42419368 -83.20703125 133.01953125 C-84.13378662 132.7477002 -85.06054199 132.47586914 -86.01538086 132.19580078 C-106.20614835 126.1496886 -106.20614835 126.1496886 -110.01953125 120.70703125 C-111.16329905 114.24261294 -109.29239453 108.31021664 -107.33203125 102.20703125 C-102.96132898 87.68681735 -99.90687789 72.94628825 -97.9609375 57.90625 C-97.83247437 56.91378014 -97.83247437 56.91378014 -97.70141602 55.90126038 C-97.29060924 52.68521125 -96.90189605 49.46811651 -96.53857422 46.24633789 C-95.06041919 33.89558747 -92.14279587 23.00385687 -85.01953125 12.70703125 C-84.51808594 11.94777344 -84.01664063 11.18851563 -83.5 10.40625 C-76.20317122 0.12677587 -65.84402191 -6.34040024 -54.01953125 -10.29296875 C-53.30796875 -10.53789062 -52.59640625 -10.7828125 -51.86328125 -11.03515625 C-33.83946987 -16.09568791 -14.58685896 -11.07695499 0 0 Z " fill="#694B4B" transform="translate(112.01953125,209.29296875)"/>
<path d="M0 0 C3.14492646 0.83215368 6.15376939 1.89194002 9.1875 3.0625 C10.00629639 3.37340576 10.82509277 3.68431152 11.66870117 4.00463867 C26.82285987 9.9174864 41.6717619 18.16055982 53 30 C53.33 30.33 53.66 30.66 54 31 C54.317204 44.34522554 49.12452642 55.31790195 40.203125 64.9375 C34.47616906 70.81130096 34.47616906 70.81130096 31 73 C30.34 73 29.68 73 29 73 C28.65966646 86.80843697 28.65966646 86.80843697 33.69921875 98.69921875 C37.50751162 101.69507581 41.57845685 104.01030558 46 106 C40.09684374 118.31963046 28.60203103 124.47013683 16.125 128.875 C4.07457216 132.09487432 -8.01794405 130.13767992 -18.9765625 124.45703125 C-26.88004004 119.69970386 -33.42270205 114.06609212 -38 106 C-37.25234375 105.61328125 -36.5046875 105.2265625 -35.734375 104.828125 C-34.25710937 104.04695313 -34.25710937 104.04695313 -32.75 103.25 C-31.77546875 102.73953125 -30.8009375 102.2290625 -29.796875 101.703125 C-26.4212553 99.64758004 -23.78495317 97.56990634 -22 94 C-21.60212956 90.59245172 -21.53667692 87.17736998 -21.4375 83.75 C-21.3437207 82.33654297 -21.3437207 82.33654297 -21.24804688 80.89453125 C-21.06456291 75.54980371 -21.06456291 75.54980371 -23.69335938 71.11767578 C-25.73508786 69.60900245 -27.81880205 68.29581418 -30 67 C-38.88197694 58.9104671 -43.98543201 47.62382791 -45.375 35.8125 C-44.88365083 32.12738125 -43.48599809 30.73501997 -41 28 C-38.51953125 26.26171875 -38.51953125 26.26171875 -35.8125 24.6875 C-26.92823756 19.18659183 -20.81621045 13.53998323 -15.60546875 4.41796875 C-11.31426267 -2.04494259 -6.99318485 -1.35803718 0 0 Z " fill="#E5AE78" transform="translate(70,246)"/>
<path d="M0 0 C4.43109443 1.0415356 7.58553379 2.75348972 11.4140625 5.140625 C12.13263428 5.57592529 12.85120605 6.01122559 13.59155273 6.4597168 C15.99892972 7.92370725 18.39427253 9.40614347 20.7890625 10.890625 C22.62090845 12.01722844 24.45294523 13.14352164 26.28515625 14.26953125 C29.86557567 16.47526413 33.44148547 18.68797362 37.01171875 20.91015625 C37.81883301 21.40725098 38.62594727 21.9043457 39.45751953 22.41650391 C40.98670218 23.38333164 42.49450618 24.38501833 43.97607422 25.42333984 C47.06352329 27.54728809 48.96449541 28.85270141 52.76171875 29.02734375 C56.97193841 27.44647418 60.49168805 25.18570646 64.2265625 22.703125 C65.90242001 21.61659653 67.57956468 20.5320515 69.2578125 19.44921875 C70.14597656 18.87413574 71.03414063 18.29905273 71.94921875 17.70654297 C76.99348643 14.48102173 82.10995754 11.37463799 87.2265625 8.265625 C88.70950806 7.36034058 88.70950806 7.36034058 90.22241211 6.43676758 C91.15061768 5.8723999 92.07882324 5.30803223 93.03515625 4.7265625 C93.85685303 4.22688965 94.6785498 3.7272168 95.52514648 3.21240234 C102.47590566 -0.84576763 102.47590566 -0.84576763 106.7890625 -0.109375 C110.75939669 3.32271611 112.99440535 6.7008049 115.1640625 11.453125 C115.68742188 12.56816406 116.21078125 13.68320312 116.75 14.83203125 C117.84823835 18.06481556 117.87019465 18.80786671 116.7890625 21.890625 C115.09360248 24.35488844 113.36708936 26.71615813 111.5390625 29.078125 C110.74628906 30.11694824 110.74628906 30.11694824 109.9375 31.17675781 C108.8105593 32.65223005 107.68091829 34.12564307 106.54882812 35.59716797 C104.76871757 37.91714002 103.00377746 40.2479731 101.2421875 42.58203125 C100.09142013 44.10177024 98.94038579 45.62130712 97.7890625 47.140625 C96.98033691 48.21219849 96.98033691 48.21219849 96.15527344 49.30541992 C89.05274115 58.62330836 89.05274115 58.62330836 84.5390625 59.578125 C79.18313048 58.59620413 76.53121429 55.6797494 72.7890625 51.890625 C72.25539063 51.36984375 71.72171875 50.8490625 71.171875 50.3125 C70.02809006 49.18810125 68.90561544 48.04207022 67.7890625 46.890625 C67.69109375 47.51710938 67.593125 48.14359375 67.4921875 48.7890625 C67.34265625 49.60632813 67.193125 50.42359375 67.0390625 51.265625 C66.89984375 52.07773437 66.760625 52.88984375 66.6171875 53.7265625 C65.7890625 55.890625 65.7890625 55.890625 63.73730469 57.02587891 C63.09438477 57.31124512 62.45146484 57.59661133 61.7890625 57.890625 C61.86423096 58.63041092 61.93939941 59.37019684 62.0168457 60.13240051 C62.72870277 67.14803309 63.43523152 74.1641779 64.13597107 81.18092823 C64.49629962 84.78717621 64.85859308 88.39320293 65.22558594 91.9987793 C65.58052403 95.48667348 65.93002786 98.97507546 66.27597046 102.46387291 C66.47173059 104.42426824 66.67293053 106.38411795 66.87426758 108.34394836 C66.99439209 109.56438339 67.1145166 110.78481842 67.23828125 112.04223633 C67.34487061 113.10146805 67.45145996 114.16069977 67.5612793 115.25202942 C67.86618763 120.12261738 67.7890625 125.01050244 67.7890625 129.890625 C57.2290625 129.890625 46.6690625 129.890625 35.7890625 129.890625 C35.7890625 117.515625 35.7890625 117.515625 36.33984375 112.04223633 C36.52003052 110.21158379 36.52003052 110.21158379 36.70385742 108.34394836 C36.8351001 107.06642197 36.96634277 105.78889557 37.1015625 104.47265625 C37.23655647 103.1207899 37.37106919 101.76887541 37.50512695 100.41691589 C37.85545572 96.89679552 38.21222073 93.37735775 38.57043457 89.85803223 C38.93634288 86.25145523 39.29601617 82.64425677 39.65625 79.03710938 C40.36116429 71.98766881 41.07289536 64.93893201 41.7890625 57.890625 C41.14614258 57.60525879 40.50322266 57.31989258 39.84082031 57.02587891 C37.7890625 55.890625 37.7890625 55.890625 36.9609375 53.7265625 C36.82171875 52.91445313 36.6825 52.10234375 36.5390625 51.265625 C36.38953125 50.44835937 36.24 49.63109375 36.0859375 48.7890625 C35.98796875 48.16257812 35.89 47.53609375 35.7890625 46.890625 C35.01820313 47.67308594 34.24734375 48.45554687 33.453125 49.26171875 C32.44023677 50.28398557 31.42720866 51.30611381 30.4140625 52.328125 C29.90617187 52.84439453 29.39828125 53.36066406 28.875 53.89257812 C25.79612277 56.99171113 24.00875283 58.61681697 19.7265625 59.578125 C9.02139317 57.70896845 0.54338401 40.59629046 -5.46191406 32.23388672 C-6.67290085 30.61146193 -7.93433129 29.02594063 -9.23339844 27.47314453 C-9.8834082 26.69438965 -10.53341797 25.91563477 -11.203125 25.11328125 C-11.80237793 24.42113525 -12.40163086 23.72898926 -13.01904297 23.01586914 C-14.2109375 20.890625 -14.2109375 20.890625 -13.99414062 18.34423828 C-12.91768186 14.97191577 -11.42915438 11.85334928 -9.8359375 8.703125 C-9.53171875 8.07470703 -9.2275 7.44628906 -8.9140625 6.79882812 C-6.6828661 2.34120284 -5.34274127 -0.18199119 0 0 Z " fill="#D23C69" transform="translate(204.2109375,312.109375)"/>
<path d="M0 0 C0.67194397 -0.0065712 1.34388794 -0.0131424 2.03619385 -0.01991272 C4.25883096 -0.03961403 6.48140054 -0.05130213 8.70410156 -0.0612793 C9.8452882 -0.06739259 9.8452882 -0.06739259 11.00952911 -0.07362938 C15.03759997 -0.09447818 19.06563689 -0.10878414 23.09375 -0.11816406 C27.24429036 -0.12921676 31.39429287 -0.16360633 35.5446434 -0.20333576 C38.74465905 -0.22954327 41.94454743 -0.2378596 45.14466095 -0.24144554 C46.67400997 -0.24630207 48.20335366 -0.25788946 49.73259735 -0.27648354 C64.66315659 -0.44671778 64.66315659 -0.44671778 70.34472656 4.17700195 C77.98173888 13.82375436 75.84554927 27.27878149 75.10644531 38.93481445 C73.832064 49.61902143 70.46806152 59.91377618 67.34472656 70.17700195 C65.34472656 68.17700195 65.34472656 68.17700195 64.21972656 65.48950195 C58.46235 55.31813669 47.15005601 50.92500793 36.46972656 47.48950195 C27.02449603 44.88551507 17.13783747 42.75708169 7.34472656 42.17700195 C6.37792969 42.11254883 5.41113281 42.0480957 4.41503906 41.98168945 C3.38121094 41.94301758 2.34738281 41.9043457 1.28222656 41.86450195 C0.3425 41.82711914 -0.59722656 41.78973633 -1.56542969 41.7512207 C-9.92783825 42.90356272 -15.28643218 48.20435137 -20.96777344 54.05200195 C-21.66966797 54.74680664 -22.3715625 55.44161133 -23.09472656 56.1574707 C-28.14290761 61.26821263 -31.58439882 65.89505454 -32.65527344 73.17700195 C-34.65527344 72.17700195 -34.65527344 72.17700195 -35.41723633 70.35449219 C-35.65176514 69.57275635 -35.88629395 68.79102051 -36.12792969 67.9855957 C-36.38767578 67.12256836 -36.64742188 66.25954102 -36.91503906 65.37036133 C-37.17994141 64.46092773 -37.44484375 63.55149414 -37.71777344 62.61450195 C-37.98654297 61.73213867 -38.2553125 60.84977539 -38.53222656 59.94067383 C-42.1432844 47.75673055 -44.90243414 31.86370562 -38.65527344 20.17700195 C-34.01215061 12.6376738 -26.78929763 9.88348759 -18.90527344 6.61450195 C-15.52785648 5.12064445 -12.70004681 3.2529838 -9.65527344 1.17700195 C-6.24533063 0.04035435 -3.59657845 0.02912191 0 0 Z " fill="#694B4B" transform="translate(412.6552734375,193.822998046875)"/>
<path d="M0 0 C0 0.33 0 0.66 0 1 C-0.64066406 1.14695313 -1.28132813 1.29390625 -1.94140625 1.4453125 C-9.11633704 3.30587577 -14.08062287 5.71189413 -18.31640625 11.93359375 C-22.02260057 18.97148888 -22.26489633 26.97783764 -20.33984375 34.62109375 C-18.17592184 40.17609674 -14.79769243 43.56345065 -10 47 C-10.99 47.66 -11.98 48.32 -13 49 C-16.3638703 51.99010694 -18.75995162 55.06013542 -21.25 58.8125 C-26.93975725 67.0773629 -34.14805745 72.38443345 -42.71484375 77.45703125 C-45.24311443 78.95390603 -45.24311443 78.95390603 -47 82 C-47.7463892 93.15756162 -42.82293613 103.62158776 -35.8359375 112.02734375 C-32.24179058 115.88913991 -28.38254256 119.07830496 -24 122 C-23.61181641 124.07543945 -23.61181641 124.07543945 -23.6015625 126.61328125 C-23.59576172 127.9909668 -23.59576172 127.9909668 -23.58984375 129.39648438 C-23.60144531 130.35876953 -23.61304688 131.32105469 -23.625 132.3125 C-23.61339844 133.26318359 -23.60179687 134.21386719 -23.58984375 135.19335938 C-23.60647033 139.1587993 -23.7942151 142.39967066 -25.0859375 146.16796875 C-27 148 -27 148 -30.05078125 148.48046875 C-34.9423743 147.88534912 -39.47233256 146.71716243 -44.1875 145.3125 C-45.11425537 145.04066895 -46.04101074 144.76883789 -46.99584961 144.48876953 C-67.1866171 138.44265735 -67.1866171 138.44265735 -71 133 C-72.1437678 126.53558169 -70.27286328 120.60318539 -68.3125 114.5 C-63.94179773 99.9797861 -60.88734664 85.239257 -58.94140625 70.19921875 C-58.81294312 69.20674889 -58.81294312 69.20674889 -58.68188477 68.19422913 C-58.27107799 64.97818 -57.8823648 61.76108526 -57.51904297 58.53930664 C-56.04088794 46.18855622 -53.12326462 35.29682562 -46 25 C-45.49855469 24.24074219 -44.99710938 23.48148438 -44.48046875 22.69921875 C-35.83364854 10.51793189 -22.49319196 3.09805836 -7.98046875 0.26953125 C-5.30349407 -0.09479075 -2.69521868 -0.13821634 0 0 Z " fill="#5A4146" transform="translate(73,197)"/>
<path d="M0 0 C0 0.33 0 0.66 0 1 C-0.90878906 1.11214844 -0.90878906 1.11214844 -1.8359375 1.2265625 C-10.98120148 2.66166546 -19.02959517 6.57134595 -24.75 14.046875 C-30.53883057 23.09192276 -31.5843099 32.88204844 -29.52734375 43.421875 C-28.85522976 45.43419233 -28.03896359 47.15119787 -27 49 C-26.60941406 49.74765625 -26.21882813 50.4953125 -25.81640625 51.265625 C-21.46332308 58.71395994 -15.11138289 62.95253444 -6.875 65.375 C-5.92625 65.58125 -4.9775 65.7875 -4 66 C-4 66.33 -4 66.66 -4 67 C-5.43666016 67.20363159 -5.43666016 67.20363159 -6.90234375 67.41137695 C-10.48947024 67.92227504 -14.0747721 68.44513269 -17.65966797 68.97143555 C-19.20510115 69.19665672 -20.75099749 69.41872504 -22.29736328 69.63745117 C-24.53289889 69.95423624 -26.76646746 70.28270234 -29 70.61328125 C-29.68054443 70.70716629 -30.36108887 70.80105133 -31.06225586 70.89778137 C-36.03013295 71.64947369 -40.39295768 72.96549189 -45 75 C-47.27652521 78.41478782 -47.25004426 79.68664536 -47.2734375 83.69921875 C-47.2940625 84.82650391 -47.3146875 85.95378906 -47.3359375 87.11523438 C-47.36176482 89.47714268 -47.38012127 91.83914572 -47.390625 94.20117188 C-47.56274891 102.61133735 -48.61958842 108.1919107 -54.25390625 114.5390625 C-55.01574219 115.22742188 -55.77757812 115.91578125 -56.5625 116.625 C-60.03128198 119.91691974 -62.2872412 122.54682712 -64 127 C-65.84214337 124.23678494 -66.58987581 122.42170487 -67.47265625 119.2890625 C-67.86227539 117.91621094 -67.86227539 117.91621094 -68.25976562 116.515625 C-68.52466797 115.56171875 -68.78957031 114.6078125 -69.0625 113.625 C-69.33126953 112.67882812 -69.60003906 111.73265625 -69.87695312 110.7578125 C-71.98400848 103.27540148 -73.17038714 96.62573908 -73.23828125 88.8515625 C-73.25038887 87.51718643 -73.25038887 87.51718643 -73.26274109 86.15585327 C-73.27654904 84.27140224 -73.28728585 82.38692655 -73.29516602 80.50244141 C-73.30661461 78.60197461 -73.32695155 76.70153813 -73.35668945 74.80126953 C-73.6837372 53.86655954 -70.23571953 35.97767968 -55.32983398 20.18261719 C-39.58451601 4.25300287 -21.74420315 -0.69560839 0 0 Z " fill="#5A4146" transform="translate(238,70)"/>
<path d="M0 0 C5.99092857 3.76946009 11.52621405 7.94840788 13.328125 15.02734375 C13.369375 15.87296875 13.410625 16.71859375 13.453125 17.58984375 C12.958125 16.59984375 12.958125 16.59984375 12.453125 15.58984375 C-3.76107764 8.75886023 -23.22089992 6.50915645 -40.609375 6.21484375 C-41.50237305 6.18874023 -42.39537109 6.16263672 -43.31542969 6.13574219 C-48.88025157 6.12099256 -52.22812801 6.73781067 -56.546875 10.58984375 C-60.00758146 15.03622388 -59.98651989 18.85708165 -59.9453125 24.2578125 C-59.94818268 25.09266678 -59.95105286 25.92752106 -59.95401001 26.78767395 C-59.95604704 28.55189696 -59.95054243 30.31614275 -59.93798828 32.08032227 C-59.92203035 34.75134228 -59.93779612 37.42082579 -59.95703125 40.09179688 C-59.97086662 50.73450061 -59.59944027 60.17503531 -53.921875 69.52734375 C-52.47080102 71.95019757 -51.44798634 73.88650973 -50.546875 76.58984375 C-39.35280144 78.71792883 -29.03153271 78.40013836 -18.31640625 74.5625 C-15.72796865 73.65344364 -13.24553419 73.05853227 -10.546875 72.58984375 C-9.33354677 81.75721257 -9.33354677 81.75721257 -12.046875 85.85546875 C-14.12073906 87.91313074 -16.26902412 89.76131165 -18.546875 91.58984375 C-19.86221143 92.75331159 -21.17478665 93.91990969 -22.484375 95.08984375 C-23.45697266 95.92708984 -23.45697266 95.92708984 -24.44921875 96.78125 C-26.83660399 98.83964733 -29.19270563 100.93106461 -31.546875 103.02734375 C-32.31 103.70667969 -33.073125 104.38601563 -33.859375 105.0859375 C-34.6946875 105.83037109 -34.6946875 105.83037109 -35.546875 106.58984375 C-39.21802427 104.55817445 -41.96410996 102.36743352 -44.859375 99.33984375 C-51.74566489 92.13641985 -51.74566489 92.13641985 -59.76171875 86.3125 C-61.546875 84.58984375 -61.546875 84.58984375 -61.9375 81.453125 C-61.86789062 79.69548828 -61.86789062 79.69548828 -61.796875 77.90234375 C-61.76078125 76.72285156 -61.7246875 75.54335938 -61.6875 74.328125 C-61.64109375 73.42449219 -61.5946875 72.52085937 -61.546875 71.58984375 C-62.31128906 71.30367188 -63.07570313 71.0175 -63.86328125 70.72265625 C-73.83079284 66.51511861 -79.44539028 56.05122326 -83.546875 46.58984375 C-87.10813341 36.26219437 -88.67947927 23.05582615 -84.63671875 12.66015625 C-82.5600146 8.71516271 -79.65968665 5.7422011 -76.546875 2.58984375 C-75.68191406 1.66429687 -74.81695312 0.73875 -73.92578125 -0.21484375 C-54.82830279 -20.40398939 -22.52594416 -12.47218687 0 0 Z " fill="#E5AE77" transform="translate(465.546875,247.41015625)"/>
<path d="M0 0 C3.11466795 3.03790239 5.5709348 5.45886004 7.25 9.5 C7.56453125 10.2321875 7.8790625 10.964375 8.203125 11.71875 C9.70285146 16.01208456 10.13080517 20.08152285 10.17700195 24.61303711 C10.19625481 26.26516457 10.19625481 26.26516457 10.21589661 27.95066833 C10.22328354 29.13097122 10.23067047 30.31127411 10.23828125 31.52734375 C10.246353 32.74901749 10.25442474 33.97069122 10.26274109 35.22938538 C10.27655596 37.81070547 10.28728969 40.39204363 10.29516602 42.97338867 C10.31242111 46.91945795 10.3563373 50.86469838 10.40039062 54.81054688 C10.41051446 57.32030635 10.41903153 59.83007293 10.42578125 62.33984375 C10.44328934 63.51812241 10.46079742 64.69640106 10.47883606 65.91038513 C10.46216167 72.20592797 10.3646667 76.27580055 6 81 C3.6699002 82.1650499 2.32752923 82.1209358 -0.26611328 82.11352539 C-1.58725632 82.11341209 -1.58725632 82.11341209 -2.93508911 82.11329651 C-3.88721283 82.10813522 -4.83933655 82.10297394 -5.8203125 82.09765625 C-6.79410858 82.0962413 -7.76790466 82.09482635 -8.77120972 82.09336853 C-11.88917073 82.08775973 -15.0070606 82.07520573 -18.125 82.0625 C-20.23567605 82.05748613 -22.34635322 82.05292303 -24.45703125 82.04882812 C-29.63804521 82.03778745 -34.81901752 82.02104073 -40 82 C-40.0996515 77.18031697 -40.17183311 72.36124723 -40.21972656 67.54077148 C-40.23971332 65.90459736 -40.26691243 64.26849349 -40.30175781 62.63256836 C-40.60410771 48.06197125 -38.31650876 39.16635837 -28.30834961 28.13548279 C-26.51270485 26.28403059 -24.69043205 24.4647605 -22.8515625 22.65625 C-22.19417084 22.00168823 -21.53677917 21.34712646 -20.85946655 20.67272949 C-18.78601329 18.61035267 -16.7056716 16.55509155 -14.625 14.5 C-13.20656711 13.09161313 -11.78859402 11.68276302 -10.37109375 10.2734375 C-6.91934876 6.84358627 -3.46141335 3.42009252 0 0 Z " fill="#D23D6A" transform="translate(387,360)"/>
<path d="M0 0 C4.6539642 3.89974942 9.10414722 7.93501883 13.4140625 12.2109375 C13.99159271 12.78276764 14.56912292 13.35459778 15.16415405 13.9437561 C16.37383085 15.14406365 17.58212028 16.34577091 18.7890625 17.54882812 C20.62054512 19.37056881 22.46243732 21.18134489 24.3046875 22.9921875 C25.4876378 24.16860891 26.6699511 25.34567129 27.8515625 26.5234375 C28.39438873 27.05391693 28.93721497 27.58439636 29.49649048 28.13095093 C36.53140556 35.20665606 41.22879896 42.79006834 41.22659302 53.01608276 C41.21627045 53.75069733 41.20594788 54.48531189 41.1953125 55.2421875 C41.1924826 56.01055939 41.18965271 56.77893127 41.18673706 57.57058716 C41.17561311 60.00555521 41.1505236 62.44014462 41.125 64.875 C41.11496011 66.53384882 41.10583603 68.19270346 41.09765625 69.8515625 C41.07569937 73.90118579 41.04122406 77.95052887 41 82 C34.82535087 82.12372902 28.65142544 82.21440144 22.47583008 82.2746582 C20.3757673 82.29978051 18.27579177 82.33388458 16.17602539 82.37719727 C13.1548916 82.43794871 10.13491504 82.46623263 7.11328125 82.48828125 C6.17664139 82.51408768 5.24000153 82.5398941 4.27497864 82.56648254 C-0.34688381 82.56846483 -2.32587519 82.52828695 -6.06958008 79.59448242 C-8.76379471 75.97346069 -9.12944718 74.24700629 -9.16113281 69.79101562 C-9.17554413 68.15791443 -9.17554413 68.15791443 -9.19024658 66.49182129 C-9.19449646 65.30858276 -9.19874634 64.12534424 -9.203125 62.90625 C-9.20882507 61.68981812 -9.21452515 60.47338623 -9.22039795 59.22009277 C-9.22986224 56.63762281 -9.23638758 54.05514069 -9.24023438 51.47265625 C-9.24989171 47.54405157 -9.28088245 43.61598072 -9.3125 39.6875 C-9.31903482 37.17708644 -9.32428341 34.66666913 -9.328125 32.15625 C-9.3404718 30.98920532 -9.3528186 29.82216064 -9.36553955 28.61975098 C-9.34231149 19.99793034 -8.34090916 11.73403524 -3.375 4.4375 C-2.73691406 3.47650391 -2.73691406 3.47650391 -2.0859375 2.49609375 C-1 1 -1 1 0 0 Z " fill="#D23D6A" transform="translate(124,360)"/>
<path d="M0 0 C17.13126029 3.95336776 32.31060534 14.19735037 45.8125 25.0625 C46.44236816 25.54493164 47.07223633 26.02736328 47.72119141 26.52441406 C49.45703125 27.97265625 49.45703125 27.97265625 52 31 C52.09350066 37.66731644 49.18420636 41.20993571 45 46 C44.47148438 46.61101562 43.94296875 47.22203125 43.3984375 47.8515625 C38.90498328 52.68575259 33.85025248 55.99253687 28 59 C26.80310547 59.62455078 26.80310547 59.62455078 25.58203125 60.26171875 C19.51448852 62.942726 13.6740378 63.43444098 7.125 63.5625 C5.89342163 63.60286377 5.89342163 63.60286377 4.63696289 63.64404297 C0.35803905 63.61681944 -1.44131793 63.44724888 -4.87890625 60.6953125 C-5.57886719 59.80585938 -6.27882813 58.91640625 -7 58 C-7.54785156 57.37738281 -8.09570312 56.75476563 -8.66015625 56.11328125 C-15.24054158 47.66325998 -17.70944401 39.40016133 -17.6875 28.75 C-17.7484082 27.31914062 -17.7484082 27.31914062 -17.81054688 25.859375 C-17.84360587 19.05866798 -17.84360587 19.05866798 -15.56445312 16.19848633 C-13.76171875 14.69140625 -13.76171875 14.69140625 -11.84204102 13.32373047 C-9.1001306 11.35333441 -7.20863221 8.82268191 -5.125 6.1875 C-4.36445312 5.23230469 -3.60390625 4.27710938 -2.8203125 3.29296875 C-2.21960938 2.53628906 -1.61890625 1.77960938 -1 1 C-0.67 0.67 -0.34 0.34 0 0 Z " fill="#EFBF86" transform="translate(67,263)"/>
<path d="M0 0 C1.76466525 2.64699787 3.19782858 5.24373647 4.64453125 8.0703125 C5.15693359 9.04871094 5.66933594 10.02710938 6.19726562 11.03515625 C7.27480047 13.09641395 8.3399263 15.16420585 9.39257812 17.23828125 C9.90884766 18.21410156 10.42511719 19.18992187 10.95703125 20.1953125 C11.42085205 21.09266113 11.88467285 21.99000977 12.36254883 22.91455078 C13.85846996 25.21515056 13.85846996 25.21515056 16.56396484 25.84887695 C19.37536051 26.02328605 20.47489394 25.57506862 22.8125 24.0625 C23.864375 23.381875 24.91625 22.70125 26 22 C26.1953125 24.01822917 26.390625 26.03645833 26.5859375 28.0546875 C26.86374749 30.22668245 26.86374749 30.22668245 29 32 C29.22827148 34.91088867 29.22827148 34.91088867 29.18359375 38.73046875 C29.17621689 39.43116989 29.16884003 40.13187103 29.16123962 40.85380554 C29.03247296 49.70865389 28.62084315 58.55670587 28.20043945 67.40161133 C28.06188455 70.32548755 27.92996005 73.24961053 27.79882812 76.17382812 C27.7113268 78.0703305 27.62344936 79.96681557 27.53515625 81.86328125 C27.47727684 83.14650017 27.47727684 83.14650017 27.41822815 84.4556427 C27.11840284 90.67060554 26.56469808 96.78832117 26 103 C16.1 103 6.2 103 -4 103 C-2.68 101.35 -1.36 99.7 0 98 C1.27340044 95.45319913 1.14085718 93.64240327 1.16113281 90.79101562 C1.17074036 89.70228149 1.1803479 88.61354736 1.19024658 87.49182129 C1.19449646 86.30858276 1.19874634 85.12534424 1.203125 83.90625 C1.21167511 82.08160217 1.21167511 82.08160217 1.22039795 80.22009277 C1.22986224 77.63762281 1.23638758 75.05514069 1.24023438 72.47265625 C1.24989171 68.54405157 1.28088245 64.61598072 1.3125 60.6875 C1.31903482 58.17708644 1.32428341 55.66666913 1.328125 53.15625 C1.3404718 51.98920532 1.3528186 50.82216064 1.36553955 49.61975098 C1.33531359 38.40044372 -0.98754346 29.01170988 -8.38671875 20.3828125 C-13.80676344 15.11294537 -21.07741907 12.70758367 -28 10 C-25.52694246 7.52694246 -23.73804969 7.21173079 -20.37109375 6.30859375 C-19.25412109 6.00373047 -18.13714844 5.69886719 -16.98632812 5.38476562 C-15.81521484 5.07216797 -14.64410156 4.75957031 -13.4375 4.4375 C-11.12291479 3.81409828 -8.80906774 3.18794716 -6.49609375 2.55859375 C-5.46669678 2.28329834 -4.4372998 2.00800293 -3.37670898 1.72436523 C-1.06735473 1.22410206 -1.06735473 1.22410206 0 0 Z " fill="#D5DBEC" transform="translate(395,339)"/>
<path d="M0 0 C6.21889193 2.63562563 11.08718582 7.61739775 15 13 C15.88027455 17.18010155 15.7245396 20.80645259 15 25 C13.02 25.99 13.02 25.99 11 27 C11.07516846 27.73978592 11.15033691 28.47957184 11.2277832 29.24177551 C11.93964027 36.25740809 12.64616902 43.2735529 13.34690857 50.29030323 C13.70723712 53.89655121 14.06953058 57.50257793 14.43652344 61.1081543 C14.79146153 64.59604848 15.14096536 68.08445046 15.48690796 71.57324791 C15.68266809 73.53364324 15.88386803 75.49349295 16.08520508 77.45332336 C16.20532959 78.67375839 16.3254541 79.89419342 16.44921875 81.15161133 C16.60910278 82.74045891 16.60910278 82.74045891 16.7722168 84.36140442 C17.07712513 89.23199238 17 94.11987744 17 99 C6.44 99 -4.12 99 -15 99 C-15 86.625 -15 86.625 -14.44921875 81.15161133 C-14.26903198 79.32095879 -14.26903198 79.32095879 -14.08520508 77.45332336 C-13.9539624 76.17579697 -13.82271973 74.89827057 -13.6875 73.58203125 C-13.55250603 72.2301649 -13.41799331 70.87825041 -13.28393555 69.52629089 C-12.93360678 66.00617052 -12.57684177 62.48673275 -12.21862793 58.96740723 C-11.85271962 55.36083023 -11.49304633 51.75363177 -11.1328125 48.14648438 C-10.42789821 41.09704381 -9.71616714 34.04830701 -9 27 C-10.32 26.34 -11.64 25.68 -13 25 C-13.89836578 20.73852128 -14.03765919 17.24923785 -13 13 C-9.50263639 7.94468336 -4.65025481 3.96038185 0 0 Z " fill="#717386" transform="translate(255,343)"/>
<path d="M0 0 C4.17284401 0.50448891 5.98879713 1.54567771 8.8125 4.625 C12.6736175 8.68933421 16.73737866 12.36448398 21 16 C21.67933594 16.58394531 22.35867188 17.16789062 23.05859375 17.76953125 C24.703266 19.18255952 26.35126933 20.59170922 28 22 C33.28879686 18.93806498 37.20221272 14.88795745 41.47265625 10.546875 C43.71148884 8.29074076 45.96767755 6.0828574 48.3125 3.9375 C48.90675781 3.38964844 49.50101562 2.84179688 50.11328125 2.27734375 C52.37709148 0.74470204 54.3140489 0.37446134 57 0 C57.8754311 1.0238606 58.72459976 2.0702046 59.5625 3.125 C60.03816406 3.70507812 60.51382813 4.28515625 61.00390625 4.8828125 C62.42399597 7.90119929 61.72610639 9.78033681 61 13 C59.37896632 16.75343335 57.32814099 20.25790622 55.3125 23.8125 C54.79494141 24.77865234 54.27738281 25.74480469 53.74414062 26.74023438 C49.83089783 33.67490996 49.83089783 33.67490996 45.78515625 35.2578125 C42.14492589 34.92084868 40.5820992 33.5061551 38 31 C37.34 33.64 36.68 36.28 36 39 C35.34 39 34.68 39 34 39 C34.99 62.76 35.98 86.52 37 111 C31.39 111 25.78 111 20 111 C19.82079387 99.11639341 20.55242923 87.26616831 21.14550781 75.40161133 C21.61972759 65.84866366 22.08961409 56.2959978 22.1875 46.73046875 C22.20167969 45.47000732 22.21585937 44.2095459 22.23046875 42.91088867 C22.30691819 39.87419117 22.30691819 39.87419117 20 38 C19.59952556 35.67724823 19.2602896 33.34260643 19 31 C17.6696875 32.0209375 17.6696875 32.0209375 16.3125 33.0625 C13 35 13 35 10.47265625 34.88671875 C7.31642063 33.75486174 6.71492769 32.6664354 5.125 29.75 C4.38443359 28.40421875 4.38443359 28.40421875 3.62890625 27.03125 C3.09136719 26.0309375 2.55382812 25.030625 2 24 C1.34902344 22.8965625 0.69804687 21.793125 0.02734375 20.65625 C-0.94525391 18.97015625 -0.94525391 18.97015625 -1.9375 17.25 C-2.54464844 16.20328125 -3.15179688 15.1565625 -3.77734375 14.078125 C-5.20937874 10.47287396 -5.08434336 8.68676743 -4 5 C-1.9375 2.125 -1.9375 2.125 0 0 Z " fill="#C7CEE1" transform="translate(401,331)"/>
<path d="M0 0 C2.43251185 5.01631164 3.37958381 8.67297477 3.40405273 14.34057617 C3.41091599 15.03743027 3.41777924 15.73428436 3.42485046 16.45225525 C3.44300462 18.73270607 3.43929982 21.01246192 3.43359375 23.29296875 C3.43815899 24.88764162 3.44346558 26.48231252 3.44947815 28.07698059 C3.45838523 31.40809155 3.45601127 34.7389624 3.44604492 38.07006836 C3.43452058 42.33744163 3.45483107 46.60399166 3.48396206 50.87125683 C3.50230294 54.15954334 3.50203653 57.44763138 3.49632454 60.73595619 C3.49617126 62.30962599 3.50222073 63.88330918 3.51461601 65.45693016 C3.52949636 67.65435099 3.51887558 69.85023472 3.50170898 72.04760742 C3.50154282 73.29668381 3.50137665 74.54576019 3.50120544 75.83268738 C2.90812415 79.58059931 2.02368925 80.77234284 -1 83 C-4.11621094 83.45410156 -4.11621094 83.45410156 -7.734375 83.390625 C-9.02988281 83.37773437 -10.32539063 83.36484375 -11.66015625 83.3515625 C-13.02344824 83.31814366 -14.38672949 83.28428391 -15.75 83.25 C-17.12888064 83.22992707 -18.50778912 83.21167767 -19.88671875 83.1953125 C-23.25851744 83.14815448 -26.62890687 83.08234538 -30 83 C-30.12748648 76.06253839 -30.2146377 69.12538234 -30.2746582 62.18701172 C-30.29969708 59.83012605 -30.33373841 57.47331721 -30.37719727 55.11669922 C-30.4383159 51.71562672 -30.46631727 48.3155868 -30.48828125 44.9140625 C-30.51408768 43.87198639 -30.5398941 42.82991028 -30.56648254 41.7562561 C-30.56977072 33.0469865 -28.13441818 26.33617788 -22.3527832 19.75341797 C-20.96579224 18.38660889 -20.96579224 18.38660889 -19.55078125 16.9921875 C-19.0520903 16.49582794 -18.55339935 15.99946838 -18.03959656 15.48806763 C-17.00095747 14.45904641 -15.95638673 13.43597818 -14.90600586 12.41894531 C-13.29237869 10.85550449 -11.69893858 9.27341535 -10.10742188 7.6875 C-2.31223902 0 -2.31223902 0 0 0 Z " fill="#C7CFE2" transform="translate(509,359)"/>
<path d="M0 0 C0.66 0.33 1.32 0.66 2 1 C0.02 3.31 -1.96 5.62 -4 8 C-2.38931641 9.30324219 -2.38931641 9.30324219 -0.74609375 10.6328125 C0.6901458 11.79682364 2.12634137 12.96088904 3.5625 14.125 C4.26697266 14.69476563 4.97144531 15.26453125 5.69726562 15.8515625 C7.1130826 16.99987488 8.52535275 18.15257384 9.93408203 19.30957031 C11.27334933 20.40542079 12.62280319 21.48898404 13.98388672 22.55761719 C14.59635254 23.05165039 15.20881836 23.54568359 15.83984375 24.0546875 C16.37859131 24.47991699 16.91733887 24.90514648 17.47241211 25.34326172 C22.57272801 30.8747854 22.40557988 36.55580384 22.29296875 43.6484375 C22.28872391 44.66096588 22.28447906 45.67349426 22.28010559 46.71670532 C22.26337302 49.93641248 22.22573026 53.15548344 22.1875 56.375 C22.17244618 58.56379302 22.158759 60.75259589 22.14648438 62.94140625 C22.11348732 68.29448626 22.06334196 73.64719766 22 79 C17.94335053 79.0990914 13.8871723 79.17157106 9.82958984 79.21972656 C8.4502332 79.23980642 7.07096131 79.26707666 5.69189453 79.30175781 C3.70643021 79.35042817 1.72033746 79.37086418 -0.265625 79.390625 C-2.05661621 79.4220459 -2.05661621 79.4220459 -3.88378906 79.45410156 C-7.72001354 78.89507794 -8.6325582 78.01154747 -11 75 C-11.52139282 72.27047729 -11.52139282 72.27047729 -11.54931641 69.10498047 C-11.56838043 67.91629364 -11.58744446 66.72760681 -11.60708618 65.50289917 C-11.60526337 64.22061432 -11.60344055 62.93832947 -11.6015625 61.6171875 C-11.60934503 60.2792203 -11.61801615 58.94125799 -11.62753296 57.603302 C-11.64244926 54.797221 -11.64188573 51.99164308 -11.63134766 49.18554688 C-11.61981484 45.61431885 -11.65347619 42.04518477 -11.700037 38.47430229 C-11.72973112 35.70812217 -11.73122514 32.94243209 -11.72501755 30.17612076 C-11.72652544 28.22758062 -11.75412449 26.27911589 -11.78237915 24.33078003 C-11.69732938 16.08631494 -10.22331996 10.48148821 -5 4 C-2.125 1.375 -2.125 1.375 0 0 Z " fill="#C7CFE1" transform="translate(11,363)"/>
<path d="M0 0 C1.588125 0.886875 3.17625 1.77375 4.8125 2.6875 C25.0673451 13.63954729 47.11631924 19.45178665 70 13 C71.76537109 12.505 71.76537109 12.505 73.56640625 12 C81.20336427 9.7143523 87.82089466 6.71910991 94.609375 2.453125 C97 1 97 1 100 0 C100 6.6 100 13.2 100 20 C73.91020313 31.9006091 46.16093945 37.84947295 18.33251953 27.83837891 C12.11773922 25.45131439 6.08545064 22.70464473 0 20 C0 13.4 0 6.8 0 0 Z " fill="#D29B6E" transform="translate(206,277)"/>
<path d="M0 0 C3.25 2.125 3.25 2.125 6 5 C6.41576711 8.5043228 6.58939347 10.82121306 5 14 C4.34 14 3.68 14 3 14 C3.99 37.76 4.98 61.52 6 86 C0.39 86 -5.22 86 -11 86 C-11.17920613 74.11639341 -10.44757077 62.26616831 -9.85449219 50.40161133 C-9.38027241 40.84866366 -8.91038591 31.2959978 -8.8125 21.73046875 C-8.79832031 20.47000732 -8.78414063 19.2095459 -8.76953125 17.91088867 C-8.69308181 14.87419117 -8.69308181 14.87419117 -11 13 C-11.68849492 9.89872641 -11.7090123 7.09726427 -11 4 C-7.90723594 0.22936984 -4.7471072 -1.80842179 0 0 Z " fill="#B0BAD2" transform="translate(432,356)"/>
<path d="M0 0 C-0.29519531 0.56332031 -0.59039062 1.12664062 -0.89453125 1.70703125 C-4.22781234 8.62093937 -6.12609859 15.4501805 -4 23 C-1.71799143 27.40101653 0.46926549 29.95038201 5 32 C8.19395026 32.71401232 8.19395026 32.71401232 11 33 C11 33.66 11 34.32 11 35 C9.948125 35.763125 8.89625 36.52625 7.8125 37.3125 C3.58734301 40.3791462 -0.10699231 43.83903091 -3.8125 47.5 C-4.37541748 48.04567627 -4.93833496 48.59135254 -5.51831055 49.15356445 C-10.16049935 53.79993479 -13.0264998 58.38019865 -14 65 C-16 64 -16 64 -16.76196289 62.17749023 C-16.9964917 61.39575439 -17.23102051 60.61401855 -17.47265625 59.80859375 C-17.73240234 58.94556641 -17.99214844 58.08253906 -18.25976562 57.19335938 C-18.65711914 55.82920898 -18.65711914 55.82920898 -19.0625 54.4375 C-19.33126953 53.55513672 -19.60003906 52.67277344 -19.87695312 51.76367188 C-23.48801096 39.5797286 -26.2471607 23.68670367 -20 12 C-15.66612664 4.96281949 -8.36572076 0 0 0 Z " fill="#5A4146" transform="translate(394,202)"/>
<path d="M0 0 C0.969375 0.3609375 1.93875 0.721875 2.9375 1.09375 C16.53222721 5.9038758 28.31671408 6.95588803 42.23046875 1.97265625 C44.81890635 1.06359989 47.30134081 0.46868852 50 0 C51.21332823 9.16736882 51.21332823 9.16736882 48.5 13.265625 C46.42613594 15.32328699 44.27785088 17.1714679 42 19 C40.68466357 20.16346784 39.37208835 21.33006594 38.0625 22.5 C37.41410156 23.05816406 36.76570313 23.61632812 36.09765625 24.19140625 C33.71027101 26.24980358 31.35416937 28.34122086 29 30.4375 C28.236875 31.11683594 27.47375 31.79617188 26.6875 32.49609375 C26.130625 32.99238281 25.57375 33.48867188 25 34 C21.32885073 31.9683307 18.58276504 29.77758977 15.6875 26.75 C12.17222594 23.14669737 8.55762857 19.77131323 4.7265625 16.5078125 C4.15679687 16.01023437 3.58703125 15.51265625 3 15 C2.15115234 14.35224609 2.15115234 14.35224609 1.28515625 13.69140625 C-0.66156322 11.12931041 -0.28937003 8.97047101 -0.1875 5.8125 C-0.16042969 4.72582031 -0.13335937 3.63914062 -0.10546875 2.51953125 C-0.07066406 1.68808594 -0.03585937 0.85664063 0 0 Z " fill="#D29B6E" transform="translate(405,320)"/>
<path d="M0 0 C3.17382812 1.07421875 3.17382812 1.07421875 6.34765625 2.1484375 C7.22292969 2.42945313 8.09820312 2.71046875 9 3 C10.06863281 3.35449219 11.13726562 3.70898438 12.23828125 4.07421875 C16.61767359 5.15201313 20.63174512 5.42294547 25.125 5.4375 C26.36817993 5.44330078 26.36817993 5.44330078 27.63647461 5.44921875 C35.30832009 5.30672147 41.04171662 3.20975181 48 0 C48.66 0 49.32 0 50 0 C50.495 9.405 50.495 9.405 51 19 C48.03 19.66 45.06 20.32 42 21 C40.72576172 21.31324219 40.72576172 21.31324219 39.42578125 21.6328125 C25.91696343 24.77904364 12.78065362 23.11226145 0 18 C0 12.06 0 6.12 0 0 Z " fill="#D19A6E" transform="translate(49,320)"/>
<path d="M0 0 C6.23138596 2.64092072 11.05501937 7.62952217 15 13 C16.09109516 17.19498686 16.27890507 20.83552522 15 25 C12.15375291 27.64206924 10.22831616 28.38196363 6.375 28.3984375 C5.50359375 28.40230469 4.6321875 28.40617187 3.734375 28.41015625 C2.83203125 28.39855469 1.9296875 28.38695312 1 28.375 C-0.35351562 28.39240234 -0.35351562 28.39240234 -1.734375 28.41015625 C-3.04148438 28.40435547 -3.04148438 28.40435547 -4.375 28.3984375 C-5.16648438 28.39505371 -5.95796875 28.39166992 -6.7734375 28.38818359 C-9.55641929 27.90299269 -10.93882833 26.90341002 -13 25 C-14.45067542 20.78836167 -14.24354603 17.24837905 -13 13 C-9.44619658 7.96913446 -4.66227099 3.9706154 0 0 Z " fill="#5D5C6E" transform="translate(255,343)"/>
<path d="M0 0 C1.00353516 0.2165625 1.00353516 0.2165625 2.02734375 0.4375 C8.29602984 1.6491655 14.38057784 2.21632534 20.75 2.25 C21.79401978 2.26353516 21.79401978 2.26353516 22.85913086 2.27734375 C26.51996585 2.25654601 29.72886029 1.89358556 33.265625 0.921875 C36.78717271 0.05253895 37.7609337 -0.02239185 41 1 C27.3667426 13.66970387 27.3667426 13.66970387 21 19 C17.30078353 16.95569616 14.54225582 14.73640093 11.625 11.6875 C8.82590502 8.8133874 6.01314766 6.07655676 2.9375 3.5 C1.968125 2.675 0.99875 1.85 0 1 C0 0.67 0 0.34 0 0 Z " fill="#E5AF7A" transform="translate(409,335)"/>
<path d="M0 0 C3.25 2.125 3.25 2.125 6 5 C6.53827186 8.46886309 6.87606284 10.71846212 4.84375 13.69140625 C2.19281129 15.57289877 0.15264673 15.36328604 -3.0625 15.3125 C-4.12597656 15.30863281 -5.18945312 15.30476563 -6.28515625 15.30078125 C-9 15 -9 15 -11 13 C-11.68849492 9.89872641 -11.7090123 7.09726427 -11 4 C-7.90723594 0.22936984 -4.7471072 -1.80842179 0 0 Z " fill="#979EB6" transform="translate(432,356)"/>
<path d="M0 0 C0.66 0.33 1.32 0.66 2 1 C-0.64 3.64 -3.28 6.28 -6 9 C-6.66 8.67 -7.32 8.34 -8 8 C-3.375 2.25 -3.375 2.25 0 0 Z " fill="#D7D0D2" transform="translate(11,363)"/>
</svg>
