<?xml version="1.0" encoding="UTF-8"?>
<svg version="1.1" xmlns="http://www.w3.org/2000/svg" width="512" height="512">
<path d="M0 0 C1.37322922 0.00031723 1.37322922 0.00031723 2.77420044 0.00064087 C17.68150153 0.03487249 31.86144815 1.02927101 46.4375 4.375 C47.69578613 4.64787842 47.69578613 4.64787842 48.97949219 4.92626953 C67.38417082 8.97877551 84.94749141 16.31120775 101.4375 25.375 C102.48238901 25.798773 103.52727802 26.22254601 104.60383034 26.65916061 C107.94414169 29.8605744 107.90818515 30.68041168 108.17578697 35.14586258 C108.20112231 37.65972199 108.19273135 40.17404404 108.1590271 42.68780518 C108.16164299 44.08544707 108.16689544 45.4830861 108.1745621 46.88070941 C108.18800158 50.7257796 108.16394887 54.56985024 108.13389373 58.41479301 C108.10802287 62.55927403 108.11674834 66.70369705 108.12130737 70.84823608 C108.12445605 78.03034103 108.10560475 85.21211936 108.07188034 92.39414215 C108.02315225 102.77812929 108.00749519 113.16195822 107.99995239 123.5460473 C107.98681521 140.39276694 107.94687094 157.23931244 107.89013672 174.0859375 C107.83507657 190.45246508 107.79259918 206.81894539 107.76708984 223.18554688 C107.76472533 224.69837729 107.76472533 224.69837729 107.76231305 226.24176994 C107.75448292 231.30130319 107.74690065 236.36083677 107.73944163 241.42037058 C107.67722445 283.40536821 107.5715308 325.39017415 107.4375 367.375 C103.92419055 366.22883752 100.67856008 365.11104549 97.46875 363.2734375 C35.19014845 328.54567003 -35.78591148 336.97676546 -101.78240967 355.58093262 C-116.17637475 359.69223003 -130.51661269 363.99374602 -144.86809826 368.25051689 C-272.71189829 406.16810932 -272.71189829 406.16810932 -331.5625 393.375 C-332.48546875 393.17632324 -333.4084375 392.97764648 -334.359375 392.77294922 C-354.12533078 388.3632649 -372.81878256 381.12789781 -390.5625 371.375 C-391.60738901 370.951227 -392.65227802 370.52745399 -393.72883034 370.09083939 C-397.06914169 366.8894256 -397.03318515 366.06958832 -397.30078697 361.60413742 C-397.32612231 359.09027801 -397.31773135 356.57595596 -397.2840271 354.06219482 C-397.28664299 352.66455293 -397.29189544 351.2669139 -397.2995621 349.86929059 C-397.31300158 346.0242204 -397.28894887 342.18014976 -397.25889373 338.33520699 C-397.23302287 334.19072597 -397.24174834 330.04630295 -397.24630737 325.90176392 C-397.24945605 318.71965897 -397.23060475 311.53788064 -397.19688034 304.35585785 C-397.14815225 293.97187071 -397.13249519 283.58804178 -397.12495239 273.2039527 C-397.11181521 256.35723306 -397.07187094 239.51068756 -397.01513672 222.6640625 C-396.96007657 206.29753492 -396.91759918 189.93105461 -396.89208984 173.56445312 C-396.8905135 172.55589951 -396.88893716 171.5473459 -396.88731305 170.50823006 C-396.87948292 165.44869681 -396.87190065 160.38916323 -396.86444163 155.32962942 C-396.80222445 113.34463179 -396.6965308 71.35982585 -396.5625 29.375 C-393.04919055 30.52116248 -389.80356008 31.63895451 -386.59375 33.4765625 C-321.91264009 69.54401567 -249.029611 58.67862961 -180.92565918 39.34344482 C-168.77318748 35.84405699 -156.664238 32.19313655 -144.54571915 28.57838821 C-48.38336805 -0.10404552 -48.38336805 -0.10404552 0 0 Z " fill="#FEFEFE" transform="translate(400.5625,57.625)"/>
<path d="M0 0 C1.54470726 0.70540672 1.54470726 0.70540672 3.12062073 1.42506409 C6.3082342 4.27564389 6.43937941 4.64350812 6.7215271 8.65704346 C6.73893342 10.62191723 6.72293666 12.58725126 6.68115234 14.55175781 C6.6820285 15.62523468 6.68290466 16.69871155 6.68380737 17.80471802 C6.67962533 21.35492579 6.63294009 24.90324709 6.5859375 28.453125 C6.57474766 30.91362475 6.56620648 33.37413787 6.56021118 35.83465576 C6.5372967 42.31230547 6.47834891 48.78914859 6.4119873 55.26647949 C6.35062241 61.87545866 6.32320843 68.48456809 6.29296875 75.09375 C6.22860989 88.06284423 6.12734965 101.03137923 6 114 C1.83969168 113.06789974 -1.75669147 111.2448027 -5.5625 109.375 C-29.91454786 97.71497622 -56.25992962 89.92975595 -83.37890625 89.796875 C-84.82153336 89.78635353 -84.82153336 89.78635353 -86.29330444 89.77561951 C-89.38308441 89.75820068 -92.47267272 89.75176645 -95.5625 89.75 C-96.61801056 89.74932526 -97.67352112 89.74865051 -98.76101685 89.74795532 C-114.38403069 89.76383855 -129.59386104 90.17259305 -145 93 C-145.91378418 93.16097168 -146.82756836 93.32194336 -147.76904297 93.48779297 C-171.79954572 97.81802551 -195.90357082 104.09200318 -219.08984375 111.7421875 C-222.79487338 112.95876439 -226.53466348 113.96757002 -230.3125 114.9375 C-236.31193732 116.48841837 -242.17363797 118.32427351 -248.0625 120.25 C-259.59073793 123.9996091 -271.27665768 127.08812681 -283 130.15234375 C-287.74877722 131.39447737 -292.47008834 132.69759805 -297.17895508 134.08203125 C-308.29713184 137.33242361 -319.63670587 139.39135346 -331.02539062 141.45654297 C-333.58820805 141.92476618 -336.14611053 142.41145972 -338.703125 142.91015625 C-388.97726596 152.56340013 -442.39148491 147.11388986 -487 121 C-488 120 -488 120 -488.12304783 118.1590414 C-488.12212604 117.34878537 -488.12120424 116.53852934 -488.12025452 115.70372009 C-488.12162918 114.77678848 -488.12300385 113.84985687 -488.12442017 112.89483643 C-488.12082489 111.86985046 -488.11722961 110.8448645 -488.11352539 109.78881836 C-488.11367142 108.71577957 -488.11381744 107.64274078 -488.1139679 106.53718567 C-488.11326824 102.97138484 -488.10547338 99.40563551 -488.09765625 95.83984375 C-488.09579226 93.37504607 -488.09436827 90.91024801 -488.09336853 88.44544983 C-488.08954187 81.94346095 -488.07971032 75.44149425 -488.06866455 68.93951416 C-488.05791748 62.31059183 -488.05387159 55.68166307 -488.04882812 49.05273438 C-488.03808819 36.03514676 -488.02120097 23.01757456 -488 10 C-484.54115892 11.1345037 -481.23984617 12.26233366 -477.99609375 13.91796875 C-439.18396806 33.27901588 -395.88173607 39.36645942 -353 33 C-350.9661591 32.71735244 -348.93230389 32.43480782 -346.8984375 32.15234375 C-332.740999 30.13286242 -318.85857195 27.51957448 -305 24 C-304.36261902 23.8388269 -303.72523804 23.67765381 -303.06854248 23.51159668 C-281.06128692 17.93439307 -259.28281768 11.64917844 -237.55801392 5.06640625 C-159.68985471 -18.52796267 -76.68112228 -39.72791945 0 0 Z " fill="#2D4E95" transform="translate(497,303)"/>
<path d="M0 0 C22.15417385 -0.7860901 45.35800932 1.06609412 66.4921875 8.10302734 C67.21921875 8.33328613 67.94625 8.56354492 68.6953125 8.80078125 C101.65960556 19.27044541 101.65960556 19.27044541 109.4921875 27.10302734 C109.73828316 29.06703377 109.73828316 29.06703377 109.73269653 31.51956177 C109.73682053 32.91202118 109.73682053 32.91202118 109.74102783 34.33261108 C109.73383728 35.35400177 109.72664673 36.37539246 109.71923828 37.42773438 C109.71953033 38.50091919 109.71982239 39.574104 109.72012329 40.67980957 C109.71872581 44.24023419 109.70314487 47.80045161 109.6875 51.36083984 C109.68377136 53.82420741 109.68092369 56.28757646 109.67892456 58.75094604 C109.67127639 65.24473136 109.65161773 71.73842767 109.6295166 78.23217773 C109.60908364 84.85447994 109.59992831 91.47679648 109.58984375 98.09912109 C109.56837297 111.10046122 109.53460547 124.10173956 109.4921875 137.10302734 C106.06785294 135.9798229 102.79818307 134.87348963 99.59375 133.22021484 C78.08873727 122.40820845 56.2796843 116.53133647 32.4921875 113.10302734 C31.7386499 112.99176514 30.9851123 112.88050293 30.20874023 112.76586914 C-26.54326663 105.37956266 -84.97426164 124.89309677 -138.5078125 141.10302734 C-170.53729298 150.80153691 -202.55241729 160.08629608 -235.5078125 166.10302734 C-236.40628906 166.27946777 -237.30476562 166.4559082 -238.23046875 166.63769531 C-252.61263076 169.40708491 -267.10106325 169.41091265 -281.6953125 169.47802734 C-282.67200897 169.48606384 -283.64870544 169.49410034 -284.65499878 169.50238037 C-318.09635681 169.71089522 -350.08541613 162.22635755 -379.5078125 146.10302734 C-380.38741135 145.78887375 -381.26701019 145.47472015 -382.17326355 145.15104675 C-384.5078125 143.10302734 -384.5078125 143.10302734 -384.95646095 141.05985451 C-385.12772304 138.21912635 -385.12524127 135.41860686 -385.07543945 132.57299805 C-385.07616959 131.48991364 -385.07689972 130.40682922 -385.07765198 129.29092407 C-385.0741624 125.70304669 -385.03523402 122.1164598 -384.99609375 118.52880859 C-384.98677057 116.04445607 -384.97965212 113.56009436 -384.97465515 111.07572937 C-384.95750086 105.20009556 -384.91807625 99.32493988 -384.8679077 93.44950217 C-384.8065498 86.10426779 -384.77968602 78.75900635 -384.75195312 71.41357422 C-384.69829764 58.30982235 -384.61389603 45.20645423 -384.5078125 32.10302734 C-383.96100767 32.3628175 -383.41420284 32.62260765 -382.85082817 32.89027023 C-380.35121824 34.07739905 -377.85115056 35.2635608 -375.35107422 36.44970703 C-374.49088181 36.85841034 -373.63068939 37.26711365 -372.74443054 37.6882019 C-340.93619038 52.77338739 -306.82519886 59.87425447 -271.5078125 58.10302734 C-270.147771 58.03704346 -270.147771 58.03704346 -268.76025391 57.96972656 C-243.58248773 56.58652831 -218.87360553 51.3624049 -194.5078125 45.10302734 C-193.25315186 44.78615967 -193.25315186 44.78615967 -191.97314453 44.46289062 C-174.13074363 39.95598659 -156.50592547 34.64211266 -138.89282227 29.32006836 C-58.39866001 5.01504196 -58.39866001 5.01504196 -17.5078125 1.10302734 C-16.34121094 0.99087891 -15.17460937 0.87873047 -13.97265625 0.76318359 C-9.31726451 0.3868341 -4.66510922 0.1916546 0 0 Z " fill="#AB242E" transform="translate(393.5078125,61.89697265625)"/>
<path d="M0 0 C1.37322922 0.00031723 1.37322922 0.00031723 2.77420044 0.00064087 C17.68150153 0.03487249 31.86144815 1.02927101 46.4375 4.375 C47.69578613 4.64787842 47.69578613 4.64787842 48.97949219 4.92626953 C67.38417082 8.97877551 84.94749141 16.31120775 101.4375 25.375 C102.48238901 25.798773 103.52727802 26.22254601 104.60383034 26.65916061 C107.94414169 29.8605744 107.90818515 30.68041168 108.17578697 35.14586258 C108.20112231 37.65972199 108.19273135 40.17404404 108.1590271 42.68780518 C108.16164299 44.08544707 108.16689544 45.4830861 108.1745621 46.88070941 C108.18800158 50.7257796 108.16394887 54.56985024 108.13389373 58.41479301 C108.10802287 62.55927403 108.11674834 66.70369705 108.12130737 70.84823608 C108.12445605 78.03034103 108.10560475 85.21211936 108.07188034 92.39414215 C108.02315225 102.77812929 108.00749519 113.16195822 107.99995239 123.5460473 C107.98681521 140.39276694 107.94687094 157.23931244 107.89013672 174.0859375 C107.83507657 190.45246508 107.79259918 206.81894539 107.76708984 223.18554688 C107.76472533 224.69837729 107.76472533 224.69837729 107.76231305 226.24176994 C107.75448292 231.30130319 107.74690065 236.36083677 107.73944163 241.42037058 C107.67722445 283.40536821 107.5715308 325.39017415 107.4375 367.375 C103.92419055 366.22883752 100.67856008 365.11104549 97.46875 363.2734375 C35.19014845 328.54567003 -35.78591148 336.97676546 -101.78240967 355.58093262 C-116.17637475 359.69223003 -130.51661269 363.99374602 -144.86809826 368.25051689 C-272.71189829 406.16810932 -272.71189829 406.16810932 -331.5625 393.375 C-332.48546875 393.17632324 -333.4084375 392.97764648 -334.359375 392.77294922 C-354.12533078 388.3632649 -372.81878256 381.12789781 -390.5625 371.375 C-391.60738901 370.951227 -392.65227802 370.52745399 -393.72883034 370.09083939 C-397.06914169 366.8894256 -397.03318515 366.06958832 -397.30078697 361.60413742 C-397.32612231 359.09027801 -397.31773135 356.57595596 -397.2840271 354.06219482 C-397.28664299 352.66455293 -397.29189544 351.2669139 -397.2995621 349.86929059 C-397.31300158 346.0242204 -397.28894887 342.18014976 -397.25889373 338.33520699 C-397.23302287 334.19072597 -397.24174834 330.04630295 -397.24630737 325.90176392 C-397.24945605 318.71965897 -397.23060475 311.53788064 -397.19688034 304.35585785 C-397.14815225 293.97187071 -397.13249519 283.58804178 -397.12495239 273.2039527 C-397.11181521 256.35723306 -397.07187094 239.51068756 -397.01513672 222.6640625 C-396.96007657 206.29753492 -396.91759918 189.93105461 -396.89208984 173.56445312 C-396.8905135 172.55589951 -396.88893716 171.5473459 -396.88731305 170.50823006 C-396.87948292 165.44869681 -396.87190065 160.38916323 -396.86444163 155.32962942 C-396.80222445 113.34463179 -396.6965308 71.35982585 -396.5625 29.375 C-393.04919055 30.52116248 -389.80356008 31.63895451 -386.59375 33.4765625 C-321.91264009 69.54401567 -249.029611 58.67862961 -180.92565918 39.34344482 C-168.77318748 35.84405699 -156.664238 32.19313655 -144.54571915 28.57838821 C-48.38336805 -0.10404552 -48.38336805 -0.10404552 0 0 Z M-29.82128906 6.07617188 C-31.57219312 6.2670435 -33.32411399 6.44894311 -35.07714844 6.61914062 C-63.268794 9.38766151 -91.31292761 17.32402452 -118.37207031 25.42529297 C-121.60470621 26.38756368 -124.84372968 27.32443443 -128.0859375 28.25390625 C-136.42326891 30.64806588 -144.73904479 33.03742869 -152.9375 35.875 C-163.01687099 39.32200836 -173.35557786 41.89486343 -183.65185547 44.60546875 C-186.00143452 45.22666261 -188.34769969 45.85712715 -190.69140625 46.5 C-194.30790866 47.48744093 -197.93160127 48.44227665 -201.5625 49.375 C-202.84084717 49.70516113 -202.84084717 49.70516113 -204.14501953 50.04199219 C-228.56658787 56.29024315 -253.34012349 61.15130908 -278.5625 62.375 C-279.46532715 62.42027832 -280.3681543 62.46555664 -281.29833984 62.51220703 C-317.37003553 64.04594396 -352.82315053 55.92106168 -384.94360352 39.70654297 C-385.90393871 39.22398293 -385.90393871 39.22398293 -386.88367462 38.73167419 C-388.44394022 37.94742214 -390.00331421 37.16139666 -391.5625 36.375 C-391.79130542 78.18538174 -391.96755398 119.99569135 -392.07315329 161.80657495 C-392.08566061 166.74084266 -392.09860381 171.67510913 -392.11181641 176.609375 C-392.11443951 177.5917134 -392.11706261 178.57405179 -392.11976521 179.58615802 C-392.16329835 195.49965107 -392.24215467 211.41278348 -392.33402796 227.32606246 C-392.42748858 243.65022807 -392.48307609 259.97420459 -392.50338495 276.29862678 C-392.51711792 286.37482925 -392.56051501 296.45001248 -392.64166467 306.52590124 C-392.69445761 313.43199882 -392.71051662 320.33756825 -392.69751377 327.24385305 C-392.69109734 331.23102038 -392.70104232 335.21640503 -392.75455475 339.20325661 C-392.80319266 342.85355287 -392.80570825 346.50086737 -392.77148895 350.15130042 C-392.76525587 352.09756721 -392.80842567 354.0437983 -392.85331309 355.98955739 C-392.79462911 359.40258697 -392.65564513 362.14006513 -391.5625 365.375 C-388.56395575 368.26291271 -385.37872174 369.79505189 -381.5625 371.375 C-379.9747952 372.16180512 -378.38964754 372.95382015 -376.80859375 373.75390625 C-375.21030626 374.49176723 -373.60728422 375.21944767 -372 375.9375 C-371.13721436 376.32317139 -370.27442871 376.70884277 -369.38549805 377.10620117 C-361.285053 380.63838495 -353.11152779 383.19387573 -344.5625 385.375 C-343.23171945 385.73548745 -341.90099011 386.096164 -340.5703125 386.45703125 C-303.03051347 396.29839884 -263.13256772 393.70498648 -225.5625 385.375 C-224.43231445 385.12733887 -223.30212891 384.87967773 -222.13769531 384.62451172 C-205.07041635 380.85309898 -188.27619945 376.48037404 -171.5625 371.375 C-168.25090166 370.37200115 -164.93806455 369.37314343 -161.625 368.375 C-160.42991821 368.01329712 -160.42991821 368.01329712 -159.21069336 367.64428711 C-151.43394436 365.30437348 -143.60785253 363.14909604 -135.78076172 360.98486328 C-129.38986763 359.20485906 -123.05874825 357.30085822 -116.75 355.25 C-108.66706403 352.63013875 -100.50654582 350.52009218 -92.25 348.5234375 C-88.24658155 347.55481653 -84.28014282 346.4820432 -80.3125 345.375 C-69.82614586 342.57788394 -59.23514769 340.33724323 -48.5625 338.375 C-47.64936035 338.20548828 -46.7362207 338.03597656 -45.79541016 337.86132812 C-30.37145616 335.15448457 -14.92532736 335.08965535 0.6875 335.0625 C2.22725998 335.05698624 2.22725998 335.05698624 3.79812622 335.05136108 C14.85653155 335.03069489 25.55267416 335.19981372 36.4375 337.375 C38.08432663 337.65158445 39.73144724 337.9264263 41.37890625 338.19921875 C60.43625027 341.66124211 80.64512519 347.88149873 97.25390625 358.109375 C99.4494455 359.62573164 99.4494455 359.62573164 102.4375 359.375 C102.62051931 317.67493922 102.76153059 275.97492468 102.84602264 234.27454199 C102.85602856 229.35400716 102.86638312 224.43347311 102.87695312 219.51293945 C102.88010085 218.04352431 102.88010085 218.04352431 102.88331217 216.54442402 C102.91814454 200.67235655 102.981233 184.80052033 103.05472237 168.92859016 C103.12947422 152.64849179 103.17395741 136.36851472 103.19020796 120.08825177 C103.20119764 110.03830884 103.23593453 99.98901951 103.30083174 89.93927773 C103.34304527 83.05238396 103.35591783 76.16582919 103.34551102 69.27881537 C103.34037497 65.30214908 103.34837175 61.32662656 103.3911438 57.35016251 C103.43000547 53.71074331 103.43209317 50.07323927 103.40469116 46.43373289 C103.39969641 44.49076855 103.43427031 42.54782763 103.47015047 40.60518819 C103.57780329 34.54512008 103.57780329 34.54512008 100.70284176 29.52360761 C98.65275186 28.21575058 96.69432832 27.26847967 94.4375 26.375 C93.39851563 25.81296875 92.35953125 25.2509375 91.2890625 24.671875 C72.20034924 15.52038535 52.3873482 9.31393208 31.4375 6.375 C30.0038086 6.15036194 28.57020905 5.92513655 27.13671875 5.69921875 C8.30212968 2.92328801 -10.97091031 4.01835504 -29.82128906 6.07617188 Z " fill="#C9C6C6" transform="translate(400.5625,57.625)"/>
</svg>
