<?xml version="1.0" encoding="UTF-8"?>
<svg version="1.1" xmlns="http://www.w3.org/2000/svg" width="512" height="512">
<path d="M0 0 C13.45059733 11.40883736 22.95729698 27.04530521 25.8203125 44.5546875 C26.07897511 48.23398627 26.07422839 51.89515196 26.04736328 55.58227539 C26.04765533 56.64672882 26.04794739 57.71118225 26.04824829 58.80789185 C26.046864 62.29779443 26.03134529 65.78747883 26.015625 69.27734375 C26.01189167 71.70828637 26.00904621 74.1392305 26.00704956 76.57017517 C25.99943834 82.94713546 25.97981144 89.32400366 25.9576416 95.70092773 C25.93712901 102.21662145 25.92803628 108.73233013 25.91796875 115.24804688 C25.89656315 128.01696739 25.8624576 140.78581977 25.8203125 153.5546875 C31.1003125 153.5546875 36.3803125 153.5546875 41.8203125 153.5546875 C41.8203125 251.2346875 41.8203125 348.9146875 41.8203125 449.5546875 C-42.17644382 449.67568155 -42.17644382 449.67568155 -77.2265625 449.70117188 C-85.24934914 449.70704554 -93.27213561 449.71310699 -101.29492188 449.71948242 C-102.80322012 449.72066929 -102.80322012 449.72066929 -104.34198904 449.72188014 C-120.57770368 449.73492974 -136.81338647 449.75858214 -153.04908222 449.78614589 C-169.71002169 449.81419578 -186.37094449 449.83086288 -203.0319066 449.83695298 C-213.31345161 449.84107028 -223.5949066 449.85407674 -233.8764239 449.8784369 C-240.92586805 449.89428893 -247.97526564 449.89908906 -255.02472633 449.89519163 C-259.09251441 449.89326926 -263.16014514 449.89622608 -267.22790527 449.91230392 C-270.95392559 449.92692341 -274.67968301 449.92762668 -278.40571553 449.91738418 C-280.38811652 449.91552032 -282.3705145 449.92844069 -284.35287046 449.94193143 C-291.03852147 449.90826987 -296.10690051 449.40554271 -302.1796875 446.5546875 C-303.33271362 446.03044189 -303.33271362 446.03044189 -304.5090332 445.49560547 C-305.11835693 445.18252441 -305.72768066 444.86944336 -306.35546875 444.546875 C-307.03802734 444.20011719 -307.72058594 443.85335938 -308.42382812 443.49609375 C-309.10638672 443.14417969 -309.78894531 442.79226563 -310.4921875 442.4296875 C-315.71481806 439.71763088 -315.71481806 439.71763088 -321.1796875 437.5546875 C-323.22295063 438.62704805 -323.22295063 438.62704805 -325.3046875 440.2421875 C-339.51216787 450.16669972 -356.26569434 451.8095117 -373.1171875 448.8671875 C-376.27009409 447.95769521 -379.18312825 446.88834391 -382.1796875 445.5546875 C-383.11683594 445.1421875 -384.05398438 444.7296875 -385.01953125 444.3046875 C-396.66724448 438.5543438 -404.95532128 429.83302629 -411.1796875 418.5546875 C-411.53933594 417.92046875 -411.89898437 417.28625 -412.26953125 416.6328125 C-413.66193645 414.04050051 -414.1796875 412.55292761 -414.1796875 409.5546875 C-415.0459375 409.6371875 -415.9121875 409.7196875 -416.8046875 409.8046875 C-422.16465362 409.40765297 -424.94098812 406.85858159 -428.5546875 403.0546875 C-430.95272325 397.88968741 -430.93350285 393.1544587 -430.1796875 387.5546875 C-427.90923168 382.66447497 -424.95023423 380.0353718 -420.1796875 377.5546875 C-416.8046875 377.3046875 -416.8046875 377.3046875 -414.1796875 377.5546875 C-414.06496094 376.83539063 -413.95023437 376.11609375 -413.83203125 375.375 C-411.08356839 363.49242405 -401.55406919 353.14435488 -391.6171875 346.6171875 C-380.61693998 340.14098544 -370.88432455 337.20272946 -358.1171875 337.3671875 C-357.16263672 337.36783203 -356.20808594 337.36847656 -355.22460938 337.36914062 C-351.11294172 337.39467893 -347.26687026 337.47217289 -343.2421875 338.34375 C-340.10393792 338.91602464 -340.10393792 338.91602464 -338.02734375 336.74609375 C-337.43824219 335.87855469 -336.84914063 335.01101563 -336.2421875 334.1171875 C-325.75715084 319.73541308 -312.23517628 311.42768429 -295.1796875 306.5546875 C-294.8496875 298.3046875 -294.5196875 290.0546875 -294.1796875 281.5546875 C-296.8196875 281.2246875 -299.4596875 280.8946875 -302.1796875 280.5546875 C-311.43883415 276.6464358 -317.30969776 270.33379125 -321.23876953 261.25024414 C-323.0306219 256.1169172 -323.68470395 250.79723292 -324.4296875 245.4296875 C-324.60242188 244.28886719 -324.77515625 243.14804687 -324.953125 241.97265625 C-325.7609707 236.45237727 -326.40609853 231.13410206 -326.1796875 225.5546875 C-318.22653685 225.92549356 -310.50915433 226.73605778 -302.671875 228.09765625 C-301.85001709 228.23764038 -301.02815918 228.37762451 -300.18139648 228.52185059 C-298.18031233 228.86312639 -296.17992386 229.20847732 -294.1796875 229.5546875 C-293.99425734 219.73219745 -293.85214698 209.91012416 -293.76519012 200.08623981 C-293.72345218 195.52439332 -293.66685378 190.96374481 -293.57617188 186.40258789 C-293.48918938 181.99990788 -293.44140287 177.59837919 -293.42066956 173.19490623 C-293.40589699 171.51582902 -293.37704699 169.83681431 -293.33384705 168.15822792 C-292.70612149 159.26140584 -292.70612149 159.26140584 -295.94277954 151.4526062 C-297.99746186 150.16584161 -299.90063573 149.35249507 -302.1796875 148.5546875 C-304.203125 146.7109375 -304.203125 146.7109375 -305.5546875 145.0546875 C-306.01617187 144.508125 -306.47765625 143.9615625 -306.953125 143.3984375 C-311.22838009 136.9719394 -310.83878499 130.00755914 -310.1796875 122.5546875 C-308.52672568 116.00561091 -303.77682273 111.15061237 -298.1796875 107.5546875 C-295.42578125 106.86328125 -295.42578125 106.86328125 -293.1796875 106.5546875 C-293.1796875 105.8946875 -293.1796875 105.2346875 -293.1796875 104.5546875 C-293.92089844 104.45285156 -294.66210938 104.35101563 -295.42578125 104.24609375 C-301.13555605 102.81257582 -305.67947331 97.94627783 -308.6796875 92.9921875 C-311.46686802 86.6090464 -311.26452559 78.77877579 -309.5546875 72.12109375 C-306.82977971 65.88056833 -301.46132487 61.39560603 -295.6171875 58.1171875 C-292.42942374 57.38154971 -289.43769496 57.4269225 -286.1796875 57.5546875 C-286.2621875 56.5646875 -286.3446875 55.5746875 -286.4296875 54.5546875 C-286.38418286 48.91211206 -284.1345586 44.63607427 -280.30859375 40.5625 C-273.36190556 34.23300339 -267.99191335 33.07400372 -258.625 33.25 C-251.72266004 33.86041102 -247.93761421 36.48028928 -243.3046875 41.4921875 C-238.93721251 46.88437758 -237.90519822 50.55521078 -238.1796875 57.5546875 C-235.5396875 57.5546875 -232.8996875 57.5546875 -230.1796875 57.5546875 C-230.2621875 56.5646875 -230.3446875 55.5746875 -230.4296875 54.5546875 C-230.38418286 48.91211206 -228.1345586 44.63607427 -224.30859375 40.5625 C-217.36190556 34.23300339 -211.99191335 33.07400372 -202.625 33.25 C-195.72266004 33.86041102 -191.93761421 36.48028928 -187.3046875 41.4921875 C-182.93721251 46.88437758 -181.90519822 50.55521078 -182.1796875 57.5546875 C-179.8696875 57.5546875 -177.5596875 57.5546875 -175.1796875 57.5546875 C-174.8496875 49.6346875 -174.5196875 41.7146875 -174.1796875 33.5546875 C-153.0596875 33.5546875 -131.9396875 33.5546875 -110.1796875 33.5546875 C-110.1796875 49.3946875 -110.1796875 65.2346875 -110.1796875 81.5546875 C-112.4896875 81.5546875 -114.7996875 81.5546875 -117.1796875 81.5546875 C-116.3739624 107.33789066 -106.73337871 128.74426774 -90.046875 148.20996094 C-89.5091748 148.83723083 -88.97147461 149.46450073 -88.41748047 150.11077881 C-88.00900879 150.58726868 -87.60053711 151.06375854 -87.1796875 151.5546875 C-87.17382126 150.24083069 -87.16795502 148.92697388 -87.16191101 147.57330322 C-87.10455463 135.15649589 -87.03172571 122.73986152 -86.94397259 110.32323074 C-86.89935525 103.94059781 -86.86008006 97.55802744 -86.83325195 91.17529297 C-86.80713292 85.00896093 -86.76666967 78.84287076 -86.71650124 72.67668915 C-86.69989061 70.33096081 -86.68834037 67.9851907 -86.68207359 65.63941193 C-86.63876074 50.9092878 -86.48320449 37.83374814 -79.5546875 24.4921875 C-79.20986328 23.81808838 -78.86503906 23.14398926 -78.50976562 22.44946289 C-69.92829381 6.27061533 -56.17229741 -4.95413552 -39.1796875 -11.4453125 C-25.32990828 -15.49890642 -10.70837124 -8.5441251 0 0 Z " fill="#8CCDE8" transform="translate(454.1796875,38.4453125)"/>
<path d="M0 0 C13.45059733 11.40883736 22.95729698 27.04530521 25.8203125 44.5546875 C26.07897511 48.23398627 26.07422839 51.89515196 26.04736328 55.58227539 C26.04765533 56.64672882 26.04794739 57.71118225 26.04824829 58.80789185 C26.046864 62.29779443 26.03134529 65.78747883 26.015625 69.27734375 C26.01189167 71.70828637 26.00904621 74.1392305 26.00704956 76.57017517 C25.99943834 82.94713546 25.97981144 89.32400366 25.9576416 95.70092773 C25.93712901 102.21662145 25.92803628 108.73233013 25.91796875 115.24804688 C25.89656316 128.01696622 25.86284579 140.78582194 25.8203125 153.5546875 C-14.68220493 153.64623883 -55.18470887 153.7167241 -95.68730909 153.75894882 C-100.46878565 153.76395166 -105.25026202 153.76912894 -110.03173828 153.77441406 C-111.45959972 153.77598793 -111.45959972 153.77598793 -112.91630685 153.77759358 C-128.33036635 153.79499979 -143.74436618 153.82653868 -159.15839028 153.86329868 C-174.97407875 153.90070208 -190.78973596 153.92292208 -206.60546684 153.93104148 C-216.36498521 153.9365305 -226.12433494 153.95386839 -235.8838014 153.98635337 C-242.57583297 154.00749382 -249.26777734 154.0138886 -255.95983988 154.00869301 C-259.82110471 154.00613049 -263.68207482 154.01006433 -267.54328728 154.0315094 C-271.73144344 154.05460022 -275.91897237 154.04663657 -280.10717773 154.03570557 C-281.32508751 154.04735693 -282.54299728 154.0590083 -283.79781342 154.07101274 C-291.77830352 154.01462343 -297.25085821 152.99754662 -303.421875 147.58984375 C-304.23011719 146.61337891 -304.23011719 146.61337891 -305.0546875 145.6171875 C-305.60898437 144.96878906 -306.16328125 144.32039062 -306.734375 143.65234375 C-311.21380847 137.15111193 -310.85432478 130.18327833 -310.1796875 122.5546875 C-308.52672568 116.00561091 -303.77682273 111.15061237 -298.1796875 107.5546875 C-295.42578125 106.86328125 -295.42578125 106.86328125 -293.1796875 106.5546875 C-293.1796875 105.8946875 -293.1796875 105.2346875 -293.1796875 104.5546875 C-293.92089844 104.45285156 -294.66210938 104.35101563 -295.42578125 104.24609375 C-301.13555605 102.81257582 -305.67947331 97.94627783 -308.6796875 92.9921875 C-311.46686802 86.6090464 -311.26452559 78.77877579 -309.5546875 72.12109375 C-306.82977971 65.88056833 -301.46132487 61.39560603 -295.6171875 58.1171875 C-292.42942374 57.38154971 -289.43769496 57.4269225 -286.1796875 57.5546875 C-286.2621875 56.5646875 -286.3446875 55.5746875 -286.4296875 54.5546875 C-286.38418286 48.91211206 -284.1345586 44.63607427 -280.30859375 40.5625 C-273.36190556 34.23300339 -267.99191335 33.07400372 -258.625 33.25 C-251.72266004 33.86041102 -247.93761421 36.48028928 -243.3046875 41.4921875 C-238.93721251 46.88437758 -237.90519822 50.55521078 -238.1796875 57.5546875 C-235.5396875 57.5546875 -232.8996875 57.5546875 -230.1796875 57.5546875 C-230.2621875 56.5646875 -230.3446875 55.5746875 -230.4296875 54.5546875 C-230.38418286 48.91211206 -228.1345586 44.63607427 -224.30859375 40.5625 C-217.36190556 34.23300339 -211.99191335 33.07400372 -202.625 33.25 C-195.72266004 33.86041102 -191.93761421 36.48028928 -187.3046875 41.4921875 C-182.93721251 46.88437758 -181.90519822 50.55521078 -182.1796875 57.5546875 C-179.8696875 57.5546875 -177.5596875 57.5546875 -175.1796875 57.5546875 C-174.8496875 49.6346875 -174.5196875 41.7146875 -174.1796875 33.5546875 C-153.0596875 33.5546875 -131.9396875 33.5546875 -110.1796875 33.5546875 C-110.1796875 49.3946875 -110.1796875 65.2346875 -110.1796875 81.5546875 C-112.4896875 81.5546875 -114.7996875 81.5546875 -117.1796875 81.5546875 C-116.3739624 107.33789066 -106.73337871 128.74426774 -90.046875 148.20996094 C-89.5091748 148.83723083 -88.97147461 149.46450073 -88.41748047 150.11077881 C-87.80477295 150.82551361 -87.80477295 150.82551361 -87.1796875 151.5546875 C-87.17382126 150.24083069 -87.16795502 148.92697388 -87.16191101 147.57330322 C-87.10455463 135.15649589 -87.03172571 122.73986152 -86.94397259 110.32323074 C-86.89935525 103.94059781 -86.86008006 97.55802744 -86.83325195 91.17529297 C-86.80713292 85.00896093 -86.76666967 78.84287076 -86.71650124 72.67668915 C-86.69989061 70.33096081 -86.68834037 67.9851907 -86.68207359 65.63941193 C-86.63876074 50.9092878 -86.48320449 37.83374814 -79.5546875 24.4921875 C-79.20986328 23.81808838 -78.86503906 23.14398926 -78.50976562 22.44946289 C-69.92829381 6.27061533 -56.17229741 -4.95413552 -39.1796875 -11.4453125 C-25.32990828 -15.49890642 -10.70837124 -8.5441251 0 0 Z " fill="#AF7D4D" transform="translate(454.1796875,38.4453125)"/>
<path d="M0 0 C15.84 0 31.68 0 48 0 C48 7.92 48 15.84 48 24 C54.17705854 23.88239294 54.17705854 23.88239294 60.35327148 23.72973633 C67.25387192 23.66425772 73.46651095 24.59771398 79.26953125 28.54296875 C79.77871094 29.08566406 80.28789062 29.62835938 80.8125 30.1875 C81.33457031 30.71730469 81.85664063 31.24710937 82.39453125 31.79296875 C92.27585983 45.37679028 88 51.74468186 88 72 C49.72 72 11.44 72 -28 72 C-28.66 73.98 -29.32 75.96 -30 78 C-30.98717882 80.05815001 -32.00865825 82.10017383 -33.0625 84.125 C-34.76761476 87.401822 -36.29466299 90.36011274 -37 94 C-36.27167969 94.1134375 -35.54335937 94.226875 -34.79296875 94.34375 C-25.72994509 96.47324367 -18.45432941 103.67305867 -12 110 C-11.29875 110.66515625 -10.5975 111.3303125 -9.875 112.015625 C2.6295645 124.81326524 8.58470731 143.36648189 8.41381836 160.93457031 C8.16609527 168.58525323 7.46057528 177.07884944 4 184 C31.72 184 59.44 184 88 184 C88 217.23636364 88 217.23636364 81.8515625 224.55859375 C81.11679687 225.17863281 80.38203125 225.79867187 79.625 226.4375 C78.53058594 227.39462891 78.53058594 227.39462891 77.4140625 228.37109375 C72.74618509 231.52077802 68.22655183 232.25017313 62.6756897 232.26069641 C60.80009621 232.27132362 60.80009621 232.27132362 58.88661194 232.28216553 C57.51376306 232.27987204 56.14091453 232.27736239 54.76806641 232.2746582 C53.31219726 232.27900875 51.8563304 232.28419305 50.40046692 232.29014587 C46.45617007 232.30351098 42.5119692 232.30411727 38.56765413 232.30158257 C35.27006875 232.30051107 31.97250264 232.30540088 28.67492139 232.310188 C20.89231568 232.3212748 13.10975823 232.32172539 5.32714844 232.31567383 C-2.69016357 232.30963541 -10.70730002 232.32194354 -18.72458208 232.3432439 C-25.61820064 232.36088258 -32.51176344 232.36685764 -39.40540373 232.36360615 C-43.51810394 232.3617966 -47.63067893 232.36439657 -51.74335861 232.37832069 C-55.6126926 232.39093122 -59.48175377 232.38892467 -63.35108376 232.37590981 C-64.7667799 232.37355139 -66.18249544 232.37625228 -67.59816933 232.38453293 C-75.09463062 232.42520142 -81.18098165 232.2473764 -88 229 C-88.76868408 228.65050293 -89.53736816 228.30100586 -90.3293457 227.94091797 C-90.93866943 227.62783691 -91.54799316 227.31475586 -92.17578125 226.9921875 C-92.85833984 226.64542969 -93.54089844 226.29867187 -94.24414062 225.94140625 C-94.92669922 225.58949219 -95.60925781 225.23757813 -96.3125 224.875 C-101.53513056 222.16294338 -101.53513056 222.16294338 -107 220 C-109.04326313 221.07236055 -109.04326313 221.07236055 -111.125 222.6875 C-125.33248037 232.61201222 -142.08600684 234.2548242 -158.9375 231.3125 C-162.09040659 230.40300771 -165.00344075 229.33365641 -168 228 C-168.93714844 227.5875 -169.87429687 227.175 -170.83984375 226.75 C-182.48755698 220.9996563 -190.77563378 212.27833879 -197 201 C-197.35964844 200.36578125 -197.71929687 199.7315625 -198.08984375 199.078125 C-199.48224895 196.48581301 -200 194.99824011 -200 192 C-200.86625 192.0825 -201.7325 192.165 -202.625 192.25 C-207.98496612 191.85296547 -210.76130062 189.30389409 -214.375 185.5 C-216.77303575 180.33499991 -216.75381535 175.5997712 -216 170 C-213.72954418 165.10978747 -210.77054673 162.4806843 -206 160 C-202.625 159.75 -202.625 159.75 -200 160 C-199.88527344 159.28070313 -199.77054688 158.56140625 -199.65234375 157.8203125 C-196.90388089 145.93773655 -187.37438169 135.58966738 -177.4375 129.0625 C-166.43725248 122.58629794 -156.70463705 119.64804196 -143.9375 119.8125 C-142.98294922 119.81314453 -142.02839844 119.81378906 -141.04492188 119.81445312 C-136.93325422 119.83999143 -133.08718276 119.91748539 -129.0625 120.7890625 C-125.92425042 121.36133714 -125.92425042 121.36133714 -123.84765625 119.19140625 C-123.25855469 118.32386719 -122.66945313 117.45632813 -122.0625 116.5625 C-111.20850151 101.67464 -95.56236214 91.25771496 -77.140625 88.26123047 C-69.15144278 87.28627324 -61.03912469 87.19591781 -53 87 C-52.34 85.02 -51.68 83.04 -51 81 C-64.2 67.8 -77.4 54.6 -91 41 C-85 34 -85 34 -79 29 C-61.18 46.82 -61.18 46.82 -43 65 C-40.547599 62.547599 -40.75108974 61.85904806 -40.7265625 58.4921875 C-40.7059375 57.58726562 -40.6853125 56.68234375 -40.6640625 55.75 C-40.63834046 53.85685781 -40.61992256 51.96360005 -40.609375 50.0703125 C-40.41709088 42.5071371 -38.87984285 37.24561896 -33.81640625 31.5390625 C-33.07261719 30.90742188 -32.32882813 30.27578125 -31.5625 29.625 C-30.45068359 28.65433594 -30.45068359 28.65433594 -29.31640625 27.6640625 C-25.22891302 24.72768457 -21.70440984 23.74614725 -16.69921875 23.8046875 C-15.37796997 23.81218018 -15.37796997 23.81218018 -14.0300293 23.81982422 C-12.37547729 23.84713623 -12.37547729 23.84713623 -10.6875 23.875 C-5.3971875 23.936875 -5.3971875 23.936875 0 24 C0 16.08 0 8.16 0 0 Z " fill="#E98804" transform="translate(240,256)"/>
<path d="M0 0 C26.4 0 52.8 0 80 0 C80 97.68 80 195.36 80 296 C53.6 296 27.2 296 0 296 C0 198.32 0 100.64 0 0 Z " fill="#37A0C5" transform="translate(416,192)"/>
<path d="M0 0 C5.16818759 3.12314132 9.07049266 7.84033475 12 13.0625 C12.73563779 16.25026376 12.690265 19.24199254 12.5625 22.5 C15.2025 22.5 17.8425 22.5 20.5625 22.5 C20.48 21.51 20.3975 20.52 20.3125 19.5 C20.35800464 13.85742456 22.6076289 9.58138677 26.43359375 5.5078125 C33.38028194 -0.82168411 38.75027415 -1.98068378 48.1171875 -1.8046875 C55.01952746 -1.19427648 58.80457329 1.42560178 63.4375 6.4375 C67.80497499 11.82969008 68.83698928 15.50052328 68.5625 22.5 C70.2640625 22.4690625 70.2640625 22.4690625 72 22.4375 C75.5625 22.5 75.5625 22.5 76.5625 23.5 C76.64963831 25.20772358 76.66950007 26.91898649 76.66015625 28.62890625 C76.65693359 29.66337891 76.65371094 30.69785156 76.65039062 31.76367188 C76.64201172 32.85228516 76.63363281 33.94089844 76.625 35.0625 C76.62048828 36.15498047 76.61597656 37.24746094 76.61132812 38.37304688 C76.59949826 41.08208495 76.58301543 43.79101599 76.5625 46.5 C79.2025 46.5 81.8425 46.5 84.5625 46.5 C85.89801596 67.52201052 77.36756294 90.28804003 64.125 106.48046875 C62.64503097 108.12839479 61.14200628 109.75625031 59.60546875 111.3515625 C57.46915287 113.44172152 57.46915287 113.44172152 56.00604248 116.09483337 C52.90787768 119.14434147 51.26890129 119.1001233 47.06140137 119.16653442 C46.19067993 119.15484222 45.3199585 119.14315002 44.42285156 119.13110352 C43.49877502 119.13825882 42.57469849 119.14541412 41.62261963 119.15278625 C38.56561939 119.16970341 35.51007998 119.15024665 32.453125 119.12890625 C30.32566202 119.12973495 28.19819909 119.13219438 26.07073975 119.13621521 C21.60848754 119.13907566 17.14673655 119.12435255 12.68457031 119.09692383 C6.97704046 119.06292385 1.27041183 119.06882959 -4.43716049 119.0875864 C-8.83310386 119.09818191 -13.22883941 119.08919395 -17.62476349 119.07420158 C-19.7282067 119.06903246 -21.83167175 119.0694861 -23.935112 119.07574654 C-26.88396916 119.08122611 -29.83156064 119.06073244 -32.78027344 119.03344727 C-34.07421021 119.04323608 -34.07421021 119.04323608 -35.39428711 119.05322266 C-42.25123041 118.94589976 -47.4901899 117.08274735 -52.6796875 112.53515625 C-53.21851563 111.88417969 -53.75734375 111.23320312 -54.3125 110.5625 C-54.86679688 109.91410156 -55.42109375 109.26570313 -55.9921875 108.59765625 C-60.47162097 102.09642443 -60.11213728 95.12859083 -59.4375 87.5 C-57.78453818 80.95092341 -53.03463523 76.09592487 -47.4375 72.5 C-44.68359375 71.80859375 -44.68359375 71.80859375 -42.4375 71.5 C-42.4375 70.84 -42.4375 70.18 -42.4375 69.5 C-43.17871094 69.39816406 -43.91992188 69.29632813 -44.68359375 69.19140625 C-50.39336855 67.75788832 -54.93728581 62.89159033 -57.9375 57.9375 C-60.72468052 51.5543589 -60.52233809 43.72408829 -58.8125 37.06640625 C-56.08759221 30.82588083 -50.71913737 26.34091853 -44.875 23.0625 C-41.68723624 22.32686221 -38.69550746 22.372235 -35.4375 22.5 C-35.52 21.51 -35.6025 20.52 -35.6875 19.5 C-35.64199536 13.85742456 -33.3923711 9.58138677 -29.56640625 5.5078125 C-21.47281646 -1.86668708 -10.50288165 -4.65421815 0 0 Z " fill="#339A65" transform="translate(203.4375,73.5)"/>
<path d="M0 0 C0.8971875 0.44601562 1.794375 0.89203125 2.71875 1.3515625 C14.27019437 7.73337899 24.32090537 17.393409 28.875 29.9375 C30.1803342 33.16304047 30.1803342 33.16304047 33.03125 34.98046875 C34.59520197 35.41055554 36.16588988 35.81684953 37.7421875 36.19921875 C41.61387581 37.5723954 43.92047655 40.5465057 46 44 C47.53874127 48.83202288 47.6002766 53.33256501 45.875 58.125 C42.88644324 62.7074537 39.93313959 65.59007085 34.5 66.7421875 C30.80663177 67.66919464 30.80663177 67.66919464 29.171875 70.8359375 C28.70265625 72.00382812 28.2334375 73.17171875 27.75 74.375 C21.67067795 88.14219456 10.47851842 97.78982601 -3.09375 103.921875 C-17.35228543 109.21133169 -35.07053949 109.19948173 -49 103 C-49.93714844 102.5875 -50.87429687 102.175 -51.83984375 101.75 C-63.48755698 95.9996563 -71.77563378 87.27833879 -78 76 C-78.35964844 75.36578125 -78.71929687 74.7315625 -79.08984375 74.078125 C-80.48224895 71.48581301 -81 69.99824011 -81 67 C-81.86625 67.0825 -82.7325 67.165 -83.625 67.25 C-88.98496612 66.85296547 -91.76130062 64.30389409 -95.375 60.5 C-97.77303575 55.33499991 -97.75381535 50.5997712 -97 45 C-94.72954418 40.10978747 -91.77054673 37.4806843 -87 35 C-83.625 34.75 -83.625 34.75 -81 35 C-80.82791016 33.92105469 -80.82791016 33.92105469 -80.65234375 32.8203125 C-77.90388089 20.93773655 -68.37438169 10.58966738 -58.4375 4.0625 C-40.56424933 -6.46006166 -19.05908094 -9.47938499 0 0 Z " fill="#A4C429" transform="translate(121,381)"/>
<path d="M0 0 C38.28 0 76.56 0 116 0 C116 36.96 116 73.92 116 112 C88.28 112 60.56 112 32 112 C33.485 104.08 33.485 104.08 35 96 C35.27412101 92.69573048 35.48461165 89.65404417 35.4375 86.375 C35.42847656 85.57924561 35.41945312 84.78349121 35.41015625 83.96362305 C34.90849902 66.63728798 26.95689128 49.70039309 14.71875 37.55078125 C7.43855388 30.72036736 0.07327998 26.19121055 -9 22 C-8 16 -8 16 0 0 Z " fill="#EFDD9B" transform="translate(212,328)"/>
<path d="M0 0 C15.84 0 31.68 0 48 0 C48 7.92 48 15.84 48 24 C54.17705854 23.88239294 54.17705854 23.88239294 60.35327148 23.72973633 C67.25387192 23.66425772 73.46651095 24.59771398 79.26953125 28.54296875 C79.77871094 29.08566406 80.28789062 29.62835938 80.8125 30.1875 C81.33457031 30.71730469 81.85664063 31.24710937 82.39453125 31.79296875 C92.27585983 45.37679028 88 51.74468186 88 72 C49.72 72 11.44 72 -28 72 C-28.66 73.98 -29.32 75.96 -30 78 C-31.06861661 80.27747161 -32.1636455 82.51418413 -33.3125 84.75 C-34.0200535 86.14296401 -34.72704039 87.53621592 -35.43359375 88.9296875 C-36.03083252 90.1048291 -36.03083252 90.1048291 -36.64013672 91.30371094 C-38.22552739 94.44716777 -39.7872637 97.60187353 -41.34765625 100.7578125 C-41.92926514 101.93118164 -42.51087402 103.10455078 -43.11010742 104.31347656 C-44.27830485 106.67087926 -45.44387238 109.02958717 -46.60668945 111.38964844 C-47.41626099 113.01821777 -47.41626099 113.01821777 -48.2421875 114.6796875 C-48.7254248 115.65663574 -49.20866211 116.63358398 -49.70654297 117.64013672 C-51 120 -51 120 -53 122 C-55.96204338 122.47123417 -58.04558142 122.55325419 -60.69140625 121.01953125 C-62.86149775 119.320062 -64.67381803 117.71850665 -65.82592773 115.18066406 C-66.07868066 112.01433996 -64.92028953 110.16509723 -63.47265625 107.359375 C-62.92802734 106.28945313 -62.38339844 105.21953125 -61.82226562 104.1171875 C-60.95118164 102.45042969 -60.95118164 102.45042969 -60.0625 100.75 C-59.48564453 99.62335938 -58.90878906 98.49671875 -58.31445312 97.3359375 C-56.88689725 94.55161364 -55.44845663 91.77349223 -54 89 C-54.99 88.505 -54.99 88.505 -56 88 C-55.01 87.67 -54.02 87.34 -53 87 C-52.34 85.02 -51.68 83.04 -51 81 C-64.2 67.8 -77.4 54.6 -91 41 C-85 34 -85 34 -79 29 C-67.12 40.88 -55.24 52.76 -43 65 C-40.547599 62.547599 -40.75108974 61.85904806 -40.7265625 58.4921875 C-40.7059375 57.58726562 -40.6853125 56.68234375 -40.6640625 55.75 C-40.63834046 53.85685781 -40.61992256 51.96360005 -40.609375 50.0703125 C-40.41709088 42.5071371 -38.87984285 37.24561896 -33.81640625 31.5390625 C-33.07261719 30.90742188 -32.32882813 30.27578125 -31.5625 29.625 C-30.45068359 28.65433594 -30.45068359 28.65433594 -29.31640625 27.6640625 C-25.22891302 24.72768457 -21.70440984 23.74614725 -16.69921875 23.8046875 C-15.37796997 23.81218018 -15.37796997 23.81218018 -14.0300293 23.81982422 C-12.37547729 23.84713623 -12.37547729 23.84713623 -10.6875 23.875 C-5.3971875 23.936875 -5.3971875 23.936875 0 24 C0 16.08 0 8.16 0 0 Z " fill="#E54042" transform="translate(240,256)"/>
<path d="M0 0 C21.12 0 42.24 0 64 0 C64 15.84 64 31.68 64 48 C61.69 48 59.38 48 57 48 C57.85207466 75.26638907 68.64131472 97.41458352 86.75 117.50390625 C88 119 88 119 88 120 C51.37 120 14.74 120 -23 120 C-19.71522458 115.62029944 -16.55340414 111.41251572 -13.0625 107.25 C0.51088508 90.21216997 6.53022729 69.53977242 8 48 C5.36 48 2.72 48 0 48 C0 32.16 0 16.32 0 0 Z " fill="#EFBF33" transform="translate(280,72)"/>
<path d="M0 0 C27.72 0 55.44 0 84 0 C84 33.23636364 84 33.23636364 77.8515625 40.55859375 C77.11679687 41.17863281 76.38203125 41.79867187 75.625 42.4375 C74.89539063 43.07558594 74.16578125 43.71367187 73.4140625 44.37109375 C67.90418299 48.08892507 62.50610346 48.29764471 56.09228516 48.29052734 C54.77888405 48.30060318 54.77888405 48.30060318 53.43894958 48.31088257 C50.55559555 48.32981992 47.67247479 48.33378451 44.7890625 48.3359375 C42.77655951 48.34236801 40.76405744 48.34909656 38.7515564 48.35610962 C34.53682285 48.36807145 30.3221712 48.37179153 26.10742188 48.37060547 C20.71838322 48.37040226 15.32987177 48.39771171 9.94095802 48.43214989 C5.78526416 48.45443381 1.62969692 48.45844256 -2.52605057 48.45738602 C-4.51229292 48.45973944 -6.49853889 48.46854831 -8.48472214 48.48405075 C-11.26801807 48.50374237 -14.0501802 48.49786047 -16.83349609 48.48583984 C-17.64622482 48.49707886 -18.45895355 48.50831787 -19.29631042 48.51989746 C-24.79566307 48.45982835 -29.55711265 47.41772253 -34 44 C-35.22200584 41.86127281 -35.22200584 41.86127281 -36 40 C-35.09121094 39.50693359 -35.09121094 39.50693359 -34.1640625 39.00390625 C-27.28831953 35.10059986 -21.63956147 30.52485853 -16 25 C-15.38382813 24.41992188 -14.76765625 23.83984375 -14.1328125 23.2421875 C-7.46125561 16.3861636 -4.71691443 8.90972726 0 0 Z " fill="#E54042" transform="translate(244,440)"/>
<path d="M0 0 C21.12 0 42.24 0 64 0 C64 15.84 64 31.68 64 48 C42.88 48 21.76 48 0 48 C0 32.16 0 16.32 0 0 Z " fill="#F0DE9C" transform="translate(280,72)"/>
<path d="M0 0 C26.4 0 52.8 0 80 0 C80 10.56 80 21.12 80 32 C53.6 32 27.2 32 0 32 C0 21.44 0 10.88 0 0 Z " fill="#F0DE9C" transform="translate(224,224)"/>
<path d="M0 0 C36.39023193 1.69665068 36.39023193 1.69665068 48.5 14.25 C55.99333814 23.64789491 56.55960726 32.34151533 56 44 C50.56266945 39.47008204 45.53541069 34.65705784 40.5625 29.625 C39.83095703 28.88894531 39.09941406 28.15289062 38.34570312 27.39453125 C36.56147277 25.59863926 34.77963876 23.80044015 33 22 C31.91160226 22.88967344 30.82955392 23.78711574 29.75 24.6875 C29.14671875 25.18636719 28.5434375 25.68523437 27.921875 26.19921875 C25.49546039 28.38691933 25.49546039 28.38691933 22 33 C35.2 46.2 48.4 59.4 62 73 C60 79 60 79 59 80 C57.00217874 80.15825258 54.99911166 80.25119171 52.99609375 80.31640625 C51.78115234 80.35830078 50.56621094 80.40019531 49.31445312 80.44335938 C48.03505859 80.48267578 46.75566406 80.52199219 45.4375 80.5625 C44.15423828 80.60568359 42.87097656 80.64886719 41.54882812 80.69335938 C38.36602555 80.79984719 35.18302757 80.90046421 32 81 C32 72.75 32 64.5 32 56 C29.36 55.67 26.72 55.34 24 55 C14.74085335 51.0917483 8.86998974 44.77910375 4.94091797 35.69555664 C3.1490656 30.5622297 2.49498355 25.24254542 1.75 19.875 C1.57726562 18.73417969 1.40453125 17.59335937 1.2265625 16.41796875 C0.4187168 10.89768977 -0.22641103 5.57941456 0 0 Z " fill="#349B66" transform="translate(128,264)"/>
<path d="M0 0 C4.98592875 4.17777765 9.66704284 8.53127277 14.24609375 13.1484375 C14.90207047 13.80582916 15.55804718 14.46322083 16.23390198 15.14053345 C18.30415268 17.21632862 20.37087651 19.29559427 22.4375 21.375 C23.85067862 22.7932008 25.26408794 24.21117176 26.67773438 25.62890625 C30.12116065 29.08328777 33.56143099 32.5407837 37 36 C38.98018765 33.46496525 40.62365181 30.99454385 42.04296875 28.109375 C42.39423828 27.40039062 42.74550781 26.69140625 43.10742188 25.9609375 C43.46384766 25.23132813 43.82027344 24.50171875 44.1875 23.75 C44.73954102 22.63238281 44.73954102 22.63238281 45.30273438 21.4921875 C46.2054758 19.66325683 47.1032362 17.83186904 48 16 C51.85025879 16.60355408 54.86101159 17.76772603 58.3125 19.5625 C59.63701172 20.24505859 59.63701172 20.24505859 60.98828125 20.94140625 C61.98408203 21.46541016 61.98408203 21.46541016 63 22 C61.38672139 26.25740455 59.41347577 30.30209702 57.3671875 34.36328125 C57.01165802 35.07292526 56.65612854 35.78256927 56.28982544 36.51371765 C55.15343529 38.78092969 54.01428622 41.04674211 52.875 43.3125 C52.13262562 44.79222396 51.39043655 46.27204092 50.6484375 47.75195312 C49.16824982 50.70379861 47.68667793 53.65494384 46.2043457 56.60571289 C44.73751202 59.52718466 43.27523816 62.45086839 41.81713867 65.37670898 C35.09341412 78.86750387 35.09341412 78.86750387 31.5625 85.4375 C31.22541016 86.07236328 30.88832031 86.70722656 30.54101562 87.36132812 C28.12919427 91.87080573 28.12919427 91.87080573 27 93 C24.07848265 93.40765358 21.91530805 93.52725118 19.3046875 92.0234375 C17.140108 90.31896186 15.32571735 88.71748321 14.17407227 86.18066406 C13.92131934 83.01433996 15.07971047 81.16509723 16.52734375 78.359375 C17.07197266 77.28945313 17.61660156 76.21953125 18.17773438 75.1171875 C19.04881836 73.45042969 19.04881836 73.45042969 19.9375 71.75 C20.51435547 70.62335938 21.09121094 69.49671875 21.68554688 68.3359375 C23.11310275 65.55161364 24.55154337 62.77349223 26 60 C25.01 59.505 25.01 59.505 24 59 C24.99 58.67 25.98 58.34 27 58 C27.66 56.02 28.32 54.04 29 52 C15.8 38.8 2.6 25.6 -11 12 C-7.37613 7.77215167 -3.95773294 3.84132903 0 0 Z " fill="#AF7C4C" transform="translate(160,285)"/>
<path d="M0 0 C5.28 0 10.56 0 16 0 C16 31.68 16 63.36 16 96 C10.72 96 5.44 96 0 96 C0 64.32 0 32.64 0 0 Z " fill="#008251" transform="translate(240,96)"/>
<path d="M0 0 C5.16040633 -0.09205878 10.317941 -0.17162277 15.47851562 -0.21972656 C17.23219479 -0.2397871 18.98580753 -0.26704251 20.73925781 -0.30175781 C23.26644318 -0.35052302 25.79274091 -0.37302392 28.3203125 -0.390625 C29.09867462 -0.41127014 29.87703674 -0.43191528 30.6789856 -0.45318604 C35.92792146 -0.45532814 38.81287021 0.56952362 43 4 C46.89754428 8.21356139 47.83512845 10.77423412 48.25 16.375 C47.93198404 20.98623139 46.87486443 24.14513413 43.53515625 27.44921875 C38.42209961 31.81219373 35.23113901 32.13977429 28.7109375 32.09765625 C27.48330185 32.09553383 27.48330185 32.09553383 26.23086548 32.09336853 C23.61220675 32.0877629 20.99363296 32.07520948 18.375 32.0625 C16.60156373 32.05748572 14.82812613 32.05292269 13.0546875 32.04882812 C8.70306581 32.03864174 4.35162818 32.0190675 0 32 C0 21.44 0 10.88 0 0 Z " fill="#EFDD9B" transform="translate(368,128)"/>
<path d="M0 0 C4.30495015 -0.09935088 8.60928183 -0.17169268 12.91503906 -0.21972656 C14.37772252 -0.23976332 15.84032666 -0.26700104 17.30273438 -0.30175781 C19.4129601 -0.35063225 21.52212136 -0.37304659 23.6328125 -0.390625 C24.90012207 -0.41157227 26.16743164 -0.43251953 27.47314453 -0.45410156 C32.74756381 0.22500822 35.76678766 2.66679747 39.3125 6.5 C42.32620645 10.96475029 42.74144654 15.66570409 42 21 C39.42710499 25.95520521 36.01766074 29.49116963 31 32 C28.22839374 32.08683445 25.48225235 32.1155579 22.7109375 32.09765625 C21.48330185 32.09553383 21.48330185 32.09553383 20.23086548 32.09336853 C17.61220675 32.0877629 14.99363296 32.07520948 12.375 32.0625 C10.60156373 32.05748572 8.82812613 32.05292269 7.0546875 32.04882812 C2.70309218 32.03779164 -1.6484395 32.02052325 -6 32 C-6.24318878 18.19356805 -6.24318878 18.19356805 -4.6875 12.625 C-4.44386719 11.70976563 -4.20023437 10.79453125 -3.94921875 9.8515625 C-2.82157399 6.4639877 -1.44579888 3.26418458 0 0 Z " fill="#EFDC9A" transform="translate(374,64)"/>
<path d="M0 0 C4.96562741 4.16792827 9.6589933 8.4992567 14.24609375 13.078125 C14.90207047 13.73077332 15.55804718 14.38342163 16.23390198 15.05584717 C17.60572364 16.42264399 18.97622833 17.79076381 20.34545898 19.16015625 C22.45082159 21.26330759 24.56408709 23.35830373 26.67773438 25.453125 C28.01350874 26.78596953 29.34881258 28.11928583 30.68359375 29.453125 C31.31784775 30.08019348 31.95210175 30.70726196 32.60557556 31.35333252 C37 35.77114683 37 35.77114683 37 38 C37.5775 38.2475 38.155 38.495 38.75 38.75 C41.3002997 40.16683317 43.01785701 41.87627537 45 44 C43.52278578 47.45201639 41.56205999 49.64961936 38.875 52.25 C38.15054688 52.95640625 37.42609375 53.6628125 36.6796875 54.390625 C36.12539062 54.92171875 35.57109375 55.4528125 35 56 C31.55323 54.51657 29.32656699 52.56949812 26.69042969 49.91748047 C25.84986023 49.07675995 25.00929077 48.23603943 24.14324951 47.36984253 C23.24519592 46.46146637 22.34714233 45.55309021 21.421875 44.6171875 C20.4953009 43.68778351 19.56872681 42.75837952 18.61407471 41.80081177 C16.15684211 39.3359615 13.70567639 36.86516334 11.2557373 34.39306641 C8.75226191 31.86909235 6.24307937 29.35080612 3.734375 26.83203125 C-1.18267525 21.89356403 -6.09333788 16.948788 -11 12 C-10.06122074 10.8934059 -9.12079084 9.78821201 -8.1796875 8.68359375 C-7.39440674 7.76018188 -7.39440674 7.76018188 -6.59326172 6.81811523 C-4.4984209 4.42763415 -2.28027529 2.21320837 0 0 Z " fill="#966443" transform="translate(160,285)"/>
<path d="M0 0 C9.25193177 2.84674824 18.39252318 6.87882667 24 15 C26.73247348 16.36623674 28.98198902 16.128426 32 16 C32.33 15.67 32.66 15.34 33 15 C39.24666993 14.35684222 43.1142204 16.11675982 48.4375 19 C49.16904297 19.3815625 49.90058594 19.763125 50.65429688 20.15625 C52.44289665 21.09146557 54.22242596 22.04399379 56 23 C55.39644592 26.85025879 54.23227397 29.86101159 52.4375 33.3125 C51.98246094 34.19550781 51.52742188 35.07851563 51.05859375 35.98828125 C50.70925781 36.65214844 50.35992187 37.31601562 50 38 C46.88284597 37.03516661 44.20447943 36.12966988 41.4375 34.375 C37.76044163 32.90417665 35.60383135 32.89981478 31.6875 33 C22.12067228 33.18481372 16.51532527 31.04020712 9.43359375 24.62109375 C8 23 8 23 8 21 C7.175 20.7525 6.35 20.505 5.5 20.25 C1.47626529 18.81295189 -2.21979024 16.97645485 -6 15 C-5.39644592 11.14974121 -4.23227397 8.13898841 -2.4375 4.6875 C-1.98246094 3.80449219 -1.52742187 2.92148437 -1.05859375 2.01171875 C-0.53458984 1.01591797 -0.53458984 1.01591797 0 0 Z " fill="#E3792D" transform="translate(155,361)"/>
<path d="M0 0 C0 2.31 0 4.62 0 7 C0.66 7.33 1.32 7.66 2 8 C0.824375 8.495 -0.35125 8.99 -1.5625 9.5 C-7.21281535 12.32013963 -11.39254353 16.72078881 -14.171875 22.390625 C-16.07805857 28.39690152 -16.06438687 35.50291558 -13.5 41.3125 C-10.2128984 46.8761808 -5.28080289 51.61568496 1 53.4375 C2.485 53.7159375 2.485 53.7159375 4 54 C4 54.66 4 55.32 4 56 C3.01 56.185625 2.02 56.37125 1 56.5625 C-5.28080289 58.38431504 -10.2128984 63.1238192 -13.5 68.6875 C-16.04995687 74.55012406 -16.03706477 81.18230533 -14.375 87.30078125 C-11.58944507 93.70507049 -6.22749958 98.45348979 0 101.4375 C0.99 101.7159375 0.99 101.7159375 2 102 C2 102.33 2 102.66 2 103 C-12.05424739 104.20178838 -12.05424739 104.20178838 -16.2578125 101.60546875 C-17.91288402 99.47813861 -18.95309017 97.48345903 -20 95 C-20.40476563 94.15566406 -20.80953125 93.31132812 -21.2265625 92.44140625 C-24.22690191 85.40999858 -26.05194243 77.58360805 -23.32763672 70.17041016 C-21.48753393 65.96399785 -19.271788 61.98847847 -17 58 C-16.32300444 56.67188132 -15.650842 55.34112897 -15 54 C-15.39832031 53.443125 -15.79664063 52.88625 -16.20703125 52.3125 C-22.57007448 43.14724065 -25.7591291 35.40270011 -24 24 C-20.03955889 12.81963969 -14.4135309 5.84229588 -3.69921875 0.6640625 C-2 0 -2 0 0 0 Z " fill="#018251" transform="translate(216,89)"/>
<path d="M0 0 C8.63766633 -1.68781986 8.63766633 -1.68781986 13 0 C19.46629392 4.72324206 24.7727975 10.97651372 30 17 C28.125 22.875 28.125 22.875 27 24 C25.00217874 24.15825258 22.99911166 24.25119171 20.99609375 24.31640625 C19.78115234 24.35830078 18.56621094 24.40019531 17.31445312 24.44335938 C16.03505859 24.48267578 14.75566406 24.52199219 13.4375 24.5625 C12.15423828 24.60568359 10.87097656 24.64886719 9.54882812 24.69335938 C6.36602555 24.79984719 3.18302757 24.90046421 0 25 C0 16.75 0 8.5 0 0 Z " fill="#8CCDE8" transform="translate(160,320)"/>
<path d="M0 0 C7.92 0 15.84 0 24 0 C24 5.28 24 10.56 24 16 C16.08 16 8.16 16 0 16 C0 10.72 0 5.44 0 0 Z " fill="#D3393B" transform="translate(264,264)"/>
<path d="M0 0 C5.28 0 10.56 0 16 0 C16 5.28 16 10.56 16 16 C10.72 16 5.44 16 0 16 C0 10.72 0 5.44 0 0 Z " fill="#68BA40" transform="translate(80,440)"/>
<path d="M0 0 C5.28 0 10.56 0 16 0 C16 5.28 16 10.56 16 16 C10.72 16 5.44 16 0 16 C0 10.72 0 5.44 0 0 Z " fill="#68BA40" transform="translate(112,424)"/>
<path d="M0 0 C5.28 0 10.56 0 16 0 C16 5.28 16 10.56 16 16 C10.72 16 5.44 16 0 16 C0 10.72 0 5.44 0 0 Z " fill="#68BA40" transform="translate(64,408)"/>
<path d="M0 0 C0.96679688 0.62261719 0.96679688 0.62261719 1.953125 1.2578125 C2.65953125 1.61101562 3.3659375 1.96421875 4.09375 2.328125 C6.046875 3.3046875 8 4.28125 9.953125 5.2578125 C9.953125 5.5878125 9.953125 5.9178125 9.953125 6.2578125 C-0.606875 6.2578125 -11.166875 6.2578125 -22.046875 6.2578125 C-22.046875 5.9278125 -22.046875 5.5978125 -22.046875 5.2578125 C-20.50966797 4.85949219 -20.50966797 4.85949219 -18.94140625 4.453125 C-17.58068511 4.09652222 -16.22001047 3.73974199 -14.859375 3.3828125 C-14.18583984 3.20878906 -13.51230469 3.03476562 -12.81835938 2.85546875 C-9.86198825 2.07671733 -7.09140568 1.27826739 -4.30859375 0 C-2.046875 -0.7421875 -2.046875 -0.7421875 0 0 Z " fill="#90C9DF" transform="translate(208.046875,481.7421875)"/>
</svg>
