<?xml version="1.0" encoding="UTF-8"?>
<svg version="1.1" xmlns="http://www.w3.org/2000/svg" width="512" height="512">
<path d="M0 0 C1.43368423 -0.00503792 1.43368423 -0.00503792 2.89633179 -0.01017761 C6.03148731 -0.01961526 9.166589 -0.02162713 12.30175781 -0.02270508 C14.49977642 -0.02592277 16.69779482 -0.02928722 18.89581299 -0.03279114 C23.49532568 -0.03876454 28.09481964 -0.04063289 32.69433594 -0.04003906 C38.55905451 -0.03993757 44.42365167 -0.0535844 50.28834152 -0.07081127 C54.82680808 -0.08198472 59.36524578 -0.08395663 63.90372467 -0.08342934 C66.06444975 -0.08460161 68.22517576 -0.08898061 70.38588715 -0.0967617 C95.7574266 -0.1795745 118.38246687 2.87856575 137.34082031 21.43823242 C151.00488281 35.32268303 151.00488281 35.32268303 151.00488281 41.14526367 C151.98650391 40.82219238 152.968125 40.49912109 153.97949219 40.16625977 C160.97365911 38.43262853 168.25060525 38.81609396 175.41113281 38.80932617 C177.02046828 38.80288466 178.62980261 38.79615534 180.23913574 38.78915405 C183.60801907 38.77721422 186.97680015 38.77346945 190.34570312 38.7746582 C194.61743674 38.77486036 198.88849732 38.74765141 203.16007233 38.71311378 C206.48570633 38.69062821 209.81118445 38.68682732 213.1368866 38.68787766 C214.70902304 38.6855505 216.28116576 38.67689439 217.85322571 38.66121292 C240.05172751 38.46063578 259.20943961 44.86553797 275.51269531 60.55932617 C288.89059755 74.84420484 296.31482193 91.88334898 296.29541016 111.44750977 C296.30548599 112.92990395 296.30548599 112.92990395 296.31576538 114.44224548 C296.33464477 117.68444959 296.33866425 120.92644564 296.34082031 124.16870117 C296.34725436 126.43877241 296.35398317 128.70884282 296.36099243 130.97891235 C296.37293943 135.72806724 296.37667582 140.47714952 296.37548828 145.22631836 C296.37528505 151.29091562 296.40260394 157.35504454 296.4370327 163.41953087 C296.45934272 168.10548005 296.46332458 172.79131715 296.46226883 177.477314 C296.46461795 179.71227255 296.47340233 181.94723452 296.48893356 184.18214035 C296.58638864 199.65133704 295.84793365 211.54807452 286.00488281 224.14526367 C285.52664063 224.76143555 285.04839844 225.37760742 284.55566406 226.01245117 C276.08813019 235.61041148 264.25269389 238.83373946 252.00488281 240.14526367 C246.14315724 240.41634335 240.29252185 240.41619506 234.42564392 240.39923096 C232.67405985 240.40153933 230.92247674 240.40471837 229.17089564 240.40868545 C224.38914056 240.41699022 219.60746591 240.41292792 214.82571065 240.40671301 C209.65660344 240.4021718 204.48750966 240.40918051 199.31840515 240.41467285 C189.20481513 240.42355053 179.09125486 240.42165214 168.97766369 240.41584757 C160.75629666 240.41132494 152.53493794 240.41072078 144.31357002 240.4128952 C143.1420429 240.41320167 141.97051578 240.41350813 140.76348783 240.41382389 C138.38332855 240.41446336 136.00316927 240.41511178 133.62300999 240.41576907 C111.3221119 240.42146754 89.02123028 240.41492192 66.72033489 240.40416834 C47.59634458 240.3952321 28.47237855 240.39678641 9.34838867 240.40600586 C-12.87601049 240.416715 -35.10039524 240.42091949 -57.32479662 240.41478133 C-59.6957378 240.41414425 -62.06667898 240.41351551 -64.43762016 240.4128952 C-65.60407953 240.41258665 -66.7705389 240.4122781 -67.97234552 240.4119602 C-76.18177841 240.41023528 -84.39120215 240.41314396 -92.60063362 240.41785431 C-102.60802196 240.42347024 -112.61537894 240.42193164 -122.6227637 240.41129282 C-127.72600472 240.40604591 -132.82919348 240.40396268 -137.93243408 240.41059113 C-142.6085985 240.41657289 -147.28466249 240.41323883 -151.96081787 240.40263602 C-153.64771003 240.40041144 -155.33461077 240.401517 -157.02149738 240.4063876 C-175.58540276 240.45585468 -191.23507068 238.74262179 -204.97167969 225.19604492 C-213.42765146 216.03840741 -216.29779802 206.39458878 -216.28564453 194.13354492 C-216.29236176 193.15199936 -216.29907898 192.1704538 -216.30599976 191.15916443 C-216.3249408 187.92531211 -216.32890275 184.69166797 -216.33105469 181.45776367 C-216.33748791 179.19441647 -216.34421666 176.9310701 -216.35122681 174.66772461 C-216.36319175 169.92340165 -216.36690869 165.17915143 -216.36572266 160.43481445 C-216.36552012 154.39072993 -216.39275887 148.34711903 -216.42726707 142.30314636 C-216.44964358 137.62560945 -216.45355683 132.94818429 -216.4525032 128.27059937 C-216.45484545 126.04452898 -216.46359022 123.81845486 -216.47916794 121.59243774 C-216.63729108 96.65142701 -211.12076386 77.42386345 -193.84277344 58.82885742 C-185.09764137 50.50713957 -173.57345165 44.41634558 -161.99511719 41.14526367 C-160.20050049 40.63406982 -160.20050049 40.63406982 -158.36962891 40.11254883 C-151.09347282 38.52174375 -143.61886567 38.85789637 -136.20996094 38.87963867 C-134.58289024 38.87828887 -132.95581994 38.87634572 -131.32875061 38.87384033 C-127.93226246 38.87090474 -124.53588008 38.87513663 -121.1394043 38.88452148 C-116.80320552 38.89592423 -112.46725417 38.88934142 -108.13106441 38.87737656 C-104.77574322 38.87012332 -101.42047995 38.87246159 -98.06515694 38.87763214 C-96.46689385 38.8789586 -94.86862536 38.87735644 -93.27036858 38.87267303 C-91.03126103 38.86754943 -88.79254542 38.87539849 -86.5534668 38.88647461 C-84.64892982 38.88886139 -84.64892982 38.88886139 -82.70591736 38.89129639 C-78.55390109 39.17546052 -74.99667235 40.02925584 -70.99511719 41.14526367 C-70.57552734 40.03538086 -70.57552734 40.03538086 -70.14746094 38.90307617 C-63.42261014 22.80902646 -48.26598631 11.92566853 -32.75292969 5.20776367 C-21.97790194 1.05647819 -11.45621604 -0.00588444 0 0 Z " fill="#16DBF9" transform="translate(215.9951171875,233.854736328125)"/>
<path d="M0 0 C74.58556695 0 74.58556695 0 96.3359375 21.29296875 C110 35.17741935 110 35.17741935 110 41 C110.98162109 40.67692871 111.96324219 40.35385742 112.97460938 40.02099609 C119.9687763 38.28736485 127.24572244 38.67083029 134.40625 38.6640625 C136.01558547 38.65762099 137.6249198 38.65089167 139.23425293 38.64389038 C142.60313625 38.63195055 145.97191734 38.62820578 149.34082031 38.62939453 C153.61255392 38.62959669 157.88361451 38.60238773 162.15518951 38.56785011 C165.48082351 38.54536454 168.80630163 38.54156365 172.13200378 38.54261398 C173.70414022 38.54028683 175.27628294 38.53163072 176.8483429 38.51594925 C199.0468447 38.31537211 218.2045568 44.7202743 234.5078125 60.4140625 C247.88571474 74.69894116 255.30993912 91.7380853 255.29052734 111.30224609 C255.29724457 112.29050888 255.30396179 113.27877167 255.31088257 114.29698181 C255.32976195 117.53918591 255.33378144 120.78118197 255.3359375 124.0234375 C255.34237155 126.29350873 255.34910036 128.56357915 255.35610962 130.83364868 C255.36805662 135.58280357 255.37179301 140.33188584 255.37060547 145.08105469 C255.37040223 151.14565195 255.39772113 157.20978087 255.43214989 163.2742672 C255.45445991 167.96021638 255.45844177 172.64605348 255.45738602 177.33205032 C255.45973514 179.56700888 255.46851952 181.80197085 255.48405075 184.03687668 C255.58150583 199.50607336 254.84305084 211.40281085 245 224 C244.52175781 224.61617187 244.04351562 225.23234375 243.55078125 225.8671875 C235.19978611 235.33305101 223.17516405 238.95637516 211 240 C203.57732828 240.35550126 196.13977082 240.25730941 188.7109375 240.23046875 C186.45561754 240.22926746 184.20029707 240.22882577 181.94497681 240.2290802 C177.16527235 240.22751406 172.38564257 240.21926367 167.60595703 240.20581055 C160.69691015 240.18650055 153.78798069 240.18529613 146.87890625 240.18554688 C97.91336124 240.12479558 48.96745187 239.49462073 0 239 C0 160.13 0 81.26 0 0 Z " fill="#3593C6" transform="translate(257,234)"/>
<path d="M0 0 C1.60933547 -0.00644151 3.2186698 -0.01317083 4.82800293 -0.02017212 C8.19688625 -0.03211195 11.56566734 -0.03585672 14.93457031 -0.03466797 C19.20630392 -0.03446581 23.47736451 -0.06167477 27.74893951 -0.09621239 C31.07457351 -0.11869796 34.40005163 -0.12249885 37.72575378 -0.12144852 C39.29789022 -0.12377567 40.87003294 -0.13243178 42.4420929 -0.14811325 C64.6405947 -0.34869039 83.7983068 6.0562118 100.1015625 21.75 C113.47946474 36.03487866 120.90368912 53.0740228 120.88427734 72.63818359 C120.89099457 73.62644638 120.89771179 74.61470917 120.90463257 75.63291931 C120.92351195 78.87512341 120.92753144 82.11711947 120.9296875 85.359375 C120.93612155 87.62944623 120.94285036 89.89951665 120.94985962 92.16958618 C120.96180662 96.91874107 120.96554301 101.66782334 120.96435547 106.41699219 C120.96415223 112.48158945 120.99147113 118.54571837 121.02589989 124.6102047 C121.04820991 129.29615388 121.05219177 133.98199098 121.05113602 138.66798782 C121.05348514 140.90294638 121.06226952 143.13790835 121.07780075 145.37281418 C121.17525583 160.84201086 120.43680084 172.73874835 110.59375 185.3359375 C110.11550781 185.95210937 109.63726562 186.56828125 109.14453125 187.203125 C100.82306975 196.6355121 88.74997727 200.37159214 76.59375 201.3359375 C68.01057239 201.6905523 59.41249623 201.56921236 50.82421875 201.53125 C48.33173232 201.52751421 45.83924441 201.52466991 43.34675598 201.52267456 C36.8251837 201.51508268 30.30370223 201.49547286 23.78216553 201.4732666 C17.11195643 201.45161165 10.44171885 201.44365235 3.77148438 201.43359375 C-9.28779888 201.41222238 -22.34701958 201.37853187 -35.40625 201.3359375 C-35.40625 201.0059375 -35.40625 200.6759375 -35.40625 200.3359375 C-34.74238281 200.22636719 -34.07851563 200.11679687 -33.39453125 200.00390625 C-25.0166146 198.59136049 -25.0166146 198.59136049 -18.80157375 193.15324211 C-17.10759227 189.73291631 -17.02633271 187.38179406 -17.01856995 183.57156372 C-17.01318441 182.90408894 -17.00779887 182.23661417 -17.00225013 181.54891288 C-16.9879779 179.31904045 -16.99507241 177.08976231 -17.00219727 174.85986328 C-16.9964928 173.25786361 -16.98952824 171.65586799 -16.98139954 170.05387878 C-16.96344834 165.70407433 -16.96464177 161.35447144 -16.97034192 157.00464106 C-16.97343506 153.36478347 -16.96733898 149.72496453 -16.96130317 146.08511245 C-16.94724925 137.48574539 -16.94882267 128.88647761 -16.96020508 120.28710938 C-16.97165013 111.44568906 -16.95767371 102.60457336 -16.9308086 93.76319325 C-16.90856045 86.15355753 -16.90203574 78.54401675 -16.90788502 70.93435085 C-16.91123859 66.39828961 -16.90894862 61.86242292 -16.89163399 57.32638931 C-16.87602426 53.04988033 -16.88027362 48.77381628 -16.89893913 44.49732399 C-16.90258854 42.93944056 -16.89962498 41.38152317 -16.88905334 39.82367134 C-16.80527087 26.44040476 -19.32080182 14.79528553 -24.40625 2.3359375 C-16.42374791 -0.29126484 -8.30998641 0.0078542 0 0 Z " fill="#FF504A" transform="translate(391.40625,272.6640625)"/>
<path d="M0 0 C1.62946633 -0.00134968 3.25893226 -0.00329273 4.88839722 -0.00579834 C8.28908149 -0.00873368 11.68966012 -0.00450232 15.09033203 0.00488281 C19.43559711 0.01629466 23.78061554 0.00969686 28.12587166 -0.00226212 C31.48544149 -0.00950828 34.84495336 -0.00718046 38.20452499 -0.00200653 C39.80640569 -0.0006786 41.40829175 -0.00228752 43.01016617 -0.00696564 C45.25187271 -0.01207849 47.49318584 -0.00425532 49.73486328 0.00683594 C51.00677521 0.00842712 52.27868713 0.01001831 53.58914185 0.01165771 C57.44735355 0.28455762 60.51607688 1.07791089 64.1796875 2.265625 C63.32525066 7.11633415 61.74467057 11.59333868 60.1171875 16.23046875 C58.47065199 21.56112745 58.05308136 26.60969497 58.03924561 32.17285156 C58.03627448 32.8434473 58.03330336 33.51404305 58.0302422 34.20495987 C58.02161145 36.43873612 58.02005179 38.67245843 58.01855469 40.90625 C58.01392272 42.51314405 58.00889755 44.12003701 58.00350952 45.72692871 C57.99042456 50.08220887 57.98394882 54.43747365 57.97949886 58.79277039 C57.9765633 61.5148845 57.9724577 64.23699444 57.96799469 66.95910645 C57.9543333 75.47964838 57.94465863 84.00018075 57.9407928 92.52073288 C57.93630791 102.35072128 57.91873436 112.18057092 57.8897922 122.01051712 C57.86818048 129.61491811 57.85808888 137.21928002 57.85675168 144.8237114 C57.85570377 149.36336358 57.84979835 153.90288507 57.83193207 158.44250488 C57.81545902 162.71070695 57.8132921 166.97867994 57.82207108 171.24690247 C57.82284172 172.81179925 57.81849508 174.37670833 57.80861282 175.9415741 C57.79589704 178.08078798 57.80176718 180.21918986 57.81219482 182.35839844 C57.81072826 183.55446716 57.8092617 184.75053589 57.8077507 185.98284912 C58.31711679 190.47859875 59.77044998 193.87746582 63.0078125 197.06640625 C65.64875021 198.52462186 67.95349752 198.99252417 70.9296875 199.453125 C71.91453125 199.61167969 72.899375 199.77023437 73.9140625 199.93359375 C74.66171875 200.04316406 75.409375 200.15273438 76.1796875 200.265625 C76.1796875 200.595625 76.1796875 200.925625 76.1796875 201.265625 C61.78396583 201.31250206 47.38825613 201.34755711 32.9924736 201.36924934 C26.30712887 201.37952896 19.62183878 201.39377867 12.93652344 201.41650391 C6.47854357 201.43831769 0.02061306 201.45021161 -6.43740082 201.45537949 C-8.89481126 201.45905995 -11.35221916 201.46624679 -13.80960846 201.47708511 C-17.26538318 201.49171345 -20.72095686 201.49359821 -24.17675781 201.49267578 C-25.18089722 201.49986633 -26.18503662 201.50705688 -27.21960449 201.51446533 C-43.56995629 201.46758519 -56.97994261 197.96986329 -68.796875 186.31640625 C-77.25284677 177.15876874 -80.12299333 167.51495011 -80.11083984 155.25390625 C-80.11755707 154.27236069 -80.12427429 153.29081512 -80.13119507 152.27952576 C-80.15013612 149.04567343 -80.15409806 145.8120293 -80.15625 142.578125 C-80.16268323 140.3147778 -80.16941198 138.05143142 -80.17642212 135.78808594 C-80.18838706 131.04376298 -80.192104 126.29951276 -80.19091797 121.55517578 C-80.19071543 115.51109126 -80.21795418 109.46748035 -80.25246239 103.42350769 C-80.27483889 98.74597078 -80.27875214 94.06854562 -80.27769852 89.39096069 C-80.28004076 87.16489031 -80.28878553 84.93881618 -80.30436325 82.71279907 C-80.46248639 57.77178834 -74.94595917 38.54422478 -57.66796875 19.94921875 C-48.92283668 11.6275009 -37.39864696 5.5367069 -25.8203125 2.265625 C-24.62462646 1.9248291 -23.42894043 1.5840332 -22.19702148 1.23291016 C-14.90938518 -0.36042485 -7.42064401 -0.02173472 0 0 Z " fill="#7DFE75" transform="translate(79.8203125,272.734375)"/>
<path d="M0 0 C18.09701821 18.70025215 24.82539256 42.31270654 24.51953125 67.78515625 C24.02265216 86.78544685 16.93670336 103.79551892 5.3125 118.625 C4.68730469 119.43324219 4.06210937 120.24148437 3.41796875 121.07421875 C-10.76631637 138.18494586 -32.71526092 149.26059601 -54.6875 151.625 C-80.91254123 153.10250848 -104.933249 146.30785279 -125.05664062 129.04882812 C-133.23005273 121.68167122 -139.96913776 112.55923886 -144.6875 102.625 C-145.19023437 101.58988281 -145.69296875 100.55476563 -146.2109375 99.48828125 C-156.35830018 77.38683035 -156.44337795 53.0566222 -148.51953125 30.265625 C-139.44883197 7.13387409 -122.1624345 -10.14780856 -99.6875 -20.25 C-92.54291021 -23.31454664 -85.38545535 -25.20836476 -77.6875 -26.375 C-76.75164062 -26.52839844 -75.81578125 -26.68179688 -74.8515625 -26.83984375 C-46.58210438 -30.36362775 -20.142146 -19.261985 0 0 Z " fill="#16DBF9" transform="translate(320.6875,65.375)"/>
<path d="M0 0 C18.80490463 -0.72085468 35.13798828 6.14564906 49.25 18.21875 C61.41106893 29.56769275 69.08256924 45.50708593 70.08203125 62.12109375 C70.58112393 81.86323058 65.47104687 98.33864111 52.34765625 113.59375 C39.27421642 126.99351594 22.17995605 134.29602013 3.53125 134.59765625 C-14.69389143 134.44811873 -31.57256674 127.83263643 -44.53515625 114.9140625 C-57.66855059 101.11519065 -64.71075581 84.25572264 -64.359375 65.10546875 C-63.22516326 48.65939855 -57.55843844 33.34461541 -46.15625 21.16015625 C-45.46402344 20.41507813 -44.77179688 19.67 -44.05859375 18.90234375 C-32.3252163 7.34526079 -16.23354788 1.20575265 0 0 Z " fill="#FF504A" transform="translate(409.15625,120.83984375)"/>
<path d="M0 0 C1.32975713 1.1257603 2.64380368 2.27047811 3.9375 3.4375 C4.535625 3.94410156 5.13375 4.45070312 5.75 4.97265625 C17.53992717 15.68359455 24.11568887 32.28547311 25.17578125 47.9609375 C25.55424354 67.60113833 19.79292618 85.94882766 5.9375 100.4375 C-7.37119481 113.38650035 -25.13327394 120.00456883 -43.54785156 119.85766602 C-62.64333243 119.18791192 -78.98136515 111.18146433 -92.0625 97.4375 C-104.32260273 84.03159328 -109.54113418 67.30472997 -109.33203125 49.37890625 C-108.02561614 30.27495203 -100.00582611 14.40165995 -86.0625 1.4375 C-60.97923995 -19.7562672 -25.79661711 -19.36932438 0 0 Z " fill="#2FD163" transform="translate(142.0625,135.5625)"/>
<path d="M0 0 C29.34655229 3.08911077 51.79850253 11.10201052 70.8359375 34.23046875 C86.27109193 55.07840358 91.6690485 79.62392891 88.57421875 105.24609375 C85.90273229 120.47192762 79.48064673 133.90514353 70 146 C69.37480469 146.80824219 68.74960937 147.61648437 68.10546875 148.44921875 C53.97722731 165.49233948 31.93221527 176.754784 10 179 C6.7 179 3.4 179 0 179 C0 119.93 0 60.86 0 0 Z " fill="#3594C7" transform="translate(256,38)"/>
<path d="M0 0 C0 66.33 0 132.66 0 201 C-18.48 201 -36.96 201 -56 201 C-56 200.67 -56 200.34 -56 200 C-55.33613281 199.89042969 -54.67226563 199.78085937 -53.98828125 199.66796875 C-45.6103646 198.25542299 -45.6103646 198.25542299 -39.39532375 192.81730461 C-37.70134227 189.39697881 -37.62008271 187.04585656 -37.61231995 183.23562622 C-37.60693441 182.56815144 -37.60154887 181.90067667 -37.59600013 181.21297538 C-37.5817279 178.98310295 -37.58882241 176.75382481 -37.59594727 174.52392578 C-37.5902428 172.92192611 -37.58327824 171.31993049 -37.57514954 169.71794128 C-37.55719834 165.36813683 -37.55839177 161.01853394 -37.56409192 156.66870356 C-37.56718506 153.02884597 -37.56108898 149.38902703 -37.55505317 145.74917495 C-37.54099925 137.14980789 -37.54257267 128.55054011 -37.55395508 119.95117188 C-37.56540013 111.10975156 -37.55142371 102.26863586 -37.5245586 93.42725575 C-37.50231045 85.81762003 -37.49578574 78.20807925 -37.50163502 70.59841335 C-37.50498859 66.06235211 -37.50269862 61.52648542 -37.48538399 56.99045181 C-37.46977426 52.71394283 -37.47402362 48.43787878 -37.49268913 44.16138649 C-37.49633854 42.60350306 -37.49337498 41.04558567 -37.48280334 39.48773384 C-37.39902087 26.10446726 -39.91455182 14.45934803 -45 2 C-30.43349711 -1.64162572 -15.01480751 0 0 0 Z " fill="#FE7859" transform="translate(412,273)"/>
<path d="M0 0 C37 0 37 0 44 2 C43.14556316 6.85070915 41.56498307 11.32771368 39.9375 15.96484375 C38.29096449 21.29550245 37.87339386 26.34406997 37.85955811 31.90722656 C37.85658698 32.5778223 37.85361586 33.24841805 37.8505547 33.93933487 C37.84192395 36.17311112 37.84036429 38.40683343 37.83886719 40.640625 C37.83423522 42.24751905 37.82921005 43.85441201 37.82382202 45.46130371 C37.81073706 49.81658387 37.80426132 54.17184865 37.79981136 58.52714539 C37.7968758 61.2492595 37.7927702 63.97136944 37.78830719 66.69348145 C37.7746458 75.21402338 37.76497113 83.73455575 37.7611053 92.25510788 C37.75662041 102.08509628 37.73904686 111.91494592 37.7101047 121.74489212 C37.68849298 129.34929311 37.67840138 136.95365502 37.67706418 144.5580864 C37.67601627 149.09773858 37.67011085 153.63726007 37.65224457 158.17687988 C37.63577152 162.44508195 37.6336046 166.71305494 37.64238358 170.98127747 C37.64315422 172.54617425 37.63880758 174.11108333 37.62892532 175.6759491 C37.61620954 177.81516298 37.62207968 179.95356486 37.63250732 182.09277344 C37.63104076 183.28884216 37.6295742 184.48491089 37.6280632 185.71722412 C38.13742929 190.21297375 39.59076248 193.61184082 42.828125 196.80078125 C45.46906271 198.25899686 47.77381002 198.72689917 50.75 199.1875 C51.73484375 199.34605469 52.7196875 199.50460937 53.734375 199.66796875 C54.48203125 199.77753906 55.2296875 199.88710938 56 200 C56 200.33 56 200.66 56 201 C37.52 201 19.04 201 0 201 C0 134.67 0 68.34 0 0 Z " fill="#2FD163" transform="translate(100,273)"/>
<path d="M0 0 C0 44.22 0 88.44 0 134 C-18.15379579 134 -34.4751307 127.61386592 -47.37890625 114.75390625 C-60.99597446 100.44685247 -67.49957092 83.66207974 -67.26953125 63.94140625 C-65.96311614 44.83745203 -57.94332611 28.96415995 -44 16 C-31.57537189 5.50197562 -16.20423723 0 0 0 Z " fill="#7DFE75" transform="translate(100,121)"/>
<path d="M0 0 C0 43.89 0 87.78 0 133 C-18.15379579 133 -34.4751307 126.61386592 -47.37890625 113.75390625 C-60.51230059 99.9550344 -67.55450581 83.09556639 -67.203125 63.9453125 C-66.06891326 47.4992423 -60.40218844 32.18445916 -49 20 C-48.30777344 19.25492188 -47.61554688 18.50984375 -46.90234375 17.7421875 C-33.90866809 4.94374236 -17.86697954 0 0 0 Z " fill="#FF7858" transform="translate(412,122)"/>
<path d="M0 0 C0.66 0.33 1.32 0.66 2 1 C-3.28 6.28 -8.56 11.56 -14 17 C-14 12.95607032 -12.51908749 11.99868382 -9.8125 9.0625 C-9.03519531 8.20785156 -8.25789063 7.35320312 -7.45703125 6.47265625 C-5.09786332 4.09848566 -2.65532732 2.0327639 0 0 Z " fill="#6AF371" transform="translate(29,287)"/>
</svg>
