<?xml version="1.0" encoding="UTF-8"?>
<svg version="1.1" xmlns="http://www.w3.org/2000/svg" width="512" height="512">
<path d="M0 0 C6.56106012 5.35485894 12.6535434 11.1783085 18.50390625 17.30078125 C19.49648438 16.90246094 20.4890625 16.50414062 21.51171875 16.09375 C47.72140304 5.76221275 75.58687107 4.47133127 101.81640625 15.55078125 C125.46184807 26.20128585 143.57193061 45.61819727 153.18359375 69.62109375 C162.08407864 94.42658714 161.17000735 121.59830631 150.34887695 145.62255859 C138.82458558 169.83173087 118.37602392 187.02543096 93.50390625 196.30078125 C89.55429449 197.55556196 86.66509187 198.30078125 82.50390625 198.30078125 C82.33095582 199.5747259 82.33095582 199.5747259 82.15451145 200.87440681 C80.97558362 209.36424678 79.56753749 217.77982321 77.99780273 226.20654297 C77.49407336 228.93736494 76.99266496 231.66861164 76.49131775 234.39987183 C76.29520238 235.46646581 76.29520238 235.46646581 76.09512508 236.55460715 C74.22186227 246.76019187 72.41972436 256.97858232 70.61266994 267.19605827 C69.15892564 275.40463686 67.6836683 283.60807384 66.15063477 291.80224609 C64.79757138 299.0350602 63.4959509 306.27545556 62.24247795 313.526209 C61.58655722 317.31147247 60.91446541 321.09072068 60.17840385 324.86129379 C52.80637295 363.24626561 54.99745676 400.8167405 54.50390625 440.30078125 C-29.97609375 440.30078125 -114.45609375 440.30078125 -201.49609375 440.30078125 C-201.82609375 413.90078125 -202.15609375 387.50078125 -202.49609375 360.30078125 C-203.99471561 346.63871938 -205.45169671 333.57299385 -208.04957318 320.18133521 C-208.85278727 315.95715997 -209.57643412 311.71903973 -210.31175232 307.48262024 C-211.68890469 299.60978604 -213.12700991 291.74969063 -214.59344286 283.89305097 C-216.26936897 274.89639464 -217.87142172 265.88697701 -219.46887314 256.87610948 C-221.42255048 245.85638301 -223.38326967 234.83817413 -225.40516663 223.83073425 C-225.54472932 223.06984769 -225.68429201 222.30896112 -225.82808387 221.52501738 C-226.47966937 217.97456502 -227.13414893 214.42468967 -227.79374695 210.87571716 C-228.01948395 209.64935547 -228.24522095 208.42299377 -228.47779846 207.1594696 C-228.67560693 206.09361979 -228.87341539 205.02776999 -229.07721806 203.9296217 C-229.49609375 201.30078125 -229.49609375 201.30078125 -229.49609375 198.30078125 C-230.6665625 198.18992188 -231.83703125 198.0790625 -233.04296875 197.96484375 C-253.10641954 195.43264921 -273.629068 180.13488511 -285.79443359 164.64794922 C-292.53099245 155.59121581 -297.71454195 145.93042651 -301.49609375 135.30078125 C-301.72055176 134.67075195 -301.94500977 134.04072266 -302.17626953 133.39160156 C-310.04015852 109.96288549 -306.89622234 83.0516015 -296.41015625 61.0234375 C-284.07301028 36.38077926 -262.54565933 19.8378939 -236.81640625 11.04296875 C-213.05934504 3.93144058 -187.86979905 7.80654805 -165.49609375 17.30078125 C-164.73167969 16.48996094 -163.96726563 15.67914063 -163.1796875 14.84375 C-150.86438141 2.01376276 -137.74521122 -7.45934369 -121.49609375 -14.69921875 C-120.44164062 -15.18132813 -119.3871875 -15.6634375 -118.30078125 -16.16015625 C-80.31158865 -32.19140121 -32.31783025 -25.47213687 0 0 Z " fill="#E8EDF1" transform="translate(329.49609375,47.69921875)"/>
<path d="M0 0 C2.34637505 1.65101882 3.7435987 2.99450964 4.46573448 5.82640076 C4.76814824 8.17095113 4.94214789 10.49744868 5.08081055 12.85742188 C5.14806335 13.75246933 5.21531616 14.64751678 5.28460693 15.56968689 C5.50294227 18.5350691 5.69495104 21.50154075 5.88671875 24.46875 C6.03400024 26.5451543 6.18285443 28.62144759 6.33320618 30.69763184 C6.72568435 36.17979756 7.09564315 41.66326719 7.46130371 47.14727783 C7.83290313 52.65519137 8.22745367 58.16145446 8.61914062 63.66796875 C9.19288746 71.80198676 9.76095265 79.93636242 10.30737305 88.07226562 C10.39073662 89.28746132 10.39073662 89.28746132 10.4757843 90.52720642 C11.10541941 100.01403072 11.52500305 109.50006109 12 119 C27.84 119 43.68 119 60 119 C59.94199219 111.91144531 59.88398438 104.82289063 59.82421875 97.51953125 C59.79867303 93.0305761 59.77460356 88.54171048 59.75585938 84.05273438 C59.72596209 76.92648726 59.69058217 69.80056115 59.62280273 62.67456055 C59.56850265 56.9298062 59.53858332 51.18539605 59.52561378 45.44040489 C59.51637042 43.24789701 59.49832029 41.05540812 59.47134972 38.86304665 C59.43508696 35.79345521 59.43005362 32.72528852 59.43237305 29.65551758 C59.41439667 28.74777084 59.39642029 27.84002411 59.37789917 26.9047699 C59.41442646 22.44137561 59.55272709 20.58374787 62.34797668 16.93559265 C65 15 65 15 68 14.375 C72.15242082 15.24008767 73.42379187 16.63772167 76 20 C76.70991423 23.22255292 76.63274374 26.36733882 76.56762695 29.65551758 C76.56872215 31.10501801 76.56872215 31.10501801 76.56983948 32.58380127 C76.56636178 35.77128635 76.52749075 38.95730211 76.48828125 42.14453125 C76.47895381 44.35698142 76.47183737 46.56944193 76.46684265 48.78190613 C76.44776767 54.60021564 76.39866165 60.41789936 76.34332275 66.23596191 C76.28314034 73.21926695 76.2602165 80.20278143 76.23105621 87.18627167 C76.18259793 97.79128278 76.0867846 108.39492129 76 119 C91.84 119 107.68 119 124 119 C124.33 111.41 124.66 103.82 125 96 C125.43141225 89.21711433 125.88242016 82.43847253 126.375 75.66015625 C126.50591509 73.82890863 126.63660655 71.99764501 126.76708984 70.16636658 C127.03737394 66.38265444 127.30980733 62.59910582 127.58398438 58.81567383 C127.93396406 53.98474096 128.27910702 49.15347682 128.62277222 44.3220911 C128.89052488 40.56351537 129.16040732 36.80509497 129.43096924 33.0467205 C129.5591051 31.26428704 129.68667958 29.48181312 129.81365967 27.69929695 C129.99085635 25.21742421 130.17083531 22.73576823 130.3515625 20.25415039 C130.40250061 19.53358459 130.45343872 18.8130188 130.50592041 18.07061768 C131.48766926 4.74003329 131.48766926 4.74003329 133.6875 1.5625 C136.55284682 -0.37354515 138.5522468 -0.85634362 142 -1 C144.66239324 -0.18649095 145.65704525 0.43821332 147.1078186 2.81469345 C148.09034014 5.22127887 148.17879393 6.6987746 148.02490234 9.27740479 C147.98048004 10.10815395 147.93605774 10.93890312 147.89028931 11.79482651 C147.80151016 13.1305036 147.80151016 13.1305036 147.7109375 14.49316406 C147.65731049 15.42606388 147.60368347 16.3589637 147.5484314 17.32013321 C147.37813799 20.21435527 147.19122159 23.10709183 147 26 C146.94557739 26.8533342 146.89115479 27.7066684 146.83508301 28.58586121 C146.46121849 34.42922389 146.04751293 40.26935713 145.625 46.109375 C145.49413718 47.94108921 145.36344435 49.77281557 145.23291016 51.60455322 C144.96218465 55.39598875 144.68977201 59.18729776 144.41601562 62.97851562 C144.06678906 67.81618588 143.72141929 72.65412237 143.37722778 77.49215317 C143.10918731 81.25504169 142.83938486 85.01780226 142.56903076 88.78052521 C142.44098027 90.56492941 142.31340676 92.34936792 142.18634033 94.13384247 C142.00878772 96.62288645 141.82891653 99.11175265 141.6484375 101.60058594 C141.59749939 102.32069855 141.54656128 103.04081116 141.49407959 103.78274536 C141.12096421 108.8806225 140.56554612 113.91008493 140 119 C158.48 119 176.96 119 196 119 C196 145.4 196 171.8 196 199 C111.52 199 27.04 199 -60 199 C-60 172.6 -60 146.2 -60 119 C-41.52 119 -23.04 119 -4 119 C-4.33 117.35 -4.66 115.7 -5 114 C-5.15522578 112.5890086 -5.28382205 111.17483966 -5.38600159 109.75901794 C-5.4764122 108.53784019 -5.4764122 108.53784019 -5.56864929 107.29199219 C-5.63050919 106.41244873 -5.69236908 105.53290527 -5.75610352 104.62670898 C-5.85873505 103.22075218 -5.85873505 103.22075218 -5.96343994 101.78639221 C-6.1885401 98.68985314 -6.40891614 95.59299976 -6.62890625 92.49609375 C-6.78426275 90.33479204 -6.93977762 88.17350172 -7.09544373 86.01222229 C-7.421166 81.47892074 -7.74446372 76.94545405 -8.06616211 72.41186523 C-8.47689079 66.62731806 -8.89434481 60.84327932 -9.31375217 55.05935574 C-9.63677487 50.59234371 -9.95578549 46.12505172 -10.27366447 41.65767097 C-10.42584186 39.52673002 -10.57932843 37.39588211 -10.7341938 35.26513481 C-11.19963146 28.84566839 -11.63085524 22.42574635 -12 16 C-12.11503372 14.06182907 -12.11503372 14.06182907 -12.23239136 12.08450317 C-12.26905914 11.01642426 -12.30572693 9.94834534 -12.34350586 8.84790039 C-12.3764122 7.98298477 -12.40931854 7.11806915 -12.44322205 6.22694397 C-11.83251163 3.15846418 -10.35940553 1.97353353 -8 0 C-5.02898609 -1.48550695 -3.16565278 -0.82306972 0 0 Z " fill="#DCDEE0" transform="translate(188,289)"/>
<path d="M0 0 C3.66849159 1.44254382 6.17699751 3.84424488 8.96484375 6.54296875 C9.82577637 7.36317505 9.82577637 7.36317505 10.70410156 8.19995117 C12.36794703 9.8002893 14.01319816 11.41738275 15.65234375 13.04296875 C16.41417969 13.79191406 17.17601562 14.54085937 17.9609375 15.3125 C35.70380485 33.98356565 41.96942109 58.95862792 41.65234375 84.04296875 C41.32234375 84.04296875 40.99234375 84.04296875 40.65234375 84.04296875 C40.44480469 82.94082031 40.23726562 81.83867187 40.0234375 80.703125 C34.93862099 55.11409876 23.33187696 34.52532263 2.65234375 18.04296875 C-0.2545983 16.15476249 -3.1814357 14.36038715 -6.1953125 12.6484375 C-8.34765625 11.04296875 -8.34765625 11.04296875 -9.3515625 9.08203125 C-9.34765625 7.04296875 -9.34765625 7.04296875 -8.08984375 5.0859375 C-7.47367188 4.47363281 -6.8575 3.86132812 -6.22265625 3.23046875 C-5.62195313 2.60527344 -5.02125 1.98007812 -4.40234375 1.3359375 C-2.34765625 0.04296875 -2.34765625 0.04296875 0 0 Z " fill="#DCDEE0" transform="translate(174.34765625,56.95703125)"/>
<path d="M0 0 C11.03280013 22.3601653 15.75374358 43.07062884 15 68 C12.81774057 64.29590176 12.12275398 60.34005972 11.25 56.1875 C7.41903119 39.14516163 0.14104925 22.03579765 -11.62890625 8.953125 C-12.08136719 8.30859375 -12.53382813 7.6640625 -13 7 C-12 4 -12 4 -10.0390625 2.83203125 C-9.24242187 2.49558594 -8.44578125 2.15914062 -7.625 1.8125 C-6.83351563 1.46832031 -6.04203125 1.12414063 -5.2265625 0.76953125 C-3 0 -3 0 0 0 Z " fill="#DCDEE0" transform="translate(361,61)"/>
</svg>
