<?xml version="1.0" encoding="UTF-8"?>
<svg version="1.1" xmlns="http://www.w3.org/2000/svg" width="512" height="512">
<path d="M0 0 C4.85899979 4.12477575 9.49386574 8.49386574 14 13 C18.90281184 12.44480354 23.58832235 10.56642297 28.2578125 9.03515625 C47.56676331 3.69395378 69.94938937 3.54931855 89 10 C89.62970703 10.20898926 90.25941406 10.41797852 90.90820312 10.63330078 C106.57101106 15.95116665 119.29869464 24.43737678 131 36 C131.71542969 36.64324219 132.43085938 37.28648438 133.16796875 37.94921875 C148.91416469 52.43823338 159.98751336 76.89394574 161.17700195 98.1652832 C161.72049155 128.19145931 161.72049155 128.19145931 157 142 C156.79101074 142.62825684 156.58202148 143.25651367 156.36669922 143.90380859 C151.44230386 158.4114093 143.79499681 171.12000321 133 182 C132.175 182.86625 131.35 183.7325 130.5 184.625 C129.675 185.40875 128.85 186.1925 128 187 C127.3915625 187.59167969 126.783125 188.18335938 126.15625 188.79296875 C114.2308362 199.96224218 99.78549582 207.15255879 84 211 C83.87224686 211.85688919 83.74449371 212.71377838 83.61286926 213.59663391 C80.66851227 233.16493348 77.37657997 252.64371663 73.73035812 272.09381866 C64.11661156 323.54647535 55.5899897 373.64567469 56.69018555 426.12573242 C56.70641873 426.94291339 56.72265192 427.76009436 56.73937702 428.60203838 C56.8186656 432.37251274 56.92444623 436.13764721 57.09516907 439.90513611 C57.13917343 441.19021561 57.1831778 442.4752951 57.22851562 443.79931641 C57.27995728 444.90900787 57.33139893 446.01869934 57.38439941 447.16201782 C57 450 57 450 55.63076019 452.14562798 C51.50274339 455.05538725 47.45677042 454.5513965 42.5234375 454.50793457 C41.44478424 454.51417453 40.36613098 454.5204145 39.25479126 454.52684355 C35.62797408 454.54284208 32.00182258 454.53014194 28.375 454.51757812 C25.77994391 454.52299617 23.1848909 454.53011703 20.58984375 454.53881836 C14.26564436 454.55661909 7.9416347 454.55275678 1.61742783 454.5411678 C-3.52166554 454.53213981 -8.66070567 454.53090671 -13.79980469 454.53526306 C-14.89630246 454.53618246 -14.89630246 454.53618246 -16.01495171 454.53712043 C-17.49989066 454.53839931 -18.9848296 454.53969617 -20.46976852 454.5410108 C-34.39903909 454.55242114 -48.32820442 454.5392958 -62.25745773 454.51780933 C-74.21335787 454.49993791 -86.16910267 454.50304189 -98.125 454.52148438 C-112.00390176 454.54288311 -125.88271125 454.55132246 -139.7616272 454.53903532 C-141.24114989 454.5377611 -142.72067259 454.53650362 -144.20019531 454.53526306 C-144.92817762 454.53464596 -145.65615993 454.53402886 -146.40620232 454.53339306 C-151.54002978 454.52993715 -156.67379878 454.53577365 -161.80761719 454.54518127 C-168.71544133 454.55756128 -175.62296664 454.54876646 -182.53076172 454.52560425 C-185.07047028 454.52030176 -187.61020348 454.52185704 -190.14990234 454.53065491 C-193.60808504 454.5415327 -197.06531599 454.52793965 -200.5234375 454.50793457 C-202.04268326 454.5213189 -202.04268326 454.5213189 -203.59262085 454.53497362 C-210.35384857 454.45873836 -210.35384857 454.45873836 -213.63328362 452.13048744 C-215.43872921 449.31609287 -215.3642196 447.69500045 -215.13330078 444.37060547 C-215.07014175 443.20045395 -215.00698273 442.03030243 -214.94190979 440.82469177 C-214.81984413 438.86572716 -214.81984413 438.86572716 -214.6953125 436.8671875 C-214.56975113 433.89379884 -214.47581848 430.91976002 -214.38696289 427.94506836 C-214.36286189 427.14182286 -214.33876089 426.33857737 -214.31392956 425.5109911 C-212.97584012 377.75115331 -220.82588592 331.78910772 -229.0625 284.9375 C-229.29508499 283.61303502 -229.29508499 283.61303502 -229.53236866 282.26181316 C-232.32610393 266.3607614 -235.15061949 250.4652344 -238.06175232 234.58522034 C-238.19610247 233.85199271 -238.33045261 233.11876509 -238.46887398 232.36331844 C-239.09640899 228.9414084 -239.72647384 225.51999576 -240.36110115 222.09939384 C-240.5784284 220.92097483 -240.79575565 219.74255581 -241.01966858 218.52842712 C-241.2101027 217.5024237 -241.40053682 216.47642027 -241.59674168 215.41932583 C-242 213 -242 213 -242 211 C-242.6084375 210.87625 -243.216875 210.7525 -243.84375 210.625 C-268.97441476 204.71190241 -290.15766228 187.19693669 -303.87255859 165.83007812 C-318.10102513 142.73423898 -323.28948326 114.32389753 -317.87304688 87.5847168 C-317.06895939 84.31988511 -316.08870384 81.1847131 -315 78 C-314.79101074 77.37174316 -314.58202148 76.74348633 -314.36669922 76.09619141 C-309.04936621 60.43096989 -300.56423791 47.70293942 -289 36 C-288.03513672 34.92685547 -288.03513672 34.92685547 -287.05078125 33.83203125 C-272.22870972 17.72387976 -247.75626347 7.11938517 -226.03417969 5.82299805 C-209.62984578 5.50000716 -194.16425177 5.46525856 -178.765625 11.69921875 C-174.74405726 13.10412877 -174.74405726 13.10412877 -171 12 C-169.048373 10.26102242 -169.048373 10.26102242 -167.125 8.0625 C-161.36413644 2.11244552 -154.87037323 -2.43549087 -148 -7 C-147.06671875 -7.6290625 -146.1334375 -8.258125 -145.171875 -8.90625 C-101.55457333 -36.32283962 -40.03584745 -31.89996095 0 0 Z M-157 22 C-153.85100748 25.25395894 -150.5695412 28.30045098 -147.1875 31.3125 C-145.45738405 32.87394881 -143.7281799 34.43640867 -142 36 C-141.31550781 36.60457031 -140.63101563 37.20914063 -139.92578125 37.83203125 C-124.12276068 52.54518833 -113.0962385 76.70405292 -111.87548828 98.19165039 C-111.79586791 100.54539669 -111.76544258 102.89500631 -111.75 105.25 C-111.7190625 106.45269531 -111.7190625 106.45269531 -111.6875 107.6796875 C-111.64812348 113.56647732 -111.64812348 113.56647732 -113.39941406 115.72412109 C-115.90565039 117.72192327 -118.0366167 117.41388887 -121.12890625 117.2890625 C-123 117 -123 117 -124.9375 115.75 C-127.12314237 112.15011845 -127.19362969 108.19056529 -127.54345703 104.06176758 C-129.39944564 83.288297 -136.91450011 65.50177502 -151 50 C-151.55042969 49.36835937 -152.10085937 48.73671875 -152.66796875 48.0859375 C-167.24400248 32.32222695 -189.83017383 23.173744 -211.0234375 22.03125 C-234.89418667 21.78063846 -256.01836375 29.38238306 -274 45 C-274.74636719 45.64582031 -275.49273437 46.29164062 -276.26171875 46.95703125 C-291.52550403 61.20123166 -301.27744336 82.39916275 -302.4140625 103.125 C-303.25351605 128.82519323 -296.60121201 150.89385165 -279 170 C-278.17628906 170.94359375 -278.17628906 170.94359375 -277.3359375 171.90625 C-265.71359583 184.50189122 -249.27681204 192.16872963 -232.828125 195.98046875 C-229.46794974 197.19180265 -228.80451517 197.96640323 -227 201 C-226.17355347 204.20259094 -226.17355347 204.20259094 -225.52294922 208.0949707 C-225.3989185 208.81742918 -225.27488777 209.53988766 -225.14709854 210.28423882 C-224.73067449 212.7255838 -224.33036385 215.16930614 -223.9296875 217.61328125 C-223.63132616 219.38089903 -223.33188565 221.14833493 -223.03146362 222.91560364 C-222.37036456 226.81581419 -221.71607143 230.71709087 -221.06628418 234.61920166 C-219.9496242 241.31703489 -218.81054842 248.01096932 -217.66894531 254.70458984 C-215.35891462 268.25933913 -213.06288208 281.81643214 -210.7699585 295.37408447 C-209.0524383 305.5291847 -207.33376436 315.68408918 -205.61376572 325.83876991 C-205.01872378 329.3535188 -204.42462274 332.86842582 -203.83059692 336.38334656 C-203.46929758 338.51753386 -203.10796136 340.65171492 -202.74658203 342.78588867 C-202.58351059 343.75235321 -202.42043915 344.71881775 -202.25242615 345.71456909 C-202.02573494 347.05174736 -202.02573494 347.05174736 -201.79446411 348.41593933 C-201.6643651 349.18530414 -201.53426609 349.95466894 -201.40022469 350.74734783 C-200.96951614 353.17157747 -200.48287597 355.58562017 -200 358 C-184.16 358 -168.32 358 -152 358 C-152.9042937 342.32557586 -153.86109184 326.66503127 -155.0234375 311.0078125 C-155.11347046 309.78632507 -155.20350342 308.56483765 -155.29626465 307.30633545 C-155.74857196 301.17489131 -156.20798915 295.04412017 -156.67871094 288.9140625 C-157.45384767 278.61446448 -158.17719044 268.32321056 -158.3046875 257.9921875 C-158.32274445 257.21521515 -158.34080139 256.4382428 -158.35940552 255.63772583 C-158.35816265 250.5059063 -158.35816265 250.5059063 -156.60205078 248.02539062 C-153.61290843 246.11219375 -150.4066262 246.46660341 -147 247 C-144.32568511 248.81163267 -144.04079641 249.87761077 -143 253 C-142.83629124 254.34067793 -142.71436559 255.68673237 -142.62072754 257.03411865 C-142.56189896 257.85271362 -142.50307037 258.67130859 -142.44245911 259.51470947 C-142.35202583 260.85659332 -142.35202583 260.85659332 -142.25976562 262.22558594 C-142.15954353 263.64315186 -142.15954353 263.64315186 -142.05729675 265.08935547 C-141.83672469 268.22079044 -141.62157845 271.35257548 -141.40625 274.484375 C-141.25354574 276.66053111 -141.10042317 278.8366579 -140.94689941 281.01275635 C-140.54289268 286.75062926 -140.14313604 292.48878932 -139.74468994 298.22705078 C-139.10771662 307.39794131 -138.46668791 316.56854223 -137.82121277 325.7388382 C-137.59687294 328.93981551 -137.37577106 332.14100535 -137.15490723 335.34222412 C-137.01681318 337.31377052 -136.87859543 339.28530826 -136.74023438 341.25683594 C-136.6498011 342.5865744 -136.6498011 342.5865744 -136.55754089 343.94317627 C-136.49871231 344.77305054 -136.43988373 345.6029248 -136.37927246 346.45794678 C-136.32987267 347.17028347 -136.28047287 347.88262016 -136.22957611 348.61654282 C-135.92712685 351.7565684 -135.44612187 354.8771469 -135 358 C-119.16 358 -103.32 358 -87 358 C-86.96261719 351.39355469 -86.92523438 344.78710938 -86.88671875 337.98046875 C-86.85645171 333.80140591 -86.82531215 329.62238633 -86.79101562 325.44335938 C-86.73663232 318.80658098 -86.68552496 312.16988816 -86.65356445 305.53295898 C-86.62760262 300.18361043 -86.58725095 294.83454819 -86.53681374 289.48537636 C-86.52009673 287.44202542 -86.50861266 285.39862491 -86.50238609 283.35521507 C-86.49279747 280.49846578 -86.46480146 277.64245703 -86.43237305 274.78588867 C-86.43380814 273.93640656 -86.43524323 273.08692444 -86.4367218 272.21170044 C-86.3434067 266.41975585 -86.3434067 266.41975585 -84.59617329 264.28406239 C-82.60846765 262.6850267 -81.52654063 262.59628931 -79 262.625 C-78.319375 262.61726563 -77.63875 262.60953125 -76.9375 262.6015625 C-74.41388788 263.12053112 -73.61854975 264.02160027 -72 266 C-71.69003248 268.99563307 -71.56256165 271.78754961 -71.56762695 274.78588867 C-71.5574353 275.68365524 -71.54724365 276.58142181 -71.53674316 277.50639343 C-71.50652321 280.47698128 -71.49733347 283.44724715 -71.48828125 286.41796875 C-71.47144124 288.47635477 -71.45329193 290.53473046 -71.43388367 292.59309387 C-71.38630396 298.01326267 -71.35654614 303.43338961 -71.33044434 308.85369873 C-71.29544661 315.35577668 -71.23841129 321.85769382 -71.18505096 328.35964203 C-71.10644368 338.23974129 -71.05590844 348.1196287 -71 358 C-55.16 358 -39.32 358 -23 358 C-21.28134876 339.98125141 -21.28134876 339.98125141 -19.90991211 321.94189453 C-19.67126207 318.36966408 -19.42888599 314.79773768 -19.18188477 311.22607422 C-18.64942589 303.52193137 -18.12136509 295.81751008 -17.60449219 288.11230469 C-17.28500357 283.35435753 -16.95755929 278.59701433 -16.62496948 273.83996582 C-16.5007684 272.04126407 -16.37957484 270.24235193 -16.26150513 268.4432373 C-16.09721108 265.94334702 -15.92280639 263.44435125 -15.74609375 260.9453125 C-15.70032196 260.21081879 -15.65455017 259.47632507 -15.60739136 258.71957397 C-15.3194093 254.81081816 -14.8247549 251.49582883 -13 248 C-9.88450128 246.44225064 -6.3955612 246.43519378 -3 247 C-1.39355469 247.99337769 -1.39355469 247.99337769 0 250 C0.26207261 252.89357685 0.34210238 255.54579929 0.26953125 258.43408203 C0.25815628 259.27782442 0.24678131 260.12156681 0.23506165 260.99087715 C0.06103186 270.36746294 -0.60020424 279.70650749 -1.3125 289.0546875 C-1.44767463 290.89880681 -1.5821823 292.74297512 -1.71606445 294.58718872 C-2.06523269 299.37604275 -2.42223324 304.16427722 -2.78137207 308.95239258 C-3.3580734 316.66170761 -3.92181721 324.37198417 -4.48690796 332.08215714 C-4.68417193 334.75951735 -4.88439972 337.43664234 -5.08520508 340.11373901 C-5.20658234 341.7501395 -5.32792228 343.38654275 -5.44921875 345.02294922 C-5.50532318 345.76058502 -5.56142761 346.49822083 -5.61923218 347.25820923 C-5.88431821 350.86132751 -6 354.38041978 -6 358 C9.84 358 25.68 358 42 358 C43.59245197 348.66664118 45.18487627 339.33327844 46.77636719 329.99975586 C47.96728674 323.01566395 49.15924546 316.03175082 50.35248375 309.0480547 C53.58461331 290.12891613 56.81296406 271.2094708 59.95094872 252.27445412 C60.33407874 249.96444652 60.71835168 247.65463237 61.10310364 245.34489441 C61.22612067 244.60634877 61.34913771 243.86780313 61.47588253 243.10687733 C61.71804217 241.65326502 61.96025223 240.19966111 62.2025156 238.74606609 C62.89525273 234.58497126 63.5800131 230.4226602 64.25899601 226.25930023 C64.77519882 223.10792701 65.30262191 219.95842733 65.828125 216.80859375 C66.00564804 215.70220551 66.18317108 214.59581726 66.36607361 213.4559021 C67.30168996 207.91183124 68.27276634 202.9522819 71 198 C73.78384846 196.63338349 76.05088718 195.80170057 79 195 C93.55086648 190.73288373 105.74467578 184.22701387 117 174 C117.63164062 173.44957031 118.26328125 172.89914063 118.9140625 172.33203125 C133.92715023 158.45006657 143.30605415 137.07912989 144.4140625 116.875 C145.25351605 91.17480677 138.60121201 69.10614835 121 50 C120.17628906 49.05640625 120.17628906 49.05640625 119.3359375 48.09375 C104.3680508 31.87239496 81.35039649 23.00181695 59.640625 21.9609375 C48.84597287 22.07675995 38.27999721 23.66954734 28 27 C28 31.7395078 29.67961302 34.17183806 32.0625 38.0625 C35.65020744 44.18224465 38.57960942 50.35386554 41.0625 57 C41.36099854 57.77609619 41.65949707 58.55219238 41.96704102 59.35180664 C44.13434532 65.37382108 45.07950131 70.76149607 43 77 C35.89649802 78.32438173 35.89649802 78.32438173 32.44140625 77.07421875 C28.85625059 74.0282705 28.0283541 70.52152194 26.625 66.125 C16.76979489 37.51816729 -3.06965035 15.67307117 -29.70703125 1.56640625 C-72.26162278 -18.91338967 -123.07518688 -10.91350433 -157 22 Z M-199 374 C-199 395.12 -199 416.24 -199 438 C-119.8 438 -40.6 438 41 438 C41 416.88 41 395.76 41 374 C-38.2 374 -117.4 374 -199 374 Z " fill="#000000" transform="translate(335,42)"/>
</svg>
