<?xml version="1.0" encoding="UTF-8"?>
<svg version="1.1" xmlns="http://www.w3.org/2000/svg" width="512" height="512">
<path d="M0 0 C1.21513427 -0.00768229 2.43026853 -0.01536458 3.68222505 -0.02327967 C5.02216764 -0.0217194 6.36211001 -0.01996187 7.70205212 -0.01802826 C9.13212519 -0.02319887 10.56219538 -0.02922612 11.99226159 -0.03603506 C15.91769074 -0.05214236 19.84304669 -0.05575236 23.76850498 -0.05723 C28.00380493 -0.06093674 32.23906714 -0.07603408 36.47434521 -0.08950043 C45.73255815 -0.11664311 54.99075373 -0.12871227 64.24899983 -0.13752174 C70.03053641 -0.14304968 75.81206631 -0.15152486 81.59359837 -0.16053009 C97.60361117 -0.18491047 113.61361863 -0.20551127 129.6236496 -0.21228027 C130.64793592 -0.21271941 131.67222224 -0.21315854 132.72754754 -0.21361098 C133.75426676 -0.21404753 134.78098597 -0.21448409 135.83881789 -0.21493387 C137.91930251 -0.2158208 139.99978711 -0.21671393 142.08027172 -0.21761322 C143.62825601 -0.21827751 143.62825601 -0.21827751 145.2075127 -0.21895522 C161.93326885 -0.22685303 178.65885084 -0.26176882 195.3845397 -0.30833226 C212.55983854 -0.35576128 229.73504996 -0.380684 246.91041535 -0.38301611 C256.55252713 -0.38484934 266.19441185 -0.39634701 275.83646107 -0.43265533 C284.04576072 -0.46345991 292.25476311 -0.4736969 300.46410958 -0.45717913 C304.65171634 -0.44936715 308.83872448 -0.45121816 313.02625751 -0.47929382 C316.86276558 -0.50478064 320.69822555 -0.50237231 324.53473224 -0.4781124 C326.57379511 -0.47235147 328.61287614 -0.49606528 330.65179521 -0.52095652 C338.62753351 -0.4350028 343.92457762 0.74917287 349.86762524 6.26285553 C354.78461936 11.86406763 354.39529807 17.93713678 354.25825024 25.10269928 C354.25259045 26.22479294 354.24693066 27.3468866 354.24109936 28.50298309 C354.21879865 32.06921704 354.16861173 35.63442781 354.11762524 39.20035553 C354.09755219 41.62547118 354.07930283 44.05060265 354.06293774 46.47574615 C354.02236474 52.40548913 353.94405688 58.33303385 353.86762524 64.26285553 C369.70762524 64.26285553 385.54762524 64.26285553 401.86762524 64.26285553 C400.35595019 68.04204315 399.26803863 70.3548192 396.97700024 73.51285553 C396.43301586 74.28629303 395.88903149 75.05973053 395.32856274 75.85660553 C394.18266706 77.46818484 393.02627454 79.07234893 391.85981274 80.66910553 C391.05157055 81.82926178 391.05157055 81.82926178 390.22700024 83.01285553 C389.72652172 83.70894928 389.22604321 84.40504303 388.71039867 85.12223053 C387.60952029 87.29344862 387.60952029 87.29344862 388.54389477 89.75626373 C389.81189921 92.15733375 391.14883702 94.38222001 392.68793774 96.61832428 C393.49037914 97.79878326 393.49037914 97.79878326 394.30903149 99.0030899 C394.86461742 99.81068756 395.42020336 100.61828522 395.99262524 101.45035553 C397.10359541 103.06596547 398.21058384 104.68432309 399.31293774 106.30582428 C399.80294262 107.01762848 400.2929475 107.72943268 400.79780102 108.4628067 C401.86762524 110.26285553 401.86762524 110.26285553 401.86762524 112.26285553 C386.02762524 112.26285553 370.18762524 112.26285553 353.86762524 112.26285553 C353.86762524 122.82285553 353.86762524 133.38285553 353.86762524 144.26285553 C374.98762524 144.26285553 396.10762524 144.26285553 417.86762524 144.26285553 C416.35595019 148.04204315 415.26803863 150.3548192 412.97700024 153.51285553 C412.43301586 154.28629303 411.88903149 155.05973053 411.32856274 155.85660553 C410.18266706 157.46818484 409.02627454 159.07234893 407.85981274 160.66910553 C407.05157055 161.82926178 407.05157055 161.82926178 406.22700024 163.01285553 C405.47628246 164.05699615 405.47628246 164.05699615 404.71039867 165.12223053 C403.60952029 167.29344862 403.60952029 167.29344862 404.54389477 169.75626373 C405.81189921 172.15733375 407.14883702 174.38222001 408.68793774 176.61832428 C409.49037914 177.79878326 409.49037914 177.79878326 410.30903149 179.0030899 C410.86461742 179.81068756 411.42020336 180.61828522 411.99262524 181.45035553 C413.10359541 183.06596547 414.21058384 184.68432309 415.31293774 186.30582428 C416.04794506 187.37353058 416.04794506 187.37353058 416.79780102 188.4628067 C417.86762524 190.26285553 417.86762524 190.26285553 417.86762524 192.26285553 C396.74762524 192.26285553 375.62762524 192.26285553 353.86762524 192.26285553 C353.91475658 203.96097687 353.91475658 203.96097687 353.96284008 215.89542389 C354.05917722 240.85973053 354.12589592 265.82403218 354.17401721 290.78847557 C354.18152129 294.6673872 354.18928724 298.54629826 354.19721508 302.42520905 C354.19878894 303.19741748 354.20036281 303.96962591 354.20198436 304.7652346 C354.22807921 317.2622715 354.2753794 329.7591425 354.33054201 342.25608104 C354.3866877 355.0828849 354.41998563 367.90960198 354.43215621 380.73652369 C354.44038145 388.64899576 354.46634207 396.56099884 354.51512404 404.47332651 C354.55064452 410.54461719 354.55434719 416.61550602 354.54627132 422.68691254 C354.54792123 425.17456256 354.55984617 427.66223042 354.58285809 430.14977455 C354.61276701 433.5498073 354.6055141 436.94784311 354.58915234 440.34792328 C354.60662938 441.32946331 354.62410643 442.31100335 354.64211309 443.32228702 C354.55021231 450.4006048 352.66123603 455.01552373 347.86762524 460.26285553 C341.62740795 465.52130545 334.76383531 464.82576701 326.91967297 464.7707901 C325.48944633 464.77540187 324.05922443 464.78175664 322.62901241 464.78969908 C318.70765834 464.80637847 314.78669428 464.79815246 310.86533892 464.7857542 C306.63275726 464.77670004 302.40024243 464.79067542 298.16767406 464.80167389 C289.87870888 464.81946118 281.58988857 464.8156178 273.30091771 464.80402333 C266.56250418 464.79498828 259.82413124 464.79376532 253.08571339 464.79811859 C252.12649869 464.79873152 251.167284 464.79934446 250.1790022 464.79997596 C248.23031124 464.80125488 246.28162029 464.80255173 244.33292935 464.80386633 C226.05850126 464.81527321 207.78415341 464.80215767 189.50973848 464.78066486 C173.83708303 464.76280235 158.16454612 464.76589079 142.49189281 464.7843399 C124.28732645 464.80575947 106.08283049 464.81416554 87.87825328 464.80189085 C85.93583033 464.80061668 83.99340736 464.79935919 82.05098438 464.79811859 C81.09531016 464.79750149 80.13963593 464.79688439 79.15500188 464.79624858 C72.42796877 464.79279831 65.70098038 464.79861727 58.9739542 464.8080368 C50.77095565 464.8192706 42.56811015 464.81618809 34.36512908 464.79491383 C30.18158046 464.78442065 25.99828676 464.78025176 21.81474018 464.79351044 C17.98085873 464.80547684 14.14746718 464.79880247 10.31362984 464.77760023 C8.27837741 464.77105339 6.24309067 464.78403244 4.20787448 464.79782915 C-5.77002726 464.71282002 -14.14009314 462.93430251 -21.60112476 455.96598053 C-27.66121079 449.22568077 -30.37946491 442.13019058 -30.38964367 433.05567551 C-30.39314974 432.34938495 -30.39665582 431.6430944 -30.40026814 430.9154011 C-30.40957194 428.5487389 -30.4046615 426.18232331 -30.3998003 423.81565094 C-30.40353708 422.10168055 -30.40813871 420.38771186 -30.41353095 418.67374587 C-30.42577301 413.96353387 -30.42549905 409.25339283 -30.42314219 404.54316854 C-30.42273433 399.46326952 -30.43377028 394.38339334 -30.44325733 389.30350494 C-30.45987506 379.35072399 -30.46536723 369.39796672 -30.46648209 359.44517305 C-30.46743222 351.35519942 -30.47154078 343.26523361 -30.47788334 335.17526245 C-30.49549807 312.24095219 -30.50472188 289.30666065 -30.50322239 266.37234357 C-30.50314248 265.13577306 -30.50306257 263.89920256 -30.50298023 262.62516022 C-30.50289847 261.38708059 -30.50281671 260.14900095 -30.50273247 258.87340376 C-30.50191956 238.80841048 -30.5210578 218.74349227 -30.54925697 198.67852071 C-30.57798022 178.07815105 -30.59179756 157.47781801 -30.59006941 136.87742782 C-30.58940531 125.31100912 -30.59490667 113.7446691 -30.61642551 102.17826843 C-30.63462995 92.33019634 -30.63899069 82.4822386 -30.62540667 72.63415697 C-30.61887326 67.61013528 -30.61877337 62.58633302 -30.63611317 57.56233215 C-30.65183234 52.96052887 -30.64899198 48.35911923 -30.6315449 43.75732562 C-30.62847247 42.09515594 -30.63211658 40.43295697 -30.64326505 38.77082184 C-30.71430579 27.42525247 -29.95393959 17.48657645 -21.83549976 8.79410553 C-15.5147298 3.11121143 -8.55664375 0.02037513 0 0 Z " fill="#E72F3E" transform="translate(70.13237476348877,23.737144470214844)"/>
<path d="M0 0 C8.56445739 6.45930069 18.63029526 16.86875311 20.55859375 27.9296875 C21.47125 27.93355469 21.47125 27.93355469 22.40234375 27.9375 C37.99179978 28.62527012 53.89830056 36.18266899 64.58203125 47.50390625 C71.03238511 55.42024962 76.42795894 64.17456026 79.55859375 73.9296875 C79.97109375 75.1259375 80.38359375 76.3221875 80.80859375 77.5546875 C84.65838147 94.50062807 80.09435455 113.08431689 71.30859375 127.6796875 C63.87721964 138.69862153 54.20993671 146.71257318 41.55859375 150.9296875 C41.55859375 181.6196875 41.55859375 212.3096875 41.55859375 243.9296875 C-11.24140625 243.9296875 -64.04140625 243.9296875 -118.44140625 243.9296875 C-118.44140625 214.2296875 -118.44140625 184.5296875 -118.44140625 153.9296875 C-121.74140625 152.9396875 -125.04140625 151.9496875 -128.44140625 150.9296875 C-145.22437809 143.14335682 -156.65174428 129.92647462 -163.44140625 112.9296875 C-169.15420105 95.32864718 -167.53333637 77.8095677 -159.37890625 61.3046875 C-150.15708529 45.14679607 -135.80607625 34.72778609 -118.19140625 29.1171875 C-111.33972666 27.3470874 -104.46528173 27.67375681 -97.44140625 27.9296875 C-97.04308594 26.61097656 -97.04308594 26.61097656 -96.63671875 25.265625 C-91.34928182 10.50918336 -78.83233162 -0.2212776 -65.00390625 -6.8203125 C-43.22070929 -16.03862071 -19.66374811 -13.29942906 0 0 Z " fill="#E9E9E7" transform="translate(294.44140625,100.0703125)"/>
<path d="M0 0 C1.72652497 -0.00597315 1.72652497 -0.00597315 3.48792922 -0.01206696 C5.37022379 -0.00332844 5.37022379 -0.00332844 7.29054451 0.00558662 C8.64453338 0.00471408 9.99852192 0.00296219 11.35250866 0.00040829 C15.06731059 -0.00405963 18.781997 0.00393079 22.49678421 0.01396441 C26.50489609 0.02260462 30.5130015 0.01967835 34.52112007 0.01815987 C41.46352239 0.01711138 48.4058871 0.02338422 55.34827995 0.03463554 C65.3857985 0.05089245 75.42329887 0.05609875 85.46082915 0.05861153 C101.74621048 0.06298833 118.03157177 0.07629704 134.31694221 0.09521675 C150.13627713 0.11357593 165.95560661 0.12773225 181.77495003 0.13623238 C182.75012124 0.13675782 183.72529245 0.13728327 184.73001431 0.13782464 C189.62218177 0.14043472 194.51434927 0.14296214 199.40651679 0.14544845 C239.98930661 0.16618049 280.57205935 0.20305001 321.15483284 0.24609566 C321.15483284 21.36609566 321.15483284 42.48609566 321.15483284 64.24609566 C279.53978189 64.33429332 237.92481916 64.40814388 196.30970148 64.45035698 C191.39561099 64.45535975 186.48152069 64.46053704 181.5674305 64.46582222 C180.58913196 64.46687146 179.61083341 64.4679207 178.60288946 64.46900174 C162.76662443 64.48640251 146.93041753 64.5179384 131.09418698 64.55470684 C114.84230397 64.59212537 98.5904514 64.61433344 82.33852708 64.62244964 C72.31184405 64.62793551 62.28532535 64.64525635 52.25869291 64.67776152 C45.38116208 64.69892066 38.5037161 64.70529253 31.62615509 64.70010117 C27.65933159 64.69754157 23.69279507 64.70143927 19.72602272 64.72291756 C16.08988324 64.74246131 12.45422226 64.74331554 8.8180602 64.72969124 C6.88882007 64.72721548 4.95958511 64.74439726 3.03042758 64.76242089 C-6.75223346 64.69539861 -15.01101931 62.76985166 -22.31391716 55.94922066 C-29.57531225 47.87277102 -31.32508688 39.63534273 -31.15766716 28.94140816 C-30.73669539 23.963417 -29.49489341 20.43943191 -26.84516716 16.24609566 C-26.4210656 15.55000191 -25.99696404 14.85390816 -25.56001091 14.13672066 C-19.63869879 5.36196287 -10.67502411 -0.0081801 0 0 Z " fill="#E9E9E7" transform="translate(70.84516716003418,423.75390434265137)"/>
<path d="M0 0 C0 132 0 264 0 400 C-7.59 400.33 -15.18 400.66 -23 401 C-33.12010765 405.49782562 -40.06629566 408.9328462 -45 419 C-46.29904008 422.30392016 -46.29904008 422.30392016 -47 425 C-47.33 425 -47.66 425 -48 425 C-48.09155075 374.0852069 -48.16203632 323.17042212 -48.20426132 272.25556291 C-48.20926416 266.24491941 -48.21444145 260.23427607 -48.21972656 254.22363281 C-48.2207758 253.02701939 -48.22182505 251.83040597 -48.22290608 250.59753154 C-48.24031242 231.22084894 -48.2718514 211.8442138 -48.30861118 192.46755935 C-48.34601419 172.58607585 -48.36823451 152.70461721 -48.37635398 132.82309997 C-48.38184306 120.55463913 -48.39918144 108.28631243 -48.43166587 96.01789288 C-48.45280581 87.60555617 -48.4592012 79.19328884 -48.45400551 70.78092749 C-48.45144295 65.92705794 -48.45537782 61.07342285 -48.4768219 56.21959496 C-48.4963232 51.77299778 -48.4972468 47.32679217 -48.48359558 42.88017677 C-48.48190901 41.27434882 -48.48695287 39.66849618 -48.49953273 38.06271662 C-48.58261096 26.80017493 -47.69670817 17.09003602 -39.703125 8.53125 C-27.81177226 -2.16005796 -16.80872024 0 0 0 Z " fill="#961B20" transform="translate(88,24)"/>
<path d="M0 0 C12.75241913 -0.13923613 25.50465638 -0.24574142 38.25768185 -0.31087303 C44.1799556 -0.3421387 50.10170794 -0.38452574 56.02368164 -0.45263672 C61.74253501 -0.51799728 67.46088798 -0.55374186 73.18008614 -0.56926346 C75.35814856 -0.58031971 77.53618468 -0.60191034 79.71403313 -0.63438034 C82.77340999 -0.67816464 85.83073933 -0.6839248 88.89038086 -0.68115234 C90.23042931 -0.71350983 90.23042931 -0.71350983 91.59754944 -0.746521 C98.42752863 -0.67988348 102.83345278 1.57320293 108 6 C112.93880398 11.5652529 112.52712974 17.70267661 112.390625 24.83984375 C112.38496521 25.96193741 112.37930542 27.08403107 112.37347412 28.24012756 C112.35117341 31.80636151 112.30098649 35.37157228 112.25 38.9375 C112.22992695 41.36261565 112.2116776 43.78774712 112.1953125 46.21289062 C112.15473951 52.1426336 112.07643164 58.07017832 112 64 C127.84 64 143.68 64 160 64 C158.48832495 67.77918762 157.40041339 70.09196367 155.109375 73.25 C154.56539062 74.0234375 154.02140625 74.796875 153.4609375 75.59375 C152.31504182 77.20532931 151.1586493 78.8094934 149.9921875 80.40625 C149.45335937 81.1796875 148.91453125 81.953125 148.359375 82.75 C147.85889648 83.44609375 147.35841797 84.1421875 146.84277344 84.859375 C145.74189506 87.03059309 145.74189506 87.03059309 146.67626953 89.4934082 C147.94427398 91.89447822 149.28121178 94.11936448 150.8203125 96.35546875 C151.35527344 97.14244141 151.89023437 97.92941406 152.44140625 98.74023438 C152.99699219 99.54783203 153.55257812 100.35542969 154.125 101.1875 C155.23597017 102.80310994 156.34295861 104.42146756 157.4453125 106.04296875 C157.93531738 106.75477295 158.42532227 107.46657715 158.93017578 108.19995117 C160 110 160 110 160 112 C153.15033893 112.20337138 146.30145976 112.34315635 139.44946289 112.43945312 C137.12039092 112.47960675 134.79151963 112.53414347 132.46313477 112.60351562 C129.10903396 112.70092278 125.75760411 112.7460082 122.40234375 112.78125 C121.36665756 112.82254028 120.33097137 112.86383057 119.26390076 112.90637207 C112.16045465 112.91074973 112.16045465 112.91074973 108.99183655 110.4239502 C107.19691237 108.36034951 105.6080577 106.21116141 104 104 C102.84225034 102.75545479 101.65914418 101.53399669 100.45141602 100.33789062 C99.85132217 99.73787231 99.25122833 99.137854 98.63294983 98.51965332 C98.01286545 97.90473022 97.39278107 97.28980713 96.75390625 96.65625 C96.09792953 96.00168823 95.44195282 95.34712646 94.76609802 94.67272949 C92.70059855 92.61276177 90.63162405 90.55632634 88.5625 88.5 C87.14885566 87.0913795 85.73544214 85.68252733 84.32226562 84.2734375 C80.88416851 80.84627867 77.44295344 77.42227981 74 74 C71.9929782 74.9978974 69.99761674 76.00129309 68.02734375 77.0703125 C61.39837652 80.4157726 55.05921824 81.35932732 47.8046875 79.41015625 C40.85146158 76.45162679 35.48269085 70.3978332 32.5 63.5625 C31.3120847 55.09860349 31.57240274 49.40087425 36 42 C36.67219848 40.66944695 37.33956136 39.33642921 38 38 C34.87904935 34.85012694 31.75257094 31.70579867 28.625 28.5625 C27.73554688 27.66466797 26.84609375 26.76683594 25.9296875 25.84179688 C25.07890625 24.98779297 24.228125 24.13378906 23.3515625 23.25390625 C22.56604004 22.46314697 21.78051758 21.6723877 20.97119141 20.85766602 C19.13255698 18.94628982 19.13255698 18.94628982 17 18 C17 17.34 17 16.68 17 16 C16.01 15.67 15.02 15.34 14 15 C14 14.34 14 13.68 14 13 C13.34 13 12.68 13 12 13 C12 12.34 12 11.68 12 11 C11.34 11 10.68 11 10 11 C10 10.34 10 9.68 10 9 C9.01 8.67 8.02 8.34 7 8 C7 7.34 7 6.68 7 6 C6.401875 5.7525 5.80375 5.505 5.1875 5.25 C2.70517913 3.83153093 1.63671965 2.30735262 0 0 Z " fill="#FAB43F" transform="translate(312,24)"/>
<path d="M0 0 C0.65742188 0.11472656 1.31484375 0.22945313 1.9921875 0.34765625 C2.65476563 0.43917969 3.31734375 0.53070313 4 0.625 C6.67296557 1.74898761 7.42153746 2.87919848 8.8671875 5.41015625 C9.12377199 8.17280789 9.21744344 10.70091184 9.16015625 13.45703125 C9.15591141 14.22823303 9.15166656 14.99943481 9.14729309 15.79400635 C9.13054133 18.2497494 9.09289689 20.70466254 9.0546875 23.16015625 C9.03963607 24.82811312 9.02594847 26.4960829 9.01367188 28.1640625 C8.98320467 32.24666832 8.92448068 36.32748675 8.8671875 40.41015625 C16.7871875 40.41015625 24.7071875 40.41015625 32.8671875 40.41015625 C32.80917969 37.94160156 32.75117188 35.47304688 32.69140625 32.9296875 C32.65237639 30.53022471 32.62203737 28.13079772 32.5925293 25.73120117 C32.56743403 24.06762786 32.53334954 22.40416429 32.48999023 20.7409668 C32.4291129 18.34526472 32.40092981 15.95102374 32.37890625 13.5546875 C32.35309982 12.81491165 32.3272934 12.0751358 32.30070496 11.3129425 C32.29853838 7.29510292 32.71444399 5.60024951 35.2644043 2.42675781 C37.8671875 0.41015625 37.8671875 0.41015625 40 0 C40.98613281 0.17208984 40.98613281 0.17208984 41.9921875 0.34765625 C42.65476562 0.43917969 43.31734375 0.53070313 44 0.625 C46.67296557 1.74898761 47.42153746 2.87919848 48.8671875 5.41015625 C49.12377199 8.17280789 49.21744344 10.70091184 49.16015625 13.45703125 C49.15591141 14.22823303 49.15166656 14.99943481 49.14729309 15.79400635 C49.13054133 18.2497494 49.09289689 20.70466254 49.0546875 23.16015625 C49.03963607 24.82811312 49.02594847 26.4960829 49.01367188 28.1640625 C48.98320467 32.24666832 48.92448068 36.32748675 48.8671875 40.41015625 C56.7871875 40.41015625 64.7071875 40.41015625 72.8671875 40.41015625 C72.80917969 37.94160156 72.75117188 35.47304688 72.69140625 32.9296875 C72.65237639 30.53022471 72.62203737 28.13079772 72.5925293 25.73120117 C72.56743403 24.06762786 72.53334954 22.40416429 72.48999023 20.7409668 C72.4291129 18.34526472 72.40092981 15.95102374 72.37890625 13.5546875 C72.35309982 12.81491165 72.3272934 12.0751358 72.30070496 11.3129425 C72.29853838 7.29510292 72.71444399 5.60024951 75.2644043 2.42675781 C77.8671875 0.41015625 77.8671875 0.41015625 80 0 C80.98613281 0.17208984 80.98613281 0.17208984 81.9921875 0.34765625 C82.65476562 0.43917969 83.31734375 0.53070313 84 0.625 C86.67296557 1.74898761 87.42153746 2.87919848 88.8671875 5.41015625 C89.12377199 8.17280789 89.21744344 10.70091184 89.16015625 13.45703125 C89.15591141 14.22823303 89.15166656 14.99943481 89.14729309 15.79400635 C89.13054133 18.2497494 89.09289689 20.70466254 89.0546875 23.16015625 C89.03963607 24.82811312 89.02594847 26.4960829 89.01367188 28.1640625 C88.98320467 32.24666832 88.92448068 36.32748675 88.8671875 40.41015625 C99.4271875 40.41015625 109.9871875 40.41015625 120.8671875 40.41015625 C120.8671875 50.97015625 120.8671875 61.53015625 120.8671875 72.41015625 C68.0671875 72.41015625 15.2671875 72.41015625 -39.1328125 72.41015625 C-39.1328125 61.85015625 -39.1328125 51.29015625 -39.1328125 40.41015625 C-28.5728125 40.41015625 -18.0128125 40.41015625 -7.1328125 40.41015625 C-7.19082031 37.94160156 -7.24882812 35.47304688 -7.30859375 32.9296875 C-7.34762361 30.53022471 -7.37796263 28.13079772 -7.4074707 25.73120117 C-7.43256597 24.06762786 -7.46665046 22.40416429 -7.51000977 20.7409668 C-7.5708871 18.34526472 -7.59907019 15.95102374 -7.62109375 13.5546875 C-7.64690018 12.81491165 -7.6727066 12.0751358 -7.69929504 11.3129425 C-7.70146162 7.29510292 -7.28555601 5.60024951 -4.7355957 2.42675781 C-2.1328125 0.41015625 -2.1328125 0.41015625 0 0 Z " fill="#CBCBCB" transform="translate(215.1328125,271.58984375)"/>
<path d="M0 0 C0.83323325 -0.00427212 1.66646651 -0.00854425 2.52494925 -0.01294583 C5.3153324 -0.02117791 8.10421045 0.00631212 10.89445496 0.03364563 C12.89516667 0.03505605 14.89588098 0.03426423 16.89659119 0.03143311 C22.32816647 0.02999734 27.75919071 0.05941351 33.19063783 0.09430289 C38.86675877 0.12553941 44.54289206 0.12849501 50.21908569 0.13442993 C60.96778721 0.14997628 71.71623475 0.19101565 82.46482438 0.24117738 C94.70167285 0.29704606 106.93853339 0.32455115 119.17547762 0.34965456 C144.34781818 0.40193066 169.51991535 0.49089456 194.69206238 0.60127258 C194.69206238 5.88127258 194.69206238 11.16127258 194.69206238 16.60127258 C168.29324892 16.67066585 141.89445737 16.72422892 115.49557114 16.7567091 C103.23860828 16.77218984 90.98170308 16.79330243 78.72477722 16.82759094 C68.04388652 16.85745633 57.36303755 16.8768388 46.68210626 16.88353807 C41.02460327 16.88745517 35.36721972 16.89668599 29.70975494 16.91846275 C24.38778739 16.93878268 19.06598879 16.94511548 13.74398613 16.94059563 C11.78801239 16.94142284 9.83203317 16.94741514 7.87609291 16.95888901 C5.21043441 16.97376281 2.54541811 16.97024496 -0.12025452 16.96203613 C-0.89846565 16.97077466 -1.67667679 16.97951318 -2.47847009 16.98851651 C-5.70648959 16.961553 -7.93791132 16.81250814 -10.77059555 15.19542408 C-12.56134191 13.33850425 -13.01947696 12.26703004 -13.37043762 9.72627258 C-13.48516418 9.06885071 -13.59989075 8.41142883 -13.71809387 7.73408508 C-12.35334696 0.63740113 -6.08341977 -0.11427883 0 0 Z " fill="#CBCBCB" transform="translate(197.3079376220703,447.3987274169922)"/>
<path d="M0 0 C21.12 0 42.24 0 64 0 C62.48832495 3.77918762 61.40041339 6.09196367 59.109375 9.25 C58.29339844 10.41015625 58.29339844 10.41015625 57.4609375 11.59375 C56.31504182 13.20532931 55.1586493 14.8094934 53.9921875 16.40625 C53.45335937 17.1796875 52.91453125 17.953125 52.359375 18.75 C51.85889648 19.44609375 51.35841797 20.1421875 50.84277344 20.859375 C49.74189506 23.03059309 49.74189506 23.03059309 50.67626953 25.4934082 C51.94427398 27.89447822 53.28121178 30.11936448 54.8203125 32.35546875 C55.35527344 33.14244141 55.89023437 33.92941406 56.44140625 34.74023438 C56.99699219 35.54783203 57.55257812 36.35542969 58.125 37.1875 C59.23597017 38.80310994 60.34295861 40.42146756 61.4453125 42.04296875 C61.93531738 42.75477295 62.42532227 43.46657715 62.93017578 44.19995117 C64 46 64 46 64 48 C42.88 48 21.76 48 0 48 C0 32.16 0 16.32 0 0 Z " fill="#009BF6" transform="translate(424,168)"/>
<path d="M0 0 C0.33 0 0.66 0 1 0 C1.1395164 8.58015318 1.24587962 17.15982616 1.31087303 25.74083614 C1.34207976 29.72615288 1.38435283 33.71068905 1.45263672 37.69555664 C1.51821664 41.54708497 1.55378606 45.39786645 1.56926346 49.24991035 C1.58028133 50.71349394 1.6017966 52.17704034 1.63438034 53.64030266 C1.79963378 61.37474289 1.66860755 67.71422146 -3.02450562 74.18678284 C-12.31582916 82.7148695 -17.06219895 80 -31 80 C-31 58.88 -31 37.76 -31 16 C-23.08 15.505 -23.08 15.505 -15 15 C-9.05064322 13.01688107 -5.28477589 11.51842349 -2 6 C-0.74443113 2.82078213 -0.74443113 2.82078213 0 0 Z " fill="#961A1F" transform="translate(423,408)"/>
<path d="M0 0 C15.84 0 31.68 0 48 0 C46.48832495 3.77918762 45.40041339 6.09196367 43.109375 9.25 C42.29339844 10.41015625 42.29339844 10.41015625 41.4609375 11.59375 C40.31504182 13.20532931 39.1586493 14.8094934 37.9921875 16.40625 C37.45335937 17.1796875 36.91453125 17.953125 36.359375 18.75 C35.85889648 19.44609375 35.35841797 20.1421875 34.84277344 20.859375 C33.74189506 23.03059309 33.74189506 23.03059309 34.67626953 25.4934082 C35.94427398 27.89447822 37.28121178 30.11936448 38.8203125 32.35546875 C39.35527344 33.14244141 39.89023437 33.92941406 40.44140625 34.74023438 C40.99699219 35.54783203 41.55257812 36.35542969 42.125 37.1875 C43.23597017 38.80310994 44.34295861 40.42146756 45.4453125 42.04296875 C45.93531738 42.75477295 46.42532227 43.46657715 46.93017578 44.19995117 C48 46 48 46 48 48 C32.16 48 16.32 48 0 48 C0 32.16 0 16.32 0 0 Z " fill="#01A437" transform="translate(424,88)"/>
<path d="M0 0 C1.65772817 -0.03644067 3.31517077 -0.09079036 4.97167969 -0.1640625 C20.46134209 -0.83813384 20.46134209 -0.83813384 27.46704102 4.90966797 C29.02236292 6.44286226 30.55969232 7.99467522 32.07250977 9.56982422 C37.89825547 14.16400491 43.97653918 16.95205035 50.93286133 19.39086914 C54.76265833 20.78853637 57.10006033 21.93001645 59.07250977 25.56982422 C59.74864732 29.54213237 59.37749119 31.09201999 57.19750977 34.50732422 C53.37521156 37.03004103 51.58987217 37.16995229 47.15063477 36.47216797 C36.88954878 33.46415926 24.60420679 27.46368411 17.8203125 19.00927734 C14.04587806 15.90073349 8.11710938 16.92589348 3.44750977 16.88232422 C2.29637695 16.82882813 1.14524414 16.77533203 -0.04077148 16.72021484 C-6.30015735 16.65241078 -10.10488472 17.04498514 -14.82983398 21.34326172 C-16.1958422 22.75199682 -17.56173785 24.16084109 -18.92749023 25.56982422 C-26.98467267 31.51552075 -36.72392197 36.56982422 -46.86499023 36.56982422 C-49.92749023 35.56982422 -49.92749023 35.56982422 -51.92749023 33.44482422 C-53.23531711 29.68482194 -52.98839641 27.38908644 -51.92749023 23.56982422 C-49.13775065 21.00577143 -46.37902747 19.89910506 -42.80249023 18.75732422 C-33.30903435 15.40372626 -26.24986391 10.31263606 -18.95874023 3.42529297 C-13.98326359 -1.11961358 -6.41384327 0.10933758 0 0 Z " fill="#CBCBCB" transform="translate(252.927490234375,225.43017578125)"/>
<path d="M0 0 C5.24623334 3.58045852 9.14433984 8.13627213 11.640625 13.9609375 C12.78823646 21.99421774 12.76805766 28.47659914 8.140625 35.4609375 C3.03517431 41.09921511 -1.68058427 44.96543592 -9.390625 45.703125 C-15.78376119 46.00170554 -20.69912023 45.39155926 -25.859375 41.4609375 C-32.67128014 35.1935008 -35.75189288 29.83250425 -36.234375 20.5234375 C-36.04993386 14.10682719 -34.1797586 9.90253516 -29.765625 5.2578125 C-21.04168058 -2.826376 -11.12970591 -5.64492278 0 0 Z " fill="#EA9C2D" transform="translate(379.859375,58.5390625)"/>
<path d="M0 0 C0.66569504 -0.00554901 1.33139008 -0.01109802 2.01725769 -0.01681519 C4.20691044 -0.02857861 6.39447797 -0.00437471 8.58398438 0.02148438 C10.11185614 0.02319649 11.63973084 0.02312877 13.16760254 0.0213623 C16.36543997 0.02301365 19.56257476 0.04167599 22.76025391 0.07324219 C26.85265379 0.1129199 30.94413402 0.11728643 35.03668976 0.10977936 C38.19037249 0.1067051 41.3438497 0.11884625 44.4974823 0.13591003 C46.00610565 0.14292529 47.5147523 0.14606636 49.02339172 0.1452179 C51.13450962 0.14702221 53.24453978 0.16845545 55.35546875 0.1953125 C57.15485901 0.20794128 57.15485901 0.20794128 58.99060059 0.2208252 C62.50598722 0.65585581 64.4061499 1.42935876 67.17773438 3.61523438 C68.34954351 7.57009021 68.58254767 9.68416379 66.92773438 13.49023438 C65.17773438 15.61523438 65.17773438 15.61523438 62.17773438 16.61523438 C59.97587341 16.71994026 57.77096424 16.7638979 55.56665039 16.77636719 C54.89964111 16.78133209 54.23263184 16.786297 53.54541016 16.79141235 C51.34080979 16.80600722 49.13628134 16.81283076 46.93164062 16.81835938 C45.39851378 16.82411214 43.86538694 16.82986986 42.33226013 16.83563232 C39.11855738 16.84613407 35.9048796 16.85198243 32.69116211 16.85546875 C28.57405421 16.86095796 24.45727627 16.88499827 20.34027195 16.9134407 C17.17383356 16.93206534 14.00747479 16.93727254 10.84098625 16.93880463 C9.32313161 16.94183107 7.80527836 16.94985938 6.28747749 16.96298981 C4.16413352 16.98005061 2.04159765 16.97817077 -0.08178711 16.97167969 C-1.28963364 16.97532532 -2.49748016 16.97897095 -3.7419281 16.98272705 C-7.08217443 16.58422654 -8.44457294 15.94418256 -10.82226562 13.61523438 C-11.60742188 11.74804688 -11.60742188 11.74804688 -11.88476562 9.74023438 C-11.99949219 9.0828125 -12.11421875 8.42539062 -12.23242188 7.74804688 C-11.00767616 1.37936915 -5.67628993 -0.00972131 0 0 Z " fill="#961B20" transform="translate(259.822265625,375.384765625)"/>
<path d="M0 0 C1.73618591 -0.00006042 1.73618591 -0.00006042 3.50744629 -0.00012207 C5.95179684 0.00523347 8.39614694 0.02281732 10.84033203 0.05175781 C14.58028833 0.09359939 18.31844293 0.09282635 22.05859375 0.0859375 C24.43490834 0.09643055 26.81121365 0.10936926 29.1875 0.125 C30.3053186 0.12520142 31.42313721 0.12540283 32.5748291 0.12561035 C34.14170471 0.14947815 34.14170471 0.14947815 35.74023438 0.17382812 C37.11326721 0.18645691 37.11326721 0.18645691 38.51403809 0.19934082 C41.66986243 0.68183117 43.55480977 1.67385991 46.09375 3.59375 C47.26555914 7.54860583 47.4985633 9.66267942 45.84375 13.46875 C44.09375 15.59375 44.09375 15.59375 41.09375 16.59375 C39.38186229 16.69623411 37.6663217 16.74219402 35.95141602 16.75488281 C34.90345352 16.76449036 33.85549103 16.7740979 32.77577209 16.78399658 C31.64449387 16.78824646 30.51321564 16.79249634 29.34765625 16.796875 C28.18499741 16.80257507 27.02233856 16.80827515 25.82444763 16.81414795 C23.36401276 16.8235985 20.90356524 16.83013215 18.44311523 16.83398438 C14.67474403 16.84370231 10.90691532 16.87473101 7.13867188 16.90625 C4.75000324 16.9127788 2.36133071 16.91802975 -0.02734375 16.921875 C-1.15659775 16.9342218 -2.28585175 16.9465686 -3.44932556 16.95928955 C-4.50044022 16.95628845 -5.55155487 16.95328735 -6.63452148 16.95019531 C-8.01993385 16.95566376 -8.01993385 16.95566376 -9.43333435 16.96124268 C-12.37918338 16.52346877 -13.74027355 15.60206635 -15.90625 13.59375 C-16.69140625 11.7265625 -16.69140625 11.7265625 -16.96875 9.71875 C-17.08347656 9.06132812 -17.19820312 8.40390625 -17.31640625 7.7265625 C-16.80554703 5.07009458 -15.68096573 3.52957478 -13.73875427 1.67184448 C-9.65179109 -0.73258782 -4.59754977 -0.06743316 0 0 Z " fill="#CBCBCB" transform="translate(80.90625,447.40625)"/>
<path d="M0 0 C1.26972656 0.00257813 2.53945312 0.00515625 3.84765625 0.0078125 C5.16636719 0.03617187 6.48507813 0.06453125 7.84375 0.09375 C9.16246094 0.09117187 10.48117188 0.08859375 11.83984375 0.0859375 C23.01106169 0.19935088 23.01106169 0.19935088 27.34375 3.59375 C28.51555914 7.54860583 28.7485633 9.66267942 27.09375 13.46875 C25.34375 15.59375 25.34375 15.59375 22.34375 16.59375 C18.21346894 16.82017956 14.08306774 16.82198569 9.94702148 16.83398438 C7.91673966 16.8436998 5.8874667 16.87474209 3.85742188 16.90625 C2.57544922 16.91140625 1.29347656 16.9165625 -0.02734375 16.921875 C-1.20224365 16.9312207 -2.37714355 16.94056641 -3.58764648 16.95019531 C-6.92795458 16.56218912 -8.27640665 15.91743815 -10.65625 13.59375 C-11.44140625 11.7265625 -11.44140625 11.7265625 -11.71875 9.71875 C-11.83347656 9.06132812 -11.94820312 8.40390625 -12.06640625 7.7265625 C-10.85989613 1.45270987 -5.62319549 -0.03445969 0 0 Z " fill="#971B20" transform="translate(203.65625,375.40625)"/>
<path d="M0 0 C2.84375 1.3203125 2.84375 1.3203125 5 3 C6.17180914 6.95485583 6.4048133 9.06892942 4.75 12.875 C3 15 3 15 0 16 C-2.14253254 16.14525644 -4.29024833 16.22075253 -6.4375 16.25 C-7.57058594 16.27578125 -8.70367187 16.3015625 -9.87109375 16.328125 C-13.30052858 15.96848389 -14.63200456 15.46852355 -17 13 C-18.12435586 10.32615871 -18.28538575 7.87624065 -18 5 C-14.31820319 -1.79716335 -6.83778768 -1.01551302 0 0 Z " fill="#CBCBCB" transform="translate(162,448)"/>
</svg>
