<?xml version="1.0" encoding="UTF-8"?>
<svg version="1.1" xmlns="http://www.w3.org/2000/svg" width="512" height="512">
<path d="M0 0 C0.87052002 0.00215515 1.74104004 0.0043103 2.63793945 0.00653076 C28.72737229 0.10975718 53.50276063 3.95147972 78.0625 13.0625 C79.18712646 13.47375122 79.18712646 13.47375122 80.33447266 13.89331055 C89.75186794 17.5768637 98.21536125 22.55742697 107.25 27.3125 C107.25 141.1625 107.25 255.0125 107.25 372.3125 C103.41542366 371.03430789 100.30907919 369.95818377 96.80859375 368.17578125 C79.34612943 359.46513352 61.43636102 352.99791928 42.25 349.3125 C41.14736816 349.08820313 41.14736816 349.08820313 40.02246094 348.859375 C12.50080447 343.46433968 -18.22333881 344.7003534 -45.75 349.3125 C-47.49144287 349.60253906 -47.49144287 349.60253906 -49.26806641 349.8984375 C-76.48764191 354.56773861 -103.11161146 361.55941875 -129.66796875 369.05859375 C-130.42882404 369.27337372 -131.18967934 369.48815369 -131.97359085 369.70944214 C-139.72205136 371.89786963 -147.4680213 374.09462188 -155.20709705 376.31602573 C-170.60397473 380.73287972 -186.01563961 384.99063887 -201.5859375 388.7578125 C-202.2563677 388.92044649 -202.9267979 389.08308048 -203.61754417 389.25064278 C-216.90511995 392.46019512 -230.2497489 395.16907552 -243.75 397.3125 C-244.75353516 397.47621094 -245.75707031 397.63992188 -246.79101562 397.80859375 C-298.36730634 405.91870574 -349.54259344 398.83264688 -395.75 374.3125 C-396.75 373.3125 -396.75 373.3125 -396.8741985 370.97615141 C-396.87381878 369.92850302 -396.87343906 368.88085462 -396.87304783 367.80145931 C-396.87503888 366.59769679 -396.87702993 365.39393427 -396.87908131 364.15369409 C-396.87622772 362.80069964 -396.87328211 361.44770538 -396.87025452 360.0947113 C-396.87069009 358.67079193 -396.87156475 357.24687263 -396.87284368 355.82295376 C-396.87509131 351.89166001 -396.87106372 347.96039323 -396.86606562 344.02910292 C-396.86176513 339.79663378 -396.86320726 335.56416627 -396.8639679 331.33169556 C-396.86449339 323.99251886 -396.86134397 316.65335103 -396.85573006 309.31417656 C-396.84761844 298.70283604 -396.84500019 288.09149983 -396.84374207 277.48015655 C-396.84155101 260.26582134 -396.83488948 243.05149085 -396.82543945 225.8371582 C-396.81626671 209.11059594 -396.80918521 192.38403497 -396.80493164 175.6574707 C-396.80466892 174.62721995 -396.80440619 173.5969692 -396.80413551 172.53549873 C-396.80283051 167.36726479 -396.8015668 162.19903084 -396.80032361 157.03079689 C-396.78994933 114.12469465 -396.77232957 71.21859757 -396.75 28.3125 C-393.12575163 29.49875451 -389.7078718 30.71834975 -386.30859375 32.44921875 C-356.00812551 47.56967061 -324.20147657 54.77575373 -290.375 54.625 C-289.49949493 54.62284485 -288.62398987 54.6206897 -287.72195435 54.61846924 C-272.89255483 54.56018459 -258.3980984 53.7668179 -243.75 51.3125 C-242.58903809 51.11914062 -241.42807617 50.92578125 -240.23193359 50.7265625 C-208.30561423 45.24985702 -177.23033965 36.49729479 -146.10882568 27.65707397 C-47.9819085 -0.21591628 -47.9819085 -0.21591628 0 0 Z " fill="#DD1018" transform="translate(400.75,55.6875)"/>
<path d="M0 0 C1.86077887 0.37024308 3.7366685 0.66215487 5.61230469 0.94775391 C13.78974238 2.28637678 21.52519882 4.7078415 29.37011719 7.33447266 C30.34223145 7.65109863 31.3143457 7.96772461 32.31591797 8.29394531 C44.80019736 12.62571098 55.89543138 18.58912347 67.99511719 24.39697266 C67.99511719 63.99697266 67.99511719 103.59697266 67.99511719 144.39697266 C64.16054084 143.11878054 61.05419638 142.04265643 57.55371094 140.26025391 C40.09124661 131.54960618 22.1814782 125.08239194 2.99511719 121.39697266 C2.2600293 121.24744141 1.52494141 121.09791016 0.76757812 120.94384766 C-26.75407834 115.54881234 -57.47822162 116.78482605 -85.00488281 121.39697266 C-86.74632568 121.68701172 -86.74632568 121.68701172 -88.52294922 121.98291016 C-115.74252473 126.65221126 -142.36649427 133.6438914 -168.92285156 141.14306641 C-169.68370686 141.35784637 -170.44456215 141.57262634 -171.22847366 141.79391479 C-178.97693417 143.98234229 -186.72290411 146.17909454 -194.46197987 148.40049839 C-209.85885755 152.81735238 -225.27052242 157.07511153 -240.84082031 160.84228516 C-241.51125051 161.00491915 -242.18168072 161.16755314 -242.87242699 161.33511543 C-256.16000276 164.54466778 -269.50463172 167.25354817 -283.00488281 169.39697266 C-284.00841797 169.56068359 -285.01195312 169.72439453 -286.04589844 169.89306641 C-337.62218916 178.0031784 -388.79747626 170.91711954 -435.00488281 146.39697266 C-436.00488281 145.39697266 -436.00488281 145.39697266 -436.12793064 143.39984035 C-436.12700885 142.51584088 -436.12608706 141.63184141 -436.12513733 140.72105408 C-436.12651199 139.70998093 -436.12788666 138.69890778 -436.12930298 137.65719604 C-436.1257077 136.5387027 -436.12211243 135.42020935 -436.1184082 134.26782227 C-436.11855423 133.09724777 -436.11870026 131.92667328 -436.11885071 130.72062683 C-436.11827177 127.50176323 -436.11324273 124.28294262 -436.10627675 121.06408763 C-436.10004238 117.70349866 -436.09943935 114.34290892 -436.09825134 110.98231506 C-436.09513827 104.61454924 -436.08692521 98.2468005 -436.07690185 91.87904221 C-436.06573996 84.63127537 -436.06023007 77.38350773 -436.05520642 70.13573444 C-436.04474258 55.22280431 -436.02714361 40.30989019 -436.00488281 25.39697266 C-435.47841156 25.64964401 -434.95194031 25.90231537 -434.40951538 26.16264343 C-431.97129838 27.33082999 -429.53107755 28.49477313 -427.09082031 29.65869141 C-426.26316162 30.05600464 -425.43550293 30.45331787 -424.58276367 30.8626709 C-412.12857808 36.79251328 -399.29053443 41.67349398 -386.00488281 45.39697266 C-385.12832031 45.66123047 -384.25175781 45.92548828 -383.34863281 46.19775391 C-359.50609765 52.87777453 -334.51462384 51.9917024 -310.00488281 51.39697266 C-308.87050781 51.37038574 -307.73613281 51.34379883 -306.56738281 51.31640625 C-269.85800641 50.10065754 -232.06578691 38.72958152 -197.11669922 28.31933594 C-180.97850432 23.53586659 -164.78352873 19.0075646 -148.47558594 14.83935547 C-142.0229085 13.18898114 -135.59908141 11.46712859 -129.19238281 9.64697266 C-121.85023703 7.58196857 -114.49927158 5.83414962 -107.00488281 4.39697266 C-106.23208984 4.24373535 -105.45929688 4.09049805 -104.66308594 3.93261719 C-71.22036961 -2.63419972 -33.7662789 -6.92263104 0 0 Z " fill="#002984" transform="translate(440.0048828125,283.60302734375)"/>
<path d="M0 0 C2.32546796 0.87554411 4.6673452 1.69914749 7.01025391 2.52685547 C8.8172242 3.18170773 10.62322351 3.83924571 12.42822266 4.49951172 C13.62535889 4.92937378 13.62535889 4.92937378 14.84667969 5.36791992 C23.77532999 8.74793755 31.34032678 13.16989037 39.99072266 17.74951172 C39.99072266 54.70951172 39.99072266 91.66951172 39.99072266 129.74951172 C33.28721861 127.51501037 33.28721861 127.51501037 30.16259766 125.90185547 C0.93847892 111.21954581 -29.88535804 103.27333134 -62.57177734 103.43701172 C-63.31818481 103.4385022 -64.06459229 103.43999268 -64.83361816 103.44152832 C-100.56678165 103.56807422 -135.61265948 109.67375002 -169.99023438 119.19287109 C-172.22234151 119.80825251 -174.45734947 120.41227921 -176.69287109 121.01513672 C-187.98423038 124.06659437 -199.25013101 127.20668411 -210.50927734 130.37451172 C-211.17724335 130.56242279 -211.84520935 130.75033386 -212.53341675 130.94393921 C-219.4948858 132.90332181 -226.45261789 134.87501482 -233.40380859 136.87060547 C-239.46336796 138.60410616 -245.54151571 140.2405405 -251.64257812 141.8203125 C-255.48947655 142.81887548 -259.32763713 143.82994234 -263.14599609 144.93310547 C-330.25101171 164.01837874 -400.36575057 164.7172779 -463.00927734 131.74951172 C-464.00927734 130.74951172 -464.00927734 130.74951172 -464.13232517 128.87731838 C-464.13140338 128.05231366 -464.13048159 127.22730894 -464.12953186 126.37730408 C-464.13159386 124.9616642 -464.13159386 124.9616642 -464.13369751 123.51742554 C-464.13010223 122.4737381 -464.12650696 121.43005066 -464.12280273 120.35473633 C-464.12294876 119.2621904 -464.12309479 118.16964447 -464.12324524 117.04399109 C-464.12254557 113.41325939 -464.11475063 109.78257826 -464.10693359 106.15185547 C-464.10506961 103.64221729 -464.10364561 101.13257874 -464.10264587 98.62294006 C-464.09921082 92.68016579 -464.09132007 86.73740788 -464.08129638 80.79464203 C-464.06903988 73.36749247 -464.06365527 65.94034067 -464.05810547 58.51318359 C-464.04736545 45.25861699 -464.03047817 32.00406551 -464.00927734 18.74951172 C-460.34343102 19.94977567 -456.87794308 21.19509921 -453.42724609 22.92138672 C-386.84792562 55.74172884 -311.39547958 47.30832628 -242.38818359 26.05810547 C-236.70018137 24.32285164 -230.94378717 22.83736855 -225.19677734 21.31201172 C-217.52847981 19.27170173 -209.9030153 17.15489693 -202.32177734 14.81201172 C-181.85118293 8.52549772 -160.88854483 3.48009405 -140.00927734 -1.25048828 C-139.08695312 -1.46302246 -138.16462891 -1.67555664 -137.21435547 -1.89453125 C-93.94006342 -11.78309933 -42.43039238 -16.0358726 0 0 Z " fill="#FEFEFE" transform="translate(468.00927734375,178.25048828125)"/>
</svg>
